<svg width="970" height="443" viewBox="0 0 970 443" fill="none" xmlns="http://www.w3.org/2000/svg">
<path d="M235.817 157.355H242.267V99.3031H235.817V78.1463H295.03C305.78 78.1463 314.166 80.3394 320.186 84.7256C326.206 89.1117 329.216 95.39 329.216 103.56C329.216 108.634 328.012 112.935 325.604 116.461C323.196 119.901 320.358 122.524 317.09 124.33C313.908 126.05 310.812 127.211 307.802 127.813V129.103C313.908 129.705 319.412 131.64 324.314 134.908C329.216 138.177 331.667 144.025 331.667 152.453C331.667 161.483 328.27 168.106 321.476 172.32C314.682 176.448 305.866 178.512 295.03 178.512H235.817V157.355ZM285.355 120.46C287.849 120.46 289.698 119.815 290.902 118.525C292.192 117.149 292.837 115.042 292.837 112.204V107.559C292.837 104.721 292.192 102.657 290.902 101.367C289.698 99.9911 287.849 99.3031 285.355 99.3031H278.388V120.46H285.355ZM286.258 157.355C288.752 157.355 290.601 156.71 291.805 155.42C293.095 154.044 293.74 151.937 293.74 149.099V143.423C293.74 140.585 293.095 138.521 291.805 137.23C290.601 135.854 288.752 135.166 286.258 135.166H278.388V157.355H286.258ZM341.006 157.355H347.456V99.3031H341.006V78.1463H400.219C411.314 78.1463 419.785 80.4254 425.633 84.9836C431.481 89.5417 434.405 96.938 434.405 107.172C434.405 112.935 433.244 117.923 430.922 122.137C428.6 126.351 425.289 129.275 420.989 130.909L421.118 132.199C429.374 133.489 433.502 138.564 433.502 147.422V157.355H439.566V178.512H398.671V148.196C398.671 144.842 398.155 142.305 397.123 140.585C396.177 138.865 394.629 137.703 392.479 137.101C390.415 136.499 387.448 136.198 383.578 136.198V157.355H392.092V178.512H341.006V157.355ZM390.544 120.46C393.038 120.46 394.887 119.815 396.091 118.525C397.381 117.149 398.026 115.042 398.026 112.204V107.559C398.026 104.721 397.381 102.657 396.091 101.367C394.887 99.9911 393.038 99.3031 390.544 99.3031H383.578V120.46H390.544ZM544.034 157.355H549.194V178.512H498.625V157.355H506.365L504.301 147.035H486.756L484.692 157.355H492.432V178.512H448.313V157.355H453.473L475.275 78.1463H522.232L544.034 157.355ZM489.594 133.36H501.463L496.174 107.688H494.883L489.594 133.36ZM558.439 178.512V157.355H564.89V99.3031H558.439V78.1463H607.461V99.3031H601.011V157.355H607.461V178.512H558.439ZM692.078 78.1463H734.392V99.3031H727.941V178.512H691.691L653.893 120.331V157.355H660.085V178.512H617.771V157.355H624.222V99.3031H617.771V78.1463H664.342L698.27 129.877V99.3031H692.078V78.1463ZM334.722 365.574C316.489 365.574 301.868 365.015 290.86 363.897C279.938 362.779 270.52 360.371 262.608 356.673C254.696 353.061 248.074 347.6 242.741 340.289C236.979 331.947 234.098 320.294 234.098 305.329C234.098 287.871 238.398 274.841 246.999 266.241C255.685 257.64 267.811 253.34 283.378 253.34C298.858 253.34 310.942 257.167 319.628 264.822C328.314 272.39 332.658 283.742 332.658 298.879C332.658 305.415 331.583 311.564 329.432 317.327C327.368 323.003 323.756 328.249 318.596 333.065L319.241 334.355H334.722V365.574ZM283.378 334.355C289.226 334.355 292.15 331.173 292.15 324.809V285.849C292.15 279.485 289.226 276.303 283.378 276.303C277.53 276.303 274.606 279.485 274.606 285.849V324.809C274.606 331.173 277.53 334.355 283.378 334.355ZM392.718 357.318C379.216 357.318 368.766 354.351 361.37 348.417C354.06 342.482 350.405 332.85 350.405 319.52V276.303H343.955V255.146H391.686V276.303H386.526V326.099C386.526 328.937 387.128 331.044 388.332 332.42C389.622 333.71 391.514 334.355 394.008 334.355C396.502 334.355 398.352 333.71 399.556 332.42C400.846 331.044 401.491 328.937 401.491 326.099V276.303H396.33V255.146H440.579V276.303H434.129V319.52C434.129 332.85 430.56 342.482 423.421 348.417C416.283 354.351 406.049 357.318 392.718 357.318ZM450.416 355.512V334.355H456.866V276.303H450.416V255.146H537.494V294.106H508.597V276.303H492.987V296.686H504.34V311.392H492.987V334.355H508.597V313.972H537.494V355.512H450.416ZM587.534 357.318C579.277 357.318 571.451 356.63 564.055 355.254C556.744 353.792 551.111 352.158 547.155 350.352V324.809H575.536C575.536 327.475 576.138 329.41 577.342 330.614C578.546 331.818 580.739 332.42 583.921 332.42C586.587 332.42 588.48 332.033 589.598 331.259C590.802 330.399 591.404 329.152 591.404 327.518C591.404 326.142 590.845 324.981 589.727 324.035C588.609 323.003 586.673 321.971 583.921 320.939L572.827 317.069C563.281 313.456 556.4 309.199 552.186 304.297C548.058 299.395 545.994 292.773 545.994 284.43C545.994 274.282 549.305 266.585 555.927 261.339C562.636 256.006 573.773 253.34 589.34 253.34C596.822 253.34 603.831 254.114 610.367 255.662C616.99 257.124 622.322 259.102 626.364 261.597V284.688H600.563C600.563 280.388 597.897 278.238 592.565 278.238C589.985 278.238 588.136 278.582 587.017 279.27C585.985 279.872 585.469 280.99 585.469 282.624C585.469 284.086 586.071 285.247 587.276 286.107C588.566 286.967 590.63 287.871 593.468 288.817L604.691 292.687C613.807 295.783 620.43 299.825 624.558 304.813C628.772 309.715 630.879 316.166 630.879 324.164C630.879 335.086 627.181 343.343 619.785 348.933C612.474 354.523 601.724 357.318 587.534 357.318ZM735.867 286.365H713.678V276.303H705.422V334.355H714.452V355.512H660.27V334.355H669.3V276.303H661.044V286.365H638.855V255.146H735.867V286.365Z" fill="#FFDB70"/>
</svg>
