<svg width="970" height="442" viewBox="0 0 970 442" fill="none" xmlns="http://www.w3.org/2000/svg">
<path d="M920 199.485V193.928C920 188.902 919.264 184.342 917.812 180.275C916.34 176.199 914.258 172.732 911.567 169.886C908.875 167.02 905.612 164.831 901.739 163.263C897.885 161.714 893.508 160.939 888.648 160.939C883.787 160.939 879.401 161.704 875.489 163.263C871.587 164.831 868.276 167.087 865.536 170.06C862.815 173.052 860.704 176.654 859.242 180.895C857.77 185.136 857.034 189.909 857.034 195.186C857.034 205.605 859.852 213.835 865.468 219.867C871.103 225.919 879.362 228.94 890.275 228.94C903.046 228.94 918.761 223.45 919.884 208.597C919.932 208.064 919.961 207.561 919.981 207.028V206.96H901.671C901.671 206.96 901.313 208.781 901.264 208.916C900.993 209.797 900.606 210.649 900.073 211.405C898.021 214.348 894.177 214.58 890.914 214.58C885.869 214.58 882.044 213.302 879.459 210.737C876.854 208.18 875.557 204.801 875.557 200.609V199.476H920V199.485ZM875.557 188.031C875.557 183.819 876.738 180.488 879.14 178.009C881.522 175.531 884.746 174.301 888.774 174.301C892.802 174.301 895.978 175.521 898.282 177.951C900.587 180.382 901.739 183.741 901.739 188.031V189.038H875.557V188.031Z" fill="#FFDB70"/>
<path d="M331.172 228.657C319.417 228.657 310.712 224.687 305.038 216.757C299.374 208.827 296.537 197.634 296.537 183.197C296.537 168.761 299.364 157.568 305.038 149.637C310.703 141.707 319.417 137.738 331.172 137.738C335.703 137.738 339.712 138.348 343.198 139.568C346.683 140.788 349.685 142.482 352.202 144.67C354.72 146.849 356.802 149.502 358.438 152.6C360.074 155.708 361.352 159.194 362.282 163.058L344.65 167.337C344.146 165.236 343.556 163.309 342.888 161.547C342.21 159.785 341.358 158.274 340.302 157.016C339.257 155.757 337.95 154.769 336.4 154.053C334.841 153.346 332.973 152.988 330.794 152.988C325.672 152.988 322.041 154.982 319.901 158.972C317.761 162.961 316.687 168.48 316.687 175.529V190.895C316.687 197.944 317.761 203.463 319.901 207.452C322.041 211.441 325.672 213.436 330.794 213.436C335.161 213.436 338.327 212.1 340.302 209.408C342.278 206.726 343.72 203.279 344.65 199.077L362.282 203.356C361.352 207.22 360.074 210.706 358.438 213.804C356.802 216.912 354.72 219.575 352.202 221.802C349.685 224.029 346.683 225.723 343.198 226.905C339.712 228.076 335.703 228.667 331.172 228.667V228.657Z" fill="#FFDB70"/>
<path d="M371.966 133.952H390.605V173.999H391.36C392.115 172.15 393.035 170.436 394.129 168.838C395.223 167.241 396.54 165.837 398.099 164.617C399.648 163.397 401.459 162.438 403.512 161.721C405.564 161.005 407.898 160.647 410.502 160.647C413.61 160.647 416.457 161.17 419.062 162.215C421.666 163.271 423.893 164.839 425.733 166.94C427.583 169.042 429.025 171.598 430.081 174.619C431.126 177.64 431.649 181.125 431.649 185.066V227.127H413.01V187.584C413.01 179.189 409.36 174.987 402.059 174.987C400.636 174.987 399.222 175.171 397.838 175.558C396.453 175.936 395.214 176.526 394.119 177.32C393.025 178.124 392.164 179.102 391.534 180.283C390.905 181.464 390.585 182.849 390.585 184.437V227.127H371.946V133.942L371.966 133.952Z" fill="#FFDB70"/>
<path d="M497.519 227.148C493.655 227.148 490.547 226.16 488.204 224.185C485.851 222.21 484.466 219.382 484.05 215.684H483.421C482.239 219.963 479.916 223.197 476.43 225.385C472.944 227.564 468.684 228.658 463.649 228.658C457.355 228.658 452.291 226.954 448.476 223.555C444.652 220.157 442.744 215.393 442.744 209.264C442.744 202.467 445.223 197.432 450.171 194.149C455.128 190.877 462.39 189.24 471.957 189.24H482.404V185.968C482.404 182.104 481.504 179.19 479.693 177.215C477.892 175.239 474.842 174.252 470.562 174.252C466.612 174.252 463.426 175.007 460.996 176.517C458.556 178.028 456.464 180.003 454.702 182.434L444.506 173.371C446.685 169.682 450.113 166.632 454.77 164.24C459.427 161.848 465.411 160.648 472.712 160.648C481.61 160.648 488.553 162.681 493.549 166.757C498.545 170.834 501.043 176.982 501.043 185.203V213.66H508.218V227.138H497.519V227.148ZM470.698 216.439C473.97 216.439 476.74 215.645 479.006 214.047C481.271 212.45 482.404 210.145 482.404 207.124V199.32H472.46C464.821 199.32 461.005 201.886 461.005 206.998V209.516C461.005 211.781 461.887 213.505 463.649 214.677C465.411 215.858 467.764 216.439 470.698 216.439Z" fill="#FFDB70"/>
<path d="M517.234 212.536H528.282V176.769H517.234V162.167H546.921V212.536H558.056V227.147H517.234V212.536Z" fill="#FFDB70"/>
<path d="M566.944 227.439V162.459H585.583V174.291H586.338C587.093 172.442 588.013 170.728 589.108 169.13C590.202 167.533 591.519 166.129 593.077 164.909C594.627 163.689 596.437 162.73 598.49 162.014C600.543 161.297 602.876 160.939 605.481 160.939C608.589 160.939 611.436 161.462 614.04 162.508C616.645 163.563 618.872 165.132 620.711 167.233C622.561 169.334 624.003 171.89 625.059 174.911C626.105 177.932 626.628 181.418 626.628 185.358V227.42H607.989V187.876C607.989 179.481 604.338 175.279 597.038 175.279C595.614 175.279 594.201 175.463 592.816 175.85C591.431 176.228 590.192 176.818 589.098 177.612C588.004 178.416 587.142 179.394 586.513 180.575C585.883 181.757 585.564 183.141 585.564 184.729V227.42H566.925L566.944 227.439Z" fill="#FFDB70"/>
<path d="M673.316 228.949C661.562 228.949 652.857 224.979 647.183 217.049C641.519 209.119 638.682 197.926 638.682 183.49C638.682 169.053 641.519 157.86 647.183 149.93C652.847 142 661.562 138.03 673.316 138.03C677.848 138.03 681.856 138.64 685.342 139.86C688.828 141.08 691.829 142.774 694.347 144.963C696.864 147.141 698.946 149.794 700.582 152.893C702.219 156.001 703.497 159.486 704.427 163.35L686.794 167.629C686.291 165.528 685.7 163.602 685.032 161.839C684.355 160.077 683.502 158.567 682.447 157.308C681.392 156.049 680.094 155.061 678.545 154.345C676.986 153.638 675.127 153.28 672.939 153.28C667.817 153.28 664.186 155.275 662.046 159.264C659.906 163.253 658.831 168.772 658.831 175.821V191.187C658.831 198.236 659.896 203.755 662.046 207.744C664.186 211.734 667.817 213.728 672.939 213.728C677.306 213.728 680.472 212.392 682.447 209.7C684.422 207.018 685.865 203.571 686.794 199.369L704.427 203.649C703.507 207.512 702.219 210.998 700.582 214.096C698.946 217.204 696.864 219.867 694.347 222.094C691.829 224.321 688.828 226.016 685.342 227.197C681.856 228.368 677.848 228.959 673.316 228.959V228.949Z" fill="#FFDB70"/>
<path d="M743.709 228.949C738.674 228.949 734.142 228.175 730.114 226.616C726.086 225.067 722.659 222.82 719.851 219.877C717.033 216.943 714.874 213.37 713.363 209.178C711.853 204.985 711.098 200.241 711.098 194.944C711.098 189.648 711.853 184.913 713.363 180.711C714.874 176.518 717.033 172.945 719.851 170.012C722.659 167.078 726.086 164.831 730.114 163.272C734.142 161.723 738.674 160.939 743.709 160.939C748.744 160.939 753.275 161.714 757.313 163.272C761.341 164.831 764.759 167.068 767.576 170.012C770.384 172.945 772.553 176.518 774.064 180.711C775.574 184.913 776.329 189.648 776.329 194.944C776.329 200.241 775.574 204.975 774.064 209.178C772.553 213.38 770.394 216.943 767.576 219.877C764.759 222.82 761.341 225.067 757.313 226.616C753.285 228.165 748.753 228.949 743.709 228.949ZM743.709 215.094C747.901 215.094 751.184 213.796 753.527 211.192C755.88 208.597 757.051 204.898 757.051 200.115V189.793C757.051 185.01 755.87 181.311 753.527 178.716C751.174 176.112 747.901 174.814 743.709 174.814C739.516 174.814 736.234 176.121 733.891 178.716C731.538 181.321 730.366 185.01 730.366 189.793V200.115C730.366 204.898 731.538 208.597 733.891 211.192C736.243 213.796 739.516 215.094 743.709 215.094Z" fill="#FFDB70"/>
<path d="M827.821 215.481H826.94C825.255 219.46 822.931 222.704 819.949 225.202C816.967 227.7 812.871 228.949 807.671 228.949C804.06 228.949 800.768 228.271 797.785 226.935C794.803 225.599 792.247 223.537 790.107 220.767C787.967 217.998 786.282 214.474 785.072 210.194C783.852 205.914 783.242 200.831 783.242 194.954C783.242 189.076 783.852 184.003 785.072 179.713C786.292 175.434 787.967 171.909 790.107 169.14C792.247 166.371 794.803 164.308 797.785 162.972C800.768 161.626 804.06 160.958 807.671 160.958C810.276 160.958 812.58 161.297 814.594 161.975C816.608 162.653 818.39 163.582 819.949 164.773C821.498 165.954 822.844 167.378 823.977 169.024C825.11 170.679 826.097 172.48 826.94 174.427H827.821V134.263H846.46V227.448H827.821V215.49V215.481ZM815.727 214.338C819 214.338 821.837 213.544 824.229 211.956C826.62 210.368 827.821 207.87 827.821 204.452V185.436C827.821 182.018 826.62 179.52 824.229 177.932C821.837 176.344 819 175.559 815.727 175.559C811.525 175.559 808.301 176.828 806.035 179.374C803.769 181.921 802.636 185.445 802.636 189.948V199.96C802.636 204.472 803.769 207.986 806.035 210.533C808.301 213.079 811.535 214.348 815.727 214.348V214.338Z" fill="#FFDB70"/>
<path d="M535.892 155.08C541.962 155.08 546.882 150.16 546.882 144.09C546.882 138.021 541.962 133.101 535.892 133.101C529.823 133.101 524.902 138.021 524.902 144.09C524.902 150.16 529.823 155.08 535.892 155.08Z" fill="#FFDB70"/>
<path d="M312.281 296.34C306.462 296.34 302.144 294.288 299.326 290.173C296.508 286.067 295.095 280.229 295.095 272.657C295.095 265.085 296.508 259.256 299.326 255.141C302.144 251.036 306.462 248.973 312.281 248.973C314.508 248.973 316.445 249.264 318.081 249.845C319.718 250.426 321.131 251.229 322.312 252.246C323.494 253.263 324.491 254.454 325.295 255.828C326.098 257.203 326.766 258.675 327.299 260.253L320.676 262.48C320.328 261.435 319.931 260.447 319.495 259.527C319.059 258.607 318.507 257.823 317.859 257.165C317.2 256.506 316.425 255.983 315.535 255.586C314.634 255.189 313.53 254.996 312.223 254.996C308.989 254.996 306.627 256.235 305.136 258.714C303.654 261.193 302.909 264.543 302.909 268.755V276.52C302.909 280.732 303.654 284.082 305.136 286.561C306.617 289.04 308.98 290.279 312.223 290.279C313.53 290.279 314.644 290.085 315.535 289.688C316.425 289.291 317.21 288.769 317.859 288.11C318.517 287.452 319.059 286.667 319.495 285.748C319.931 284.828 320.328 283.85 320.676 282.794L327.299 285.021C326.776 286.6 326.108 288.071 325.295 289.446C324.481 290.821 323.494 292.012 322.312 293.029C321.131 294.046 319.718 294.849 318.081 295.43C316.445 296.011 314.508 296.302 312.281 296.302V296.34Z" fill="#FFDB70"/>
<path d="M346.431 296.34C343.943 296.34 341.697 295.924 339.712 295.091C337.717 294.259 336.042 293.077 334.657 291.548C333.282 290.018 332.217 288.159 331.472 285.97C330.726 283.782 330.358 281.332 330.358 278.621C330.358 275.91 330.726 273.46 331.472 271.272C332.217 269.084 333.273 267.225 334.657 265.695C336.032 264.165 337.717 262.984 339.712 262.151C341.697 261.318 343.943 260.902 346.431 260.902C348.92 260.902 351.166 261.318 353.151 262.151C355.136 262.984 356.821 264.165 358.206 265.695C359.58 267.225 360.645 269.084 361.391 271.272C362.137 273.46 362.505 275.91 362.505 278.621C362.505 281.332 362.137 283.782 361.391 285.97C360.645 288.159 359.59 290.018 358.206 291.548C356.831 293.077 355.146 294.259 353.151 295.091C351.166 295.924 348.92 296.34 346.431 296.34ZM346.431 290.695C349.055 290.695 351.137 289.901 352.696 288.304C354.245 286.706 355.02 284.334 355.02 281.187V276.075C355.02 272.928 354.245 270.556 352.696 268.958C351.147 267.36 349.055 266.566 346.431 266.566C343.807 266.566 341.716 267.36 340.167 268.958C338.618 270.556 337.843 272.928 337.843 276.075V281.187C337.843 284.334 338.618 286.706 340.167 288.304C341.716 289.901 343.807 290.695 346.431 290.695Z" fill="#FFDB70"/>
<path d="M368.537 295.556V261.715H375.683V267.486H376.012C376.361 266.615 376.806 265.772 377.358 264.959C377.9 264.155 378.568 263.449 379.362 262.858C380.156 262.267 381.066 261.802 382.112 261.444C383.158 261.096 384.387 260.921 385.782 260.921C389.19 260.921 391.95 262.035 394.041 264.262C396.142 266.489 397.188 269.665 397.188 273.77V295.546H390.042V274.826C390.042 269.452 387.699 266.76 383.022 266.76C382.102 266.76 381.212 266.876 380.33 267.118C379.459 267.36 378.665 267.719 377.968 268.203C377.271 268.687 376.709 269.297 376.293 270.042C375.876 270.788 375.673 271.64 375.673 272.599V295.556H368.527H368.537Z" fill="#FFDB70"/>
<path d="M419.042 296.34C415.372 296.34 412.206 295.75 409.562 294.568C406.919 293.387 404.789 291.819 403.172 289.843L407.568 285.912C409.049 287.529 410.724 288.768 412.583 289.621C414.442 290.473 416.64 290.899 419.177 290.899C421.491 290.899 423.36 290.502 424.783 289.717C426.207 288.933 426.914 287.703 426.914 286.048C426.914 285.351 426.778 284.76 426.517 284.276C426.255 283.792 425.887 283.404 425.403 283.094C424.919 282.785 424.367 282.552 423.728 282.378C423.089 282.204 422.421 282.068 421.724 281.981L416.35 281.129C415.043 280.955 413.707 280.674 412.351 280.277C410.995 279.88 409.785 279.328 408.71 278.602C407.636 277.885 406.764 276.956 406.086 275.813C405.409 274.68 405.07 273.238 405.07 271.485C405.07 268.028 406.396 265.404 409.04 263.613C411.683 261.822 415.169 260.921 419.497 260.921C422.644 260.921 425.364 261.396 427.659 262.335C429.954 263.274 431.861 264.581 433.401 266.237L429.402 270.43C428.531 269.423 427.282 268.493 425.665 267.641C424.048 266.789 421.908 266.363 419.235 266.363C414.471 266.363 412.09 267.873 412.09 270.885C412.09 272.327 412.603 273.325 413.629 273.867C414.655 274.419 415.866 274.777 417.27 274.951L422.644 275.804C423.999 276.026 425.345 276.307 426.681 276.656C428.017 277.004 429.218 277.537 430.293 278.263C431.358 278.989 432.239 279.919 432.917 281.051C433.595 282.184 433.933 283.627 433.933 285.38C433.933 288.788 432.607 291.47 429.964 293.416C427.32 295.362 423.68 296.331 419.042 296.331V296.34Z" fill="#FFDB70"/>
<path d="M462.265 289.785H461.935C461.587 290.657 461.142 291.499 460.59 292.312C460.047 293.126 459.379 293.823 458.585 294.414C457.801 295.004 456.881 295.479 455.836 295.827C454.79 296.176 453.56 296.35 452.166 296.35C448.757 296.35 445.998 295.237 443.907 293C441.805 290.773 440.76 287.597 440.76 283.492V261.716H447.905V282.436C447.905 287.81 450.249 290.502 454.925 290.502C455.845 290.502 456.736 290.386 457.617 290.144C458.489 289.902 459.282 289.543 459.98 289.059C460.677 288.575 461.238 287.975 461.655 287.258C462.071 286.532 462.274 285.67 462.274 284.663V261.706H469.42V295.546H462.274V289.776L462.265 289.785Z" fill="#FFDB70"/>
<path d="M476.77 289.717H481.834V252.855H476.77V247.017H488.979V289.717H494.043V295.556H476.77V289.717Z" fill="#FFDB70"/>
<path d="M514.444 295.556C511.471 295.556 509.283 294.762 507.889 293.164C506.494 291.576 505.788 289.514 505.788 286.977V264.465H498.438V258.626H502.776C504.045 258.626 504.945 258.375 505.468 257.871C505.991 257.368 506.252 256.457 506.252 255.15V246.688H512.943V258.626H522.752V264.465H512.943V289.707H522.752V295.546H514.444V295.556Z" fill="#FFDB70"/>
<path d="M532.551 289.717H539.483V267.554H532.551V261.715H546.629V289.717H552.836V295.556H532.551V289.717Z" fill="#FFDB70"/>
<path d="M560.019 295.556V261.715H567.165V267.486H567.494C567.843 266.615 568.288 265.772 568.84 264.959C569.383 264.155 570.051 263.449 570.845 262.858C571.629 262.267 572.549 261.802 573.594 261.444C574.64 261.096 575.87 260.921 577.264 260.921C580.672 260.921 583.432 262.035 585.523 264.262C587.625 266.489 588.67 269.665 588.67 273.77V295.546H581.524V274.826C581.524 269.452 579.181 266.76 574.505 266.76C573.585 266.76 572.694 266.876 571.813 267.118C570.941 267.36 570.147 267.719 569.45 268.203C568.753 268.687 568.192 269.297 567.775 270.042C567.359 270.788 567.156 271.64 567.156 272.599V295.556H560.01H560.019Z" fill="#FFDB70"/>
<path d="M626.627 299.226C626.627 302.721 625.165 305.306 622.231 306.962C619.297 308.628 614.843 309.451 608.849 309.451C605.916 309.451 603.466 309.267 601.471 308.889C599.477 308.521 597.86 307.979 596.62 307.282C595.371 306.585 594.48 305.733 593.929 304.726C593.386 303.719 593.105 302.586 593.105 301.317C593.105 299.478 593.619 298.045 594.645 297.018C595.671 295.992 597.124 295.237 599.002 294.752V294.094C597.869 293.658 596.959 293.048 596.281 292.254C595.604 291.46 595.265 290.444 595.265 289.175C595.265 287.51 595.836 286.261 596.969 285.409C598.102 284.557 599.573 283.908 601.365 283.472V283.143C599.312 282.184 597.714 280.829 596.582 279.076C595.449 277.324 594.877 275.232 594.877 272.783C594.877 270.991 595.207 269.365 595.865 267.893C596.524 266.431 597.453 265.182 598.654 264.155C599.854 263.129 601.297 262.325 602.982 261.764C604.667 261.193 606.555 260.912 608.656 260.912C611.018 260.912 613.139 261.28 615.017 262.025V260.912C615.017 259.605 615.385 258.511 616.131 257.629C616.876 256.758 618.009 256.322 619.539 256.322H625.707V261.958H617.835V263.536C619.316 264.543 620.459 265.821 621.243 267.37C622.027 268.919 622.424 270.73 622.424 272.783C622.424 274.574 622.095 276.201 621.437 277.672C620.778 279.134 619.849 280.383 618.648 281.41C617.448 282.436 616.005 283.22 614.32 283.772C612.635 284.315 610.747 284.595 608.646 284.595C607.165 284.595 605.761 284.46 604.454 284.198C603.669 284.421 602.875 284.789 602.091 285.312C601.307 285.835 600.91 286.561 600.91 287.481C600.91 288.527 601.413 289.185 602.42 289.446C603.427 289.708 604.666 289.843 606.158 289.843H613.768C618.319 289.843 621.592 290.705 623.606 292.438C625.62 294.162 626.627 296.428 626.627 299.226ZM619.936 299.652C619.936 298.509 619.481 297.589 618.561 296.912C617.641 296.224 615.976 295.885 613.575 295.885H601.839C600.174 296.679 599.351 297.957 599.351 299.72C599.351 300.998 599.883 302.102 600.958 303.021C602.023 303.941 603.815 304.406 606.303 304.406H611.619C614.33 304.406 616.392 303.999 617.815 303.186C619.239 302.373 619.946 301.191 619.946 299.652H619.936ZM608.656 279.686C610.97 279.686 612.674 279.144 613.768 278.05C614.862 276.956 615.405 275.494 615.405 273.654V271.882C615.405 270.043 614.862 268.58 613.768 267.486C612.674 266.392 610.97 265.85 608.656 265.85C606.342 265.85 604.637 266.392 603.543 267.486C602.449 268.58 601.907 270.043 601.907 271.882V273.654C601.907 275.494 602.449 276.956 603.543 278.05C604.637 279.144 606.342 279.686 608.656 279.686Z" fill="#FFDB70"/>
<path d="M541.817 256.119C544.528 256.119 546.726 253.821 546.726 250.987C546.726 248.153 544.528 245.855 541.817 245.855C539.106 245.855 536.908 248.153 536.908 250.987C536.908 253.821 539.106 256.119 541.817 256.119Z" fill="#FFDB70"/>
<path d="M156.053 248.73V285.475C156.053 292.272 148.597 296.436 142.817 292.853L63.4875 253.242C62.2869 251.819 44.9066 230.071 93.7843 212.323L151.957 241.371C154.514 242.94 156.053 245.728 156.053 248.73Z" fill="#FFDB70"/>
<path d="M156.179 141.776V178.541C156.179 181.533 154.63 184.322 152.064 185.9L93.775 212.324C44.8972 230.072 62.2776 251.819 63.4782 253.242C62.1711 252.594 60.8736 251.935 59.5664 251.286C56.5745 249.786 53.4374 248.837 51.6073 245.816C50.6681 244.267 50 242.33 50 240.5V186.423C50 183.431 51.5492 180.642 54.0957 179.064L142.924 134.408C148.704 130.825 156.179 134.989 156.179 141.767V141.776Z" fill="#FFDB70"/>
<path d="M166.579 178.202V141.457C166.579 134.659 174.035 130.496 179.815 134.078L259.145 173.69C260.345 175.113 277.726 196.86 228.848 214.609L170.675 185.561C168.119 183.992 166.579 181.204 166.579 178.202Z" fill="#FFDB70"/>
<path d="M166.452 285.156V248.391C166.452 245.399 168.001 242.611 170.567 241.032L228.856 214.609C277.734 196.86 260.354 175.113 259.153 173.69C260.46 174.339 261.758 174.997 263.065 175.646C266.057 177.147 269.194 178.096 271.024 181.117C271.963 182.666 272.631 184.602 272.631 186.432V240.51C272.631 243.501 271.082 246.29 268.536 247.868L179.708 292.524C173.927 296.107 166.452 291.943 166.452 285.166V285.156Z" fill="#FFDB70"/>
</svg>
