<svg width="970" height="442" viewBox="0 0 970 442" fill="none" xmlns="http://www.w3.org/2000/svg">
<path fill-rule="evenodd" clip-rule="evenodd" d="M383.849 228.308C405.525 308.276 369.673 342.936 302.699 329.476C297.121 343.784 291.445 358.03 282.467 370.375C389.357 397.205 432.566 318.766 383.849 228.308ZM172.841 184.413H218.406C230.864 187.488 238.39 194.01 241.719 201.592C243.499 205.658 244.119 210.076 243.676 214.451C243.224 218.878 241.675 223.279 239.134 227.229C233.679 235.695 223.594 242.005 209.879 242.244C201.866 240.856 197.828 249.384 204.619 255.924L250.272 298.193H172.85C170.53 298.193 168.626 296.293 168.626 293.977V188.619C168.626 186.304 170.53 184.404 172.85 184.404L172.841 184.413ZM249.192 184.413H280.926C283.246 184.413 285.15 186.313 285.15 188.628V293.986C285.15 296.301 283.246 298.201 280.926 298.201H273.515L227.101 255.235C238.266 251.496 246.881 244.382 252.433 235.766C256.32 229.739 258.693 222.943 259.392 216.006C260.101 209.016 259.091 201.902 256.196 195.3C254.505 191.438 252.176 187.771 249.192 184.422V184.413ZM138.752 114.448C197.306 55.7335 245.305 69.3959 267.113 134.005C282.316 131.672 297.51 129.463 312.713 131.045C282.547 25.2361 192.878 27.1185 138.752 114.448ZM160.746 381.554C80.5256 360.31 68.3685 311.987 113.535 260.829C103.91 248.854 94.3915 236.827 88.1669 222.89C11.4439 301.869 57.9027 378.435 160.746 381.554Z" fill="#FFDB70"/>
<path d="M383.849 228.308C405.525 308.276 369.673 342.936 302.699 329.476C297.121 343.784 291.445 358.03 282.467 370.375C389.357 397.205 432.566 318.766 383.849 228.308ZM172.841 184.413H218.406C230.864 187.488 238.39 194.01 241.719 201.592C243.499 205.658 244.119 210.076 243.676 214.451C243.224 218.878 241.675 223.279 239.134 227.229C233.679 235.695 223.594 242.005 209.879 242.244C201.866 240.856 197.828 249.384 204.619 255.924L250.272 298.193H172.85C170.53 298.193 168.626 296.293 168.626 293.977V188.619C168.626 186.304 170.53 184.404 172.85 184.404L172.841 184.413ZM249.192 184.413H280.926C283.246 184.413 285.15 186.313 285.15 188.628V293.986C285.15 296.301 283.246 298.201 280.926 298.201H273.515L227.101 255.235C238.266 251.496 246.881 244.382 252.433 235.766C256.32 229.739 258.693 222.943 259.392 216.006C260.101 209.016 259.091 201.902 256.196 195.3C254.505 191.438 252.176 187.771 249.192 184.422V184.413ZM138.752 114.448C197.306 55.7335 245.305 69.3959 267.113 134.005C282.316 131.672 297.51 129.463 312.713 131.045C282.547 25.2361 192.878 27.1185 138.752 114.448ZM160.746 381.554C80.5256 360.31 68.3685 311.987 113.535 260.829C103.91 248.854 94.3915 236.827 88.1669 222.89C11.4439 301.869 57.9027 378.435 160.746 381.554Z" stroke="#FFDB70" stroke-width="2.33615" stroke-miterlimit="2.61"/>
<path fill-rule="evenodd" clip-rule="evenodd" d="M70.3516 189.502C155.362 139.183 255.912 121.499 356.241 135.153C356.808 234.227 325.605 319.719 262.642 391.619C178.118 348.59 114.021 282.355 70.3428 189.502H70.3516ZM88.5031 222.757C152.795 166.941 235.317 136.39 322.524 132.466C338.382 216.403 325.189 293.729 282.954 364.436C204.593 341.017 139.956 294.745 88.5031 222.757Z" fill="#FFDB70"/>
<path fill-rule="evenodd" clip-rule="evenodd" d="M464.115 295.854V195.788H496.921V295.854H464.115Z" fill="#FFDB70"/>
<path fill-rule="evenodd" clip-rule="evenodd" d="M548.294 238.779H562.936C568.064 238.779 571.599 238.082 573.555 236.715C575.511 235.321 576.489 232.908 576.489 229.478C576.489 226.047 575.511 223.496 573.555 222.101C571.599 220.735 567.799 220.037 562.126 220.037H548.308V238.779H548.294ZM516.509 295.84V195.788H564.487C579.521 195.788 590.237 198.033 596.664 202.509C603.077 206.985 606.276 214.362 606.276 224.583C606.276 230.705 604.949 235.753 602.322 239.797C599.696 243.827 595.63 247.034 590.153 249.377C595.728 250.562 599.794 252.877 602.322 256.363C604.879 259.821 606.221 264.897 606.416 271.605L606.947 285.535C606.947 285.633 606.975 285.744 607.017 285.856C607.157 289.844 608.107 291.936 609.881 292.117V295.854H577.425C576.838 293.442 576.405 291.35 576.098 289.565C575.79 287.78 575.651 286.386 575.651 285.396V275.398C575.651 270.252 574.631 266.612 572.591 264.493C570.551 262.387 567.016 261.341 561.972 261.341H548.294V295.84H516.509Z" fill="#FFDB70"/>
<path fill-rule="evenodd" clip-rule="evenodd" d="M687.898 257.064H718.398C717.49 270.242 712.852 280.463 704.441 287.742C696.058 294.993 684.699 298.647 670.364 298.647C654.283 298.647 641.652 293.934 632.445 284.549C623.224 275.15 618.627 262.293 618.627 245.922C618.627 229.551 623.182 216.778 632.305 207.337C641.443 197.925 653.863 193.211 669.623 193.211C684.14 193.211 695.555 196.712 703.896 203.712C712.209 210.698 716.889 220.71 717.881 233.693H687.046C686.585 228.575 684.936 224.712 682.072 222.105C679.208 219.511 675.198 218.214 670.015 218.214C663.699 218.214 658.977 220.515 655.819 225.103C652.662 229.718 651.083 236.649 651.083 245.922C651.083 255.195 652.76 261.917 656.127 266.588C659.466 271.246 664.398 273.588 670.909 273.588C675.883 273.588 679.851 272.152 682.785 269.293C685.719 266.435 687.437 262.377 687.926 257.078L687.898 257.064Z" fill="#FFDB70"/>
<path fill-rule="evenodd" clip-rule="evenodd" d="M753.024 295.854V222.157H724.173V195.788H813.479V222.157H785.229V295.854H753.024Z" fill="#FFDB70"/>
<path fill-rule="evenodd" clip-rule="evenodd" d="M889.499 257.064H919.999C919.091 270.242 914.452 280.463 906.041 287.742C897.658 294.993 886.299 298.647 871.964 298.647C855.883 298.647 843.253 293.934 834.045 284.549C824.824 275.15 820.228 262.293 820.228 245.922C820.228 229.551 824.782 216.778 833.906 207.337C843.043 197.925 855.464 193.211 871.224 193.211C885.74 193.211 897.155 196.712 905.496 203.712C913.809 210.698 918.49 220.71 919.482 233.693H888.647C888.185 228.575 886.537 224.712 883.673 222.105C880.808 219.511 876.799 218.214 871.615 218.214C865.3 218.214 860.578 220.515 857.42 225.103C854.262 229.718 852.684 236.649 852.684 245.922C852.684 255.195 854.36 261.917 857.727 266.588C861.067 271.246 865.999 273.588 872.509 273.588C877.483 273.588 881.451 272.152 884.385 269.293C887.319 266.435 889.038 262.377 889.527 257.078L889.499 257.064Z" fill="#FFDB70"/>
</svg>
