<svg width="970" height="442" viewBox="0 0 970 442" fill="none" xmlns="http://www.w3.org/2000/svg">
<path d="M435.604 268.12V296.557C422.632 296.557 407.827 292.904 399.441 284.425C391.973 276.86 388.304 267.207 388.304 255.727V201.983H373.105V173.285H388.304V141.717H418.964V173.546H435.604V202.244H418.964V256.901C418.964 262.641 421.584 266.424 426.825 268.12C428.267 268.641 433.901 268.12 435.473 268.12H435.604Z" fill="#FFDB70"/>
<path d="M651.663 247.77V297.731L621.92 297.209V283.904C612.356 294.078 598.598 299.688 583.792 299.688C565.318 299.688 550.512 292.383 539.506 277.773C530.466 265.772 526.011 251.814 526.011 236.03C526.011 218.811 531.252 204.071 541.603 191.678C550.905 180.982 564.139 174.72 577.896 173.024V203.157C572.393 205.766 566.235 211.115 562.96 217.376C560.077 223.116 558.505 229.377 558.505 236.16C558.505 247.77 562.173 256.901 569.642 263.554C575.145 268.381 581.696 270.859 589.426 270.859C601.481 270.859 610.39 267.598 616.024 256.771C617.465 253.901 620.217 250.249 621.003 247.118L651.794 247.64L651.663 247.77Z" fill="#FFDB70"/>
<path d="M124.291 141.717H156.26V296.426H120.36L81.9698 206.94V296.426H50V141.717H86.0316L124.291 231.203V141.717Z" fill="#FFDB70"/>
<path d="M205.393 232.769V296.296H173.686V141.717H267.892V173.155H205.393V203.157H265.14V232.769H205.393Z" fill="#FFDB70"/>
<path d="M279.163 173.155V141.717H373.238V173.155H342.055V296.687H310.085V173.155H279.163Z" fill="#FFDB70"/>
<path d="M460.105 173.676H491.027V185.808C499.675 176.416 510.55 171.72 523.521 171.72L519.197 200.157C508.06 200.157 499.937 205.505 494.958 216.332C492.337 221.942 491.027 228.072 491.027 234.725V296.426H460.105V173.676Z" fill="#FFDB70"/>
<path d="M787.402 263.685C780.458 279.208 769.059 289.513 753.336 294.861C746.392 297.209 738.923 298.383 731.062 298.383C709.181 298.383 692.41 290.426 680.88 274.642C672.756 263.293 668.694 250.249 668.694 235.378C668.694 217.637 674.066 202.766 684.941 190.765C696.602 178.112 711.932 171.851 730.931 171.851C752.288 171.851 768.928 179.677 780.72 195.461C783.209 198.853 785.306 202.505 787.14 206.419L757.004 216.594C751.108 206.027 742.461 200.679 730.931 200.549C719.139 200.549 710.491 205.767 705.119 216.333C702.105 222.203 700.664 228.464 700.664 235.247C700.664 246.988 704.333 256.119 711.801 262.772C717.173 267.468 723.593 269.816 731.062 269.816C742.985 269.816 751.633 264.337 757.136 253.64L787.533 263.815L787.402 263.685Z" fill="#FFDB70"/>
<path d="M916.201 263.685C909.257 279.208 897.858 289.513 882.135 294.861C875.19 297.209 867.722 298.383 859.86 298.383C837.979 298.383 821.209 290.426 809.678 274.642C801.555 263.293 797.493 250.249 797.493 235.378C797.493 217.637 802.865 202.766 813.74 190.765C825.401 178.112 840.731 171.851 859.73 171.851C880.824 171.851 897.071 179.808 908.077 195.592C916.07 206.941 920.001 219.985 920.001 234.987C920.001 239.813 919.607 243.857 919.083 247.118H831.166C834.18 258.076 840.469 265.12 850.034 268.12C853.178 269.163 856.454 269.685 859.86 269.685C871.784 269.685 880.431 264.206 885.934 253.51L916.332 263.685H916.201ZM832.87 218.42H886.589C881.61 207.202 873.487 201.201 862.088 200.418H859.73C847.544 200.418 838.766 206.027 833.525 217.246C833.263 217.768 833.001 218.159 833.001 218.42H832.87Z" fill="#FFDB70"/>
<path d="M619.579 173.312H583.94V203.445H619.579V238.926H649.845V203.445V173.312H619.579Z" fill="#FFDB70"/>
</svg>
