<svg width="46" height="45" viewBox="0 0 46 45" fill="none" xmlns="http://www.w3.org/2000/svg">
<g clip-path="url(#clip0_4451_869)">
<path d="M33.1514 41.5371C32.9316 41.8711 32.5713 42.0732 32.1758 42.0732H13.8242C13.4287 42.0732 13.0596 41.8711 12.8486 41.5371C12.6377 41.2119 12.6113 40.8076 12.7607 40.4561C13.209 39.4541 14.2109 38.8125 15.3096 38.8125H17.5068V36.8789H28.502V38.8125H30.6992C31.7979 38.8125 32.791 39.4629 33.248 40.4561C33.3975 40.8076 33.3623 41.2207 33.1514 41.5371ZM15.1514 13.834C14.5449 16.0928 12.4707 17.7627 10.0273 17.7627C7.10059 17.7539 4.71875 15.3809 4.71875 12.4541C4.71875 10.002 6.38867 7.93652 8.64746 7.33008C8.58594 7.56738 8.62109 7.40918 8.6123 12.4541C8.6123 13.2275 9.24512 13.8604 10.0186 13.8604C15.0371 13.8516 14.9053 13.8779 15.1514 13.834Z" fill="url(#paint0_linear_4451_869)" stroke="url(#paint1_linear_4451_869)" stroke-width="0.238095"/>
<path opacity="0.15" d="M15.3271 12.4541C15.3271 12.709 15.1162 12.9199 14.8613 12.9199H10.0273C9.77246 12.9199 9.56152 12.709 9.56152 12.4541V7.62012C9.56152 7.35644 9.77246 7.1543 10.0273 7.1543C12.9541 7.1543 15.3271 9.52734 15.3271 12.4541ZM14.8613 20.6016H5.18457C4.92969 20.6016 4.71875 20.3906 4.71875 20.1357C4.71875 19.8809 4.92969 19.6699 5.18457 19.6699H14.8613C15.1162 19.6699 15.3271 19.8809 15.3271 20.1357C15.3271 20.3906 15.1162 20.6016 14.8613 20.6016ZM14.8613 23.3613H5.18457C4.92969 23.3613 4.71875 23.1504 4.71875 22.8955C4.71875 22.6406 4.92969 22.4297 5.18457 22.4297H14.8613C15.1162 22.4297 15.3271 22.6406 15.3271 22.8955C15.3271 23.1592 15.1162 23.3613 14.8613 23.3613ZM14.8613 26.1299H5.18457C4.92969 26.1299 4.71875 25.9189 4.71875 25.6641C4.71875 25.4092 4.92969 25.1982 5.18457 25.1982H14.8613C15.1162 25.1982 15.3271 25.4092 15.3271 25.6641C15.3271 25.9189 15.1162 26.1299 14.8613 26.1299ZM23.9141 18.3252V25.1895C23.9141 25.708 23.4922 26.1299 22.9736 26.1299H21.0225C20.5039 26.1299 20.082 25.708 20.082 25.1895V18.3252C20.082 17.8066 20.4951 17.3848 21.0225 17.3848H22.9736C23.4922 17.3848 23.9141 17.8066 23.9141 18.3252ZM29.7061 13.4912V25.1895C29.7061 25.708 29.2842 26.1299 28.7656 26.1299H26.8145C26.2959 26.1299 25.874 25.708 25.874 25.1895V13.4912C25.874 12.9727 26.2871 12.5508 26.8145 12.5508H28.7656C29.2842 12.5508 29.7061 12.9727 29.7061 13.4912ZM35.4893 18.3252V25.1895C35.4893 25.708 35.0674 26.1299 34.5488 26.1299H32.5889C32.0703 26.1299 31.6484 25.708 31.6484 25.1895V18.3252C31.6484 17.8066 32.0703 17.3848 32.5889 17.3848H34.5488C35.0674 17.3848 35.4893 17.8066 35.4893 18.3252ZM41.2812 15.46V25.1895C41.2812 25.708 40.8594 26.1299 40.3408 26.1299H38.3809C37.8623 26.1299 37.4404 25.708 37.4404 25.1895V15.46C37.4404 14.9414 37.8623 14.5195 38.3809 14.5195H40.3408C40.8594 14.5195 41.2812 14.9414 41.2812 15.46Z" fill="url(#paint2_linear_4451_869)"/>
<path d="M33.5731 14.9677C33.4413 14.9677 33.3095 14.9062 33.2128 14.8008L27.746 8.29685L22.3231 13.5351C22.1386 13.7109 21.8397 13.7109 21.664 13.5263C21.4882 13.3418 21.4882 13.0429 21.6727 12.8672L27.4647 7.27732C27.5614 7.18943 27.6845 7.13669 27.8163 7.14548C27.9481 7.15427 28.0712 7.21579 28.1503 7.31247L33.661 13.8691L39.1015 10.0283C39.3124 9.87888 39.6024 9.93162 39.7519 10.1426C39.9013 10.3535 39.8485 10.6435 39.6376 10.7929L33.8456 14.8886C33.7665 14.9414 33.6698 14.9677 33.5731 14.9677Z" fill="url(#paint3_linear_4451_869)" stroke="url(#paint4_linear_4451_869)" stroke-width="0.238095"/>
<path d="M23 31.5703C22.6484 31.5703 22.3584 31.8604 22.3584 32.2119C22.3584 32.5635 22.6484 32.8535 23 32.8535C23.3516 32.8535 23.6416 32.5635 23.6416 32.2119C23.6416 31.8604 23.3516 31.5703 23 31.5703Z" fill="url(#paint5_linear_4451_869)" stroke="url(#paint6_linear_4451_869)" stroke-width="0.238095"/>
<path d="M43.1533 2.92676H2.84668C1.5459 2.92676 0.5 3.97266 0.5 5.26465C0.5 6.01172 0.5 35.3936 0.5 33.6006C0.5 34.8926 1.5459 35.9473 2.84668 35.9473H43.1621C44.4541 35.9473 45.5088 34.8926 45.5088 33.6006C45.5088 30.0234 45.5088 8.82422 45.5088 5.26465C45.5 3.97266 44.4453 2.92676 43.1533 2.92676ZM23 33.7939C22.1299 33.7939 21.418 33.082 21.418 32.2119C21.418 31.3418 22.1299 30.6299 23 30.6299C23.8701 30.6299 24.582 31.3418 24.582 32.2119C24.582 33.082 23.8701 33.7939 23 33.7939ZM43.6279 28.4678H2.37207V5.26465C2.37207 5.00977 2.58301 4.79883 2.83789 4.79883H43.1533C43.4082 4.79883 43.6191 5.00977 43.6191 5.26465V28.4678H43.6279Z" fill="url(#paint7_linear_4451_869)" stroke="url(#paint8_linear_4451_869)" stroke-width="0.238095"/>
</g>
<defs>
<linearGradient id="paint0_linear_4451_869" x1="6.34058" y1="7.33008" x2="36.3485" y2="34.6268" gradientUnits="userSpaceOnUse">
<stop offset="0.259336" stop-color="#FFDB6E"/>
<stop offset="1" stop-color="#FFBC5E"/>
</linearGradient>
<linearGradient id="paint1_linear_4451_869" x1="6.34058" y1="7.33008" x2="36.3485" y2="34.6268" gradientUnits="userSpaceOnUse">
<stop offset="0.259336" stop-color="#FFDB6E"/>
<stop offset="1" stop-color="#FFBC5E"/>
</linearGradient>
<linearGradient id="paint2_linear_4451_869" x1="6.79062" y1="7.1543" x2="19.4657" y2="34.1228" gradientUnits="userSpaceOnUse">
<stop offset="0.259336" stop-color="#FFDB6E"/>
<stop offset="1" stop-color="#FFBC5E"/>
</linearGradient>
<linearGradient id="paint3_linear_4451_869" x1="22.5704" y1="7.14453" x2="27.14" y2="18.9504" gradientUnits="userSpaceOnUse">
<stop offset="0.259336" stop-color="#FFDB6E"/>
<stop offset="1" stop-color="#FFBC5E"/>
</linearGradient>
<linearGradient id="paint4_linear_4451_869" x1="22.5704" y1="7.14453" x2="27.14" y2="18.9504" gradientUnits="userSpaceOnUse">
<stop offset="0.259336" stop-color="#FFDB6E"/>
<stop offset="1" stop-color="#FFBC5E"/>
</linearGradient>
<linearGradient id="paint5_linear_4451_869" x1="22.4311" y1="31.5703" x2="23.5389" y2="32.7936" gradientUnits="userSpaceOnUse">
<stop offset="0.259336" stop-color="#FFDB6E"/>
<stop offset="1" stop-color="#FFBC5E"/>
</linearGradient>
<linearGradient id="paint6_linear_4451_869" x1="22.4311" y1="31.5703" x2="23.5389" y2="32.7936" gradientUnits="userSpaceOnUse">
<stop offset="0.259336" stop-color="#FFDB6E"/>
<stop offset="1" stop-color="#FFBC5E"/>
</linearGradient>
<linearGradient id="paint7_linear_4451_869" x1="3.05049" y1="2.92676" x2="29.4598" y2="42.6767" gradientUnits="userSpaceOnUse">
<stop offset="0.259336" stop-color="#FFDB6E"/>
<stop offset="1" stop-color="#FFBC5E"/>
</linearGradient>
<linearGradient id="paint8_linear_4451_869" x1="3.05049" y1="2.92676" x2="29.4598" y2="42.6767" gradientUnits="userSpaceOnUse">
<stop offset="0.259336" stop-color="#FFDB6E"/>
<stop offset="1" stop-color="#FFBC5E"/>
</linearGradient>
<clipPath id="clip0_4451_869">
<rect width="45" height="45" fill="white" transform="translate(0.5)"/>
</clipPath>
</defs>
</svg>
