<svg width="40" height="45" viewBox="0 0 40 45" fill="none" xmlns="http://www.w3.org/2000/svg">
<g clip-path="url(#clip0_4451_853)">
<path opacity="0.15" d="M37.5 10H3.75C2.36929 10 1.25 11.1193 1.25 12.5V33.75C1.25 35.1307 2.36929 36.25 3.75 36.25H37.5C38.8807 36.25 40 35.1307 40 33.75V12.5C40 11.1193 38.8807 10 37.5 10Z" fill="url(#paint0_linear_4451_853)" stroke="url(#paint1_linear_4451_853)" stroke-width="0.238095"/>
<path opacity="0.15" d="M39.375 31.875V34.375C39.373 35.0374 39.109 35.6722 38.6406 36.1406C38.1722 36.609 37.5374 36.873 36.875 36.875H3.125C2.46257 36.873 1.82783 36.609 1.35942 36.1406C0.891006 35.6722 0.626978 35.0374 0.625 34.375V31.875H39.375Z" fill="url(#paint2_linear_4451_853)" stroke="url(#paint3_linear_4451_853)" stroke-width="0.238095"/>
<path opacity="0.15" d="M28.125 44.375H11.875L13.875 42.875C14.8065 42.1764 15.5625 41.2705 16.0832 40.2291C16.6039 39.1877 16.875 38.0393 16.875 36.875H23.125C23.125 38.0393 23.3961 39.1877 23.9168 40.2291C24.4375 41.2705 25.1935 42.1764 26.125 42.875L28.125 44.375Z" fill="url(#paint4_linear_4451_853)" stroke="url(#paint5_linear_4451_853)" stroke-width="0.238095"/>
<path d="M39.3873 8.12494C39.3893 8.45322 39.325 8.77853 39.1982 9.08137C39.0715 9.38422 38.885 9.65838 38.6498 9.88744L37.7748 10.7749L34.2373 7.23744L35.1248 6.36244C35.3546 6.12795 35.6288 5.94167 35.9314 5.8145C36.2341 5.68733 36.559 5.62183 36.8873 5.62183C37.2156 5.62183 37.5406 5.68733 37.8432 5.8145C38.1458 5.94167 38.4201 6.12795 38.6498 6.36244C38.885 6.59149 39.0715 6.86565 39.1982 7.1685C39.325 7.47135 39.3893 7.79665 39.3873 8.12494Z" fill="black"/>
<path d="M34.2383 7.23709L20.9756 20.4998L24.5129 24.0371L37.7756 10.7744L34.2383 7.23709Z" fill="url(#paint6_linear_4451_853)" stroke="url(#paint7_linear_4451_853)" stroke-width="0.238095"/>
<path d="M24.5102 24.0063L20.0977 24.8938L20.9727 20.4688L24.5102 24.0063Z" fill="black"/>
<path d="M17.5287 25.7901C17.0881 26.1706 16.5757 26.459 16.0218 26.6385C15.468 26.818 14.8838 26.8848 14.3038 26.8351C13.8757 26.7936 13.4609 26.6634 13.0858 26.453C12.7107 26.2425 12.3835 25.9563 12.125 25.6126C11.5856 24.8679 11.2809 23.9791 11.25 23.0601C11.2346 22.5778 11.2463 22.0949 11.285 21.6139C11.4002 20.6656 11.34 19.7042 11.1075 18.7776C10.9081 18.1443 10.5807 17.5587 10.1457 17.0571C9.71076 16.5555 9.17742 16.1485 8.57875 15.8614C7.90705 15.5296 7.17595 15.335 6.42818 15.2891C5.68042 15.2432 4.931 15.3468 4.22375 15.5939C4.14385 15.6197 4.06998 15.6614 4.00655 15.7165C3.94312 15.7715 3.89144 15.8388 3.85458 15.9143C3.81773 15.9897 3.79647 16.0718 3.79206 16.1557C3.78766 16.2396 3.8002 16.3235 3.82894 16.4024C3.85768 16.4813 3.90203 16.5536 3.95935 16.615C4.01666 16.6764 4.08575 16.7256 4.16251 16.7597C4.23926 16.7938 4.3221 16.8121 4.40607 16.8134C4.49005 16.8148 4.57343 16.7992 4.65125 16.7676C5.19928 16.5757 5.78012 16.4952 6.35968 16.5309C6.93925 16.5665 7.50585 16.7175 8.02625 16.9751C8.47261 17.1879 8.87061 17.4899 9.19568 17.8624C9.52075 18.235 9.76599 18.6703 9.91625 19.1414C10.0996 19.9243 10.1419 20.7336 10.0413 21.5314C9.99652 22.0622 9.98275 22.5952 10 23.1276C10.0433 24.2957 10.4351 25.4241 11.125 26.3676C11.4849 26.8494 11.9417 27.2505 12.4659 27.5452C12.9901 27.8399 13.5701 28.0217 14.1687 28.0789C14.3452 28.0979 14.5225 28.1075 14.7 28.1076C16.0356 28.0922 17.3236 27.6092 18.34 26.7426C18.4025 26.6894 18.454 26.6245 18.4914 26.5514C18.5289 26.4783 18.5515 26.3986 18.5581 26.3168C18.5648 26.2349 18.5552 26.1526 18.53 26.0745C18.5048 25.9963 18.4644 25.9239 18.4113 25.8614C18.3581 25.7988 18.2931 25.7474 18.22 25.7099C18.1469 25.6725 18.0672 25.6499 17.9854 25.6432C17.9035 25.6366 17.8212 25.6462 17.7431 25.6714C17.6649 25.6966 17.5925 25.7369 17.53 25.7901H17.5287ZM38.7788 10.6214L39.0963 10.3039C39.6821 9.71785 40.0112 8.92313 40.0112 8.0945C40.0112 7.26586 39.6821 6.47115 39.0963 5.88512C38.501 5.31699 37.7097 5 36.8869 5C36.064 5 35.2728 5.31699 34.6775 5.88512L33.7962 6.76637L30.5938 9.96887H3.125C2.2962 9.96887 1.50134 10.2981 0.915291 10.8842C0.32924 11.4702 0 12.2651 0 13.0939L0 34.3439C0 35.1727 0.32924 35.9675 0.915291 36.5536C1.50134 37.1396 2.2962 37.4689 3.125 37.4689H16.2125C16.1243 38.4254 15.8376 39.3531 15.3705 40.1925C14.9034 41.0319 14.2664 41.7647 13.5 42.3439L11.5 43.8439C11.3951 43.9226 11.3175 44.0323 11.2784 44.1575C11.2393 44.2827 11.2406 44.4171 11.2821 44.5415C11.3236 44.666 11.4031 44.7742 11.5096 44.8509C11.616 44.9276 11.7438 44.9689 11.875 44.9689H28.125C28.2562 44.9689 28.384 44.9276 28.4904 44.8509C28.5969 44.7742 28.6764 44.666 28.7179 44.5415C28.7594 44.4171 28.7607 44.2827 28.7216 44.1575C28.6825 44.0323 28.6049 43.9226 28.5 43.8439L26.5 42.3439C25.7336 41.7647 25.0966 41.0319 24.6295 40.1925C24.1624 39.3531 23.8757 38.4254 23.7875 37.4689H36.875C37.7038 37.4689 38.4987 37.1396 39.0847 36.5536C39.6708 35.9675 40 35.1727 40 34.3439V13.0939C39.9993 12.6159 39.8889 12.1444 39.6774 11.7158C39.4659 11.2872 39.1577 10.9127 38.7788 10.6214ZM31.2788 11.0576C31.2973 11.0413 31.3149 11.0237 31.3313 11.0051L34.2363 8.09387L36.8887 10.7451L24.72 22.9151C24.1283 21.7802 23.2024 20.8543 22.0675 20.2626L31.2788 11.0576ZM23.6125 23.5476L20.8912 24.0914L21.435 21.3689C22.3742 21.8448 23.1371 22.6081 23.6125 23.5476ZM25.75 43.3439L26.25 43.7189H13.75L14.25 43.3439C15.1725 42.6484 15.9369 41.7651 16.4929 40.7524C17.0488 39.7397 17.3835 38.6205 17.475 37.4689H22.525C22.6165 38.6205 22.9512 39.7397 23.5071 40.7524C24.0631 41.7651 24.8275 42.6484 25.75 43.3439ZM38.75 34.3439C38.75 34.8412 38.5525 35.3181 38.2008 35.6697C37.8492 36.0213 37.3723 36.2189 36.875 36.2189H3.125C2.62772 36.2189 2.15081 36.0213 1.79917 35.6697C1.44754 35.3181 1.25 34.8412 1.25 34.3439V32.4689H38.75V34.3439ZM38.75 31.2189H1.25V13.0939C1.25 12.5966 1.44754 12.1197 1.79917 11.768C2.15081 11.4164 2.62772 11.2189 3.125 11.2189H29.3438L20.535 20.0264C20.4477 20.1134 20.3882 20.2243 20.3638 20.3451L19.48 24.7651C19.4615 24.8559 19.4634 24.9497 19.4855 25.0397C19.5077 25.1297 19.5497 25.2137 19.6083 25.2855C19.6669 25.3572 19.7408 25.4151 19.8245 25.4548C19.9083 25.4945 19.9998 25.5151 20.0925 25.5151C20.1345 25.5151 20.1763 25.5109 20.2175 25.5026L24.6375 24.6189C24.6462 24.6189 24.6525 24.6089 24.6613 24.6064C24.67 24.6039 24.695 24.6064 24.7125 24.5976C24.7982 24.568 24.8763 24.5197 24.9412 24.4564L24.9575 24.4476L37.875 11.5301C38.1408 11.6959 38.3604 11.9262 38.5134 12.1996C38.6664 12.473 38.7477 12.7806 38.75 13.0939V31.2189ZM38.2137 9.42012L37.7712 9.86262L35.125 7.21012L35.5675 6.76762C35.9248 6.42703 36.3995 6.23703 36.8931 6.23703C37.3868 6.23703 37.8614 6.42703 38.2188 6.76762C38.5703 7.11924 38.7677 7.59606 38.7677 8.09325C38.7677 8.59043 38.5703 9.06726 38.2188 9.41887L38.2137 9.42012Z" fill="url(#paint8_linear_4451_853)" stroke="url(#paint9_linear_4451_853)" stroke-width="0.238095"/>
</g>
<defs>
<linearGradient id="paint0_linear_4451_853" x1="3.44583" y1="10" x2="23.7476" y2="43.0935" gradientUnits="userSpaceOnUse">
<stop offset="0.259336" stop-color="#FFDB6E"/>
<stop offset="1" stop-color="#FFBC5E"/>
</linearGradient>
<linearGradient id="paint1_linear_4451_853" x1="3.44583" y1="10" x2="23.7476" y2="43.0935" gradientUnits="userSpaceOnUse">
<stop offset="0.259336" stop-color="#FFDB6E"/>
<stop offset="1" stop-color="#FFBC5E"/>
</linearGradient>
<linearGradient id="paint2_linear_4451_853" x1="2.82083" y1="31.875" x2="3.82095" y2="40.434" gradientUnits="userSpaceOnUse">
<stop offset="0.259336" stop-color="#FFDB6E"/>
<stop offset="1" stop-color="#FFBC5E"/>
</linearGradient>
<linearGradient id="paint3_linear_4451_853" x1="2.82083" y1="31.875" x2="3.82095" y2="40.434" gradientUnits="userSpaceOnUse">
<stop offset="0.259336" stop-color="#FFDB6E"/>
<stop offset="1" stop-color="#FFBC5E"/>
</linearGradient>
<linearGradient id="paint4_linear_4451_853" x1="12.7958" y1="36.875" x2="17.4262" y2="47.9534" gradientUnits="userSpaceOnUse">
<stop offset="0.259336" stop-color="#FFDB6E"/>
<stop offset="1" stop-color="#FFBC5E"/>
</linearGradient>
<linearGradient id="paint5_linear_4451_853" x1="12.7958" y1="36.875" x2="17.4262" y2="47.9534" gradientUnits="userSpaceOnUse">
<stop offset="0.259336" stop-color="#FFDB6E"/>
<stop offset="1" stop-color="#FFBC5E"/>
</linearGradient>
<linearGradient id="paint6_linear_4451_853" x1="21.7271" y1="19.7482" x2="28.9274" y2="24.1469" gradientUnits="userSpaceOnUse">
<stop offset="0.259336" stop-color="#FFDB6E"/>
<stop offset="1" stop-color="#FFBC5E"/>
</linearGradient>
<linearGradient id="paint7_linear_4451_853" x1="21.7271" y1="19.7482" x2="28.9274" y2="24.1469" gradientUnits="userSpaceOnUse">
<stop offset="0.259336" stop-color="#FFDB6E"/>
<stop offset="1" stop-color="#FFBC5E"/>
</linearGradient>
<linearGradient id="paint8_linear_4451_853" x1="2.2673" y1="5" x2="36.7701" y2="43.14" gradientUnits="userSpaceOnUse">
<stop offset="0.259336" stop-color="#FFDB6E"/>
<stop offset="1" stop-color="#FFBC5E"/>
</linearGradient>
<linearGradient id="paint9_linear_4451_853" x1="2.2673" y1="5" x2="36.7701" y2="43.14" gradientUnits="userSpaceOnUse">
<stop offset="0.259336" stop-color="#FFDB6E"/>
<stop offset="1" stop-color="#FFBC5E"/>
</linearGradient>
<clipPath id="clip0_4451_853">
<rect width="40" height="40" fill="white" transform="translate(0 5)"/>
</clipPath>
</defs>
</svg>
