<svg width="40" height="45" viewBox="0 0 40 45" fill="none" xmlns="http://www.w3.org/2000/svg">
<g clip-path="url(#clip0_4451_815)">
<g clip-path="url(#clip1_4451_815)">
<g clip-path="url(#clip2_4451_815)">
<path opacity="0.15" fill-rule="evenodd" clip-rule="evenodd" d="M38.7023 23.8702C38.4934 23.7834 38.2529 23.8314 38.0929 23.9918L36.4182 25.6719V14.2489C36.4182 13.9391 36.168 13.688 35.8591 13.688H31.5629L33.1224 12.1234L33.1231 12.1227L34.6258 10.6152C34.9478 10.2922 35.1251 9.86254 35.1251 9.40571C35.1251 8.94889 34.9478 8.51939 34.6258 8.19625L32.8881 6.45302C32.5662 6.13002 32.138 5.95215 31.6825 5.95215C31.2272 5.95215 30.799 6.13002 30.477 6.45302L28.9736 7.96127L27.1569 9.78379L23.2653 13.6879H5.90901V8.13847C5.90901 7.82862 5.65863 7.57753 5.34985 7.57753C2.925 7.57768 0.952148 9.55672 0.952148 11.9895V35.8149C0.952148 35.8563 0.95691 35.8966 0.965396 35.9355C1.04262 36.9678 1.48779 37.9268 2.23177 38.6549C3.02701 39.433 4.07679 39.8615 5.1878 39.8615H22.274L19.0561 43.0899C18.8961 43.2502 18.8483 43.4914 18.9348 43.7011C19.0214 43.9107 19.2253 44.0474 19.4515 44.0474H38.4883C38.7971 44.0474 39.0475 43.7963 39.0475 43.4864V24.3885C39.0475 24.1617 38.9112 23.9571 38.7023 23.8702ZM31.2679 7.24641C31.4964 7.01695 31.8689 7.01695 32.0975 7.24641L33.8352 8.98972C34.0639 9.2191 34.0639 9.59255 33.8352 9.82201L32.7272 10.9336L30.1598 8.35801L31.2679 7.24641ZM29.369 9.15132L31.9363 11.7268L30.9104 12.7561L28.3432 10.1806L29.369 9.15132ZM17.5204 25.7236L15.9188 26.2908L14.8517 25.2202L15.4171 23.6135L17.5204 25.7236ZM34.1229 33.7338L28.7338 39.1229C28.6738 39.1829 28.7162 39.2855 28.8011 39.2855H34.2855V33.8011C34.2855 33.7162 34.1829 33.6738 34.1229 33.7338ZM15.2379 22.6188L18.5712 25.9521L30.9521 13.5712L27.6188 10.2379L15.2379 22.6188Z" fill="url(#paint0_linear_4451_815)"/>
<path d="M34.6664 32.8618C34.4575 32.775 34.217 32.823 34.0571 32.9834L27.9465 39.1136C27.7866 39.2741 27.7387 39.5154 27.8254 39.725C27.9118 39.9347 28.1158 40.0713 28.3419 40.0713H34.4525C34.7614 40.0713 35.0116 39.8201 35.0116 39.5103V33.38C35.0116 33.1533 34.8754 32.9487 34.6664 32.8618ZM29.6916 38.9495L33.8932 34.7343V38.9495H29.6916Z" fill="url(#paint1_linear_4451_815)" stroke="url(#paint2_linear_4451_815)" stroke-width="0.238095"/>
<path d="M38.7023 23.8705C38.4934 23.7836 38.2529 23.8316 38.0929 23.992L36.4182 25.6721V14.2492C36.4182 13.9393 36.168 13.6882 35.8591 13.6882H31.5629L33.1224 12.1237C33.1227 12.1235 33.1229 12.1231 33.1231 12.1229L34.6258 10.6154C34.9478 10.2924 35.1251 9.86278 35.1251 9.40595C35.1251 8.94914 34.9478 8.51963 34.6258 8.1965L32.8881 6.45326C32.5662 6.13027 32.138 5.95239 31.6825 5.95239C31.2272 5.95239 30.799 6.13027 30.477 6.45326L28.9736 7.96152L27.1569 9.78403L23.2653 13.6881H5.90901V8.13872C5.90901 7.82887 5.65863 7.57777 5.34985 7.57777C2.925 7.57793 0.952148 9.55696 0.952148 11.9898V35.8152C0.952148 35.8566 0.95691 35.8969 0.965396 35.9357C1.04262 36.968 1.48779 37.9271 2.23177 38.6552C3.02701 39.4332 4.07679 39.8617 5.1878 39.8617H22.274L19.0561 43.0901C18.8961 43.2505 18.8483 43.4916 18.9348 43.7013C19.0214 43.911 19.2253 44.0476 19.4515 44.0476H38.4883C38.7971 44.0476 39.0475 43.7966 39.0475 43.4867V24.3888C39.0475 24.1619 38.9112 23.9573 38.7023 23.8705ZM31.2679 7.24665C31.4964 7.01719 31.8689 7.01719 32.0975 7.24665L33.8352 8.98996C34.0639 9.21934 34.0639 9.59279 33.8352 9.82225L32.7272 10.9338L30.1598 8.35825L31.2679 7.24665ZM29.369 9.15156L31.9363 11.7271L30.9104 12.7564L28.3432 10.1808L29.369 9.15156ZM37.9293 30.6918H36.8977C36.5888 30.6918 36.3385 30.943 36.3385 31.2528C36.3385 31.5627 36.5888 31.8137 36.8977 31.8137H37.9293V33.5041H36.8977C36.5888 33.5041 36.3385 33.7553 36.3385 34.0652C36.3385 34.375 36.5888 34.6261 36.8977 34.6261H37.9293V36.3164H36.8977C36.5888 36.3164 36.3385 36.5674 36.3385 36.8773C36.3385 37.1872 36.5888 37.4383 36.8977 37.4383H37.9293V39.1287H36.8977C36.5888 39.1287 36.3385 39.3798 36.3385 39.6896C36.3385 39.9995 36.5888 40.2506 36.8977 40.2506H37.9293V42.9259H20.8013L26.4492 37.26C26.6676 37.0408 26.6676 36.6857 26.4492 36.4667C26.4241 36.4414 26.3972 36.4196 26.369 36.4003C26.1513 36.2508 25.8518 36.2727 25.6583 36.4667L23.3923 38.74H5.18787C3.49203 38.74 2.12685 37.4118 2.07313 35.7136C2.07633 35.607 2.08459 35.5012 2.09783 35.3968C2.09791 35.3962 2.09799 35.3956 2.09806 35.395C2.10431 35.3453 2.11182 35.2959 2.12038 35.2469C2.12135 35.2412 2.12239 35.2355 2.12336 35.23C2.13117 35.1862 2.13995 35.1426 2.14955 35.0992C2.15222 35.0871 2.15505 35.075 2.15788 35.063C2.16636 35.0262 2.17551 34.9897 2.18534 34.9533C2.19069 34.9336 2.19627 34.9142 2.20201 34.8946C2.21019 34.866 2.21867 34.8376 2.22767 34.8094C2.23667 34.7813 2.24627 34.7534 2.25602 34.7256C2.26279 34.7062 2.26949 34.6867 2.27678 34.6673C2.2904 34.6306 2.30483 34.5943 2.31971 34.5582C2.32395 34.5478 2.32812 34.5373 2.33251 34.527C2.35163 34.4821 2.3715 34.4379 2.39248 34.3941C2.39337 34.3923 2.39419 34.3904 2.39508 34.3886C2.83243 33.4806 3.67359 32.8036 4.68303 32.5935C4.68586 32.593 4.68869 32.5923 4.69152 32.5916C4.7378 32.5822 4.78452 32.5741 4.83155 32.5666C4.83936 32.5653 4.84717 32.5636 4.85513 32.5625C4.89762 32.556 4.94055 32.551 4.98348 32.5461C4.99554 32.5448 5.00751 32.5429 5.01964 32.5417C5.06108 32.5375 5.1029 32.5348 5.14472 32.5321C5.15796 32.5312 5.17121 32.5299 5.18445 32.5293C5.23922 32.5265 5.29441 32.5251 5.34985 32.5251C5.65863 32.5251 5.90901 32.274 5.90901 31.9641V27.8968C5.90901 27.587 5.65863 27.3359 5.34985 27.3359C5.04107 27.3359 4.7907 27.587 4.7907 27.8968V31.4385C3.8465 31.5583 2.97008 31.9808 2.27902 32.6578C2.20632 32.729 2.13742 32.8031 2.0703 32.8783V11.9898C2.0703 10.3669 3.24783 9.01459 4.79062 8.74752V25.6532C4.79062 25.9629 5.041 26.2141 5.34978 26.2141C5.65856 26.2141 5.90893 25.9629 5.90893 25.6532V14.8101H22.1471L19.056 17.9112C18.8376 18.1303 18.8376 18.4854 19.056 18.7045C19.2743 18.9234 19.6283 18.9234 19.8467 18.7045L23.8923 14.6458C23.8922 14.6459 23.8924 14.6457 23.8923 14.6458L27.5522 10.9741L30.1195 13.5497L29.8182 13.8518C29.8181 13.8521 29.8178 13.8523 29.8176 13.8525L18.5431 25.1633L15.9759 22.5878L18.1981 20.3584C18.4165 20.1392 18.4165 19.7841 18.1981 19.5651C17.9798 19.3461 17.6258 19.3461 17.4075 19.5651L14.7897 22.1912C14.7757 22.2052 14.7626 22.22 14.7503 22.2353C14.7462 22.2404 14.7426 22.2458 14.7387 22.2511C14.7308 22.2616 14.7231 22.2722 14.7159 22.2832C14.7118 22.2897 14.7081 22.2963 14.7041 22.3029C14.6981 22.3133 14.6921 22.324 14.6866 22.3348C14.6831 22.3417 14.6799 22.349 14.6766 22.3562C14.6716 22.3672 14.667 22.3784 14.6627 22.3895C14.6613 22.3935 14.6593 22.3972 14.6579 22.4012L13.5685 25.4972L12.8259 27.608C12.8161 27.636 12.8089 27.6646 12.8037 27.6933H10.9441C10.6354 27.6933 10.385 27.9444 10.385 28.2542C10.385 28.5641 10.6354 28.8152 10.9441 28.8152H26.4288C26.7377 28.8152 26.988 28.5641 26.988 28.2542C26.988 27.9444 26.7377 27.6933 26.4288 27.6933H15.3192L18.7292 26.4856C18.7321 26.4847 18.7347 26.4832 18.7375 26.4822C18.7508 26.4772 18.7638 26.4716 18.7766 26.4658C18.7818 26.4634 18.7869 26.4612 18.792 26.4587C18.8053 26.452 18.8184 26.4446 18.8314 26.4367C18.8356 26.4341 18.8399 26.4318 18.844 26.4293C18.8575 26.4206 18.8705 26.4111 18.8835 26.4011C18.8866 26.3987 18.89 26.3965 18.8931 26.3939C18.9086 26.3813 18.9239 26.3679 18.9383 26.3533L30.4446 14.8102H35.3V26.794L27.3017 34.818C27.0833 35.0373 27.0833 35.3923 27.3017 35.6113C27.3153 35.6251 27.3295 35.6379 27.3441 35.6498C27.4467 35.7337 27.572 35.7757 27.6971 35.7757C27.8222 35.7757 27.9475 35.7337 28.05 35.6498C28.0646 35.6379 28.0788 35.6251 28.0924 35.6113L37.9293 25.7428V30.6918ZM17.5204 25.7238L15.9188 26.2911L14.8517 25.2205L15.4171 23.6137L17.5204 25.7238Z" fill="url(#paint3_linear_4451_815)"/>
<path d="M23.8923 14.6458L19.8467 18.7045C19.6283 18.9234 19.2743 18.9234 19.056 18.7045C18.8376 18.4854 18.8376 18.1303 19.056 17.9112L22.1471 14.8101H5.90893V25.6532C5.90893 25.9629 5.65856 26.2141 5.34978 26.2141C5.041 26.2141 4.79062 25.9629 4.79062 25.6532V8.74752C3.24783 9.01459 2.0703 10.3669 2.0703 11.9898V32.8783C2.13742 32.8031 2.20632 32.729 2.27902 32.6578C2.97008 31.9808 3.8465 31.5583 4.7907 31.4385V27.8968C4.7907 27.587 5.04107 27.3359 5.34985 27.3359C5.65863 27.3359 5.90901 27.587 5.90901 27.8968V31.9641C5.90901 32.274 5.65863 32.5251 5.34985 32.5251C5.29442 32.5251 5.23922 32.5265 5.18445 32.5293C5.17121 32.5299 5.15796 32.5313 5.14472 32.5321C5.1029 32.5348 5.06108 32.5375 5.01964 32.5417C5.00751 32.5429 4.99554 32.5448 4.98348 32.5461C4.94055 32.551 4.89762 32.556 4.85513 32.5625C4.84717 32.5636 4.83936 32.5653 4.83155 32.5666C4.78452 32.5741 4.7378 32.5822 4.69152 32.5916C4.68869 32.5923 4.68586 32.593 4.68303 32.5935C3.67359 32.8036 2.83243 33.4806 2.39508 34.3886C2.39419 34.3904 2.39337 34.3923 2.39248 34.3941C2.3715 34.4379 2.35163 34.4821 2.33251 34.527C2.32812 34.5373 2.32395 34.5478 2.31971 34.5582C2.30483 34.5943 2.2904 34.6306 2.27678 34.6673C2.26949 34.6867 2.26279 34.7062 2.25602 34.7256C2.24627 34.7534 2.23667 34.7813 2.22767 34.8094C2.21867 34.8376 2.21019 34.866 2.20201 34.8946C2.19627 34.9142 2.19069 34.9336 2.18534 34.9533C2.17551 34.9897 2.16636 35.0262 2.15788 35.063C2.15505 35.075 2.15222 35.0871 2.14955 35.0992C2.13995 35.1426 2.13117 35.1862 2.12336 35.23C2.12239 35.2355 2.12135 35.2412 2.12038 35.2469C2.11182 35.2959 2.10431 35.3453 2.09806 35.395C2.09799 35.3956 2.09791 35.3962 2.09783 35.3968C2.08459 35.5012 2.07633 35.607 2.07313 35.7136C2.12685 37.4118 3.49203 38.74 5.18787 38.74H23.3923L25.6583 36.4667C25.8518 36.2727 26.1513 36.2508 26.369 36.4003C26.3972 36.4196 26.4241 36.4414 26.4492 36.4667C26.6676 36.6857 26.6676 37.0408 26.4492 37.26L20.8013 42.9259H37.9293V40.2506H36.8977C36.5888 40.2506 36.3385 39.9995 36.3385 39.6896C36.3385 39.3798 36.5888 39.1287 36.8977 39.1287H37.9293V37.4383H36.8977C36.5888 37.4383 36.3385 37.1872 36.3385 36.8773C36.3385 36.5674 36.5888 36.3164 36.8977 36.3164H37.9293V34.6261H36.8977C36.5888 34.6261 36.3385 34.375 36.3385 34.0652C36.3385 33.7553 36.5888 33.5041 36.8977 33.5041H37.9293V31.8137H36.8977C36.5888 31.8137 36.3385 31.5627 36.3385 31.2528C36.3385 30.943 36.5888 30.6918 36.8977 30.6918H37.9293V25.7428L28.0924 35.6113C28.0788 35.6251 28.0646 35.6379 28.05 35.6498C27.9475 35.7337 27.8222 35.7757 27.6971 35.7757C27.572 35.7757 27.4467 35.7337 27.3441 35.6498C27.3295 35.6379 27.3153 35.6251 27.3017 35.6113C27.0833 35.3923 27.0833 35.0373 27.3017 34.818L35.3 26.794V14.8102H30.4446L18.9383 26.3533C18.9239 26.3679 18.9086 26.3813 18.8931 26.3939C18.89 26.3965 18.8866 26.3987 18.8835 26.4011C18.8705 26.4111 18.8575 26.4206 18.844 26.4292C18.8399 26.4318 18.8356 26.4341 18.8314 26.4367C18.8184 26.4446 18.8053 26.452 18.792 26.4587C18.7869 26.4612 18.7818 26.4634 18.7766 26.4658C18.7638 26.4716 18.7508 26.4772 18.7375 26.4822C18.7347 26.4832 18.7321 26.4847 18.7292 26.4856L15.3192 27.6933H26.4288C26.7377 27.6933 26.988 27.9444 26.988 28.2542C26.988 28.5641 26.7377 28.8152 26.4288 28.8152H10.9441C10.6354 28.8152 10.385 28.5641 10.385 28.2542C10.385 27.9444 10.6354 27.6933 10.9441 27.6933H12.8037C12.8089 27.6646 12.8161 27.636 12.8259 27.608L13.5685 25.4972L14.6579 22.4012C14.6593 22.3972 14.6613 22.3935 14.6627 22.3895C14.667 22.3784 14.6716 22.3672 14.6766 22.3562C14.6799 22.349 14.6831 22.3417 14.6866 22.3348C14.6921 22.324 14.6981 22.3133 14.7041 22.3029C14.7081 22.2963 14.7118 22.2897 14.7159 22.2832C14.7231 22.2722 14.7308 22.2616 14.7387 22.2511C14.7426 22.2458 14.7462 22.2404 14.7503 22.2352C14.7626 22.22 14.7757 22.2052 14.7897 22.1912L17.4075 19.5651C17.6258 19.3461 17.9798 19.3461 18.1981 19.5651C18.4165 19.7841 18.4165 20.1392 18.1981 20.3584L15.9759 22.5878L18.5431 25.1633L29.8176 13.8525C29.8178 13.8523 29.8181 13.8521 29.8182 13.8518L30.1195 13.5497L27.5522 10.9741L23.8923 14.6458ZM23.8923 14.6458C23.8924 14.6457 23.8922 14.6459 23.8923 14.6458ZM38.7023 23.8705C38.4934 23.7836 38.2529 23.8316 38.0929 23.992L36.4182 25.6721V14.2492C36.4182 13.9393 36.168 13.6882 35.8591 13.6882H31.5629L33.1224 12.1237C33.1227 12.1235 33.1229 12.1231 33.1231 12.1229L34.6258 10.6154C34.9478 10.2924 35.1251 9.86278 35.1251 9.40595C35.1251 8.94914 34.9478 8.51963 34.6258 8.1965L32.8881 6.45326C32.5662 6.13027 32.138 5.95239 31.6825 5.95239C31.2272 5.95239 30.799 6.13027 30.477 6.45326L28.9736 7.96152L27.1569 9.78403L23.2653 13.6881H5.90901V8.13872C5.90901 7.82887 5.65863 7.57777 5.34985 7.57777C2.925 7.57793 0.952148 9.55696 0.952148 11.9898V35.8152C0.952148 35.8566 0.95691 35.8969 0.965396 35.9357C1.04262 36.968 1.48779 37.9271 2.23177 38.6552C3.02701 39.4332 4.07679 39.8617 5.1878 39.8617H22.274L19.0561 43.0901C18.8961 43.2505 18.8483 43.4916 18.9348 43.7013C19.0214 43.911 19.2253 44.0476 19.4515 44.0476H38.4883C38.7971 44.0476 39.0475 43.7966 39.0475 43.4867V24.3888C39.0475 24.1619 38.9112 23.9573 38.7023 23.8705ZM31.2679 7.24665C31.4964 7.01719 31.8689 7.01719 32.0975 7.24665L33.8352 8.98996C34.0639 9.21934 34.0639 9.59279 33.8352 9.82225L32.7272 10.9338L30.1598 8.35825L31.2679 7.24665ZM29.369 9.15156L31.9363 11.7271L30.9104 12.7564L28.3432 10.1808L29.369 9.15156ZM17.5204 25.7238L15.9188 26.2911L14.8517 25.2205L15.4171 23.6137L17.5204 25.7238Z" stroke="url(#paint4_linear_4451_815)" stroke-width="0.238095"/>
</g>
</g>
</g>
<defs>
<linearGradient id="paint0_linear_4451_815" x1="3.11088" y1="5.95215" x2="35.9998" y2="42.2697" gradientUnits="userSpaceOnUse">
<stop offset="0.259336" stop-color="#FFDB6E"/>
<stop offset="1" stop-color="#FFBC5E"/>
</linearGradient>
<linearGradient id="paint1_linear_4451_815" x1="28.1923" y1="32.8191" x2="34.4553" y2="39.7128" gradientUnits="userSpaceOnUse">
<stop offset="0.259336" stop-color="#FFDB6E"/>
<stop offset="1" stop-color="#FFBC5E"/>
</linearGradient>
<linearGradient id="paint2_linear_4451_815" x1="28.1923" y1="32.8191" x2="34.4553" y2="39.7128" gradientUnits="userSpaceOnUse">
<stop offset="0.259336" stop-color="#FFDB6E"/>
<stop offset="1" stop-color="#FFBC5E"/>
</linearGradient>
<linearGradient id="paint3_linear_4451_815" x1="3.11088" y1="5.95239" x2="35.9998" y2="42.2699" gradientUnits="userSpaceOnUse">
<stop offset="0.259336" stop-color="#FFDB6E"/>
<stop offset="1" stop-color="#FFBC5E"/>
</linearGradient>
<linearGradient id="paint4_linear_4451_815" x1="3.11088" y1="5.95239" x2="35.9998" y2="42.2699" gradientUnits="userSpaceOnUse">
<stop offset="0.259336" stop-color="#FFDB6E"/>
<stop offset="1" stop-color="#FFBC5E"/>
</linearGradient>
<clipPath id="clip0_4451_815">
<rect width="40" height="40" fill="white" transform="translate(0 5)"/>
</clipPath>
<clipPath id="clip1_4451_815">
<rect width="40" height="40" fill="white" transform="translate(0 5)"/>
</clipPath>
<clipPath id="clip2_4451_815">
<rect width="40" height="40" fill="white" transform="translate(0 5)"/>
</clipPath>
</defs>
</svg>
