<svg width="41" height="37" viewBox="0 0 41 37" fill="none" xmlns="http://www.w3.org/2000/svg">
<g clip-path="url(#clip0_4451_831)">
<g clip-path="url(#clip1_4451_831)">
<g clip-path="url(#clip2_4451_831)">
<path opacity="0.15" fill-rule="evenodd" clip-rule="evenodd" d="M3.5 6C2.39543 6 1.5 6.89543 1.5 8V33C1.5 34.1046 2.39543 35 3.5 35H37.5C38.6046 35 39.5 34.1046 39.5 33V8C39.5 6.89543 38.6046 6 37.5 6H3.5ZM36.5 14H4.5V33H36.5V14Z" fill="url(#paint0_linear_4451_831)"/>
<path d="M38.1172 5.375H2.88281C1.56903 5.375 0.5 6.44403 0.5 7.75781V34.2422C0.5 35.556 1.56903 36.625 2.88281 36.625H38.1172C39.431 36.625 40.5 35.556 40.5 34.2422V7.75781C40.5 6.44403 39.431 5.375 38.1172 5.375ZM38.9375 34.2422C38.9375 34.6945 38.5695 35.0625 38.1172 35.0625H2.88281C2.43054 35.0625 2.0625 34.6945 2.0625 34.2422V7.75781C2.0625 7.30554 2.43054 6.9375 2.88281 6.9375H38.1172C38.5695 6.9375 38.9375 7.30554 38.9375 7.75781V34.2422Z" fill="url(#paint1_linear_4451_831)"/>
<path d="M15.4219 10.7915H35.5781C36.0096 10.7915 36.3594 10.4418 36.3594 10.0103C36.3594 9.57904 36.0096 9.229 35.5781 9.229H15.4219C14.9904 9.229 14.6406 9.57904 14.6406 10.0103C14.6406 10.4418 14.9904 10.7915 15.4219 10.7915Z" fill="url(#paint2_linear_4451_831)"/>
<path d="M4.49207 10.3093C4.5116 10.3563 4.53571 10.4015 4.56379 10.4436C4.59186 10.4866 4.62482 10.5266 4.66083 10.5623C4.8061 10.7085 5.00751 10.7915 5.21289 10.7915C5.26447 10.7915 5.31543 10.7866 5.36609 10.7766C5.41614 10.7665 5.46528 10.7515 5.51227 10.732C5.55927 10.7125 5.60444 10.6884 5.64655 10.6603C5.68958 10.6313 5.72956 10.5983 5.76526 10.5626C5.80219 10.5266 5.83423 10.4866 5.86292 10.4439C5.8913 10.4015 5.91541 10.3563 5.93494 10.3093C5.95447 10.2617 5.96943 10.2126 5.9795 10.1632C5.98957 10.1125 5.99414 10.0609 5.99414 10.0103C5.99414 9.95931 5.98957 9.90773 5.9795 9.85799C5.96943 9.80794 5.95447 9.7585 5.93494 9.71181C5.91541 9.6642 5.8913 9.61873 5.86292 9.57662C5.83423 9.53359 5.80219 9.49391 5.76526 9.4579C5.72956 9.42189 5.68958 9.38924 5.64655 9.36086C5.60444 9.33278 5.55927 9.30867 5.51227 9.28914C5.46528 9.26961 5.41614 9.25465 5.36609 9.24458C5.26539 9.22414 5.16163 9.22414 5.06061 9.24458C5.01056 9.25465 4.96143 9.26961 4.91474 9.28914C4.86683 9.30867 4.82166 9.33278 4.77955 9.36086C4.73652 9.38924 4.69654 9.42189 4.66083 9.4579C4.62482 9.49391 4.59186 9.53359 4.56379 9.57662C4.53571 9.61873 4.5116 9.6642 4.49207 9.71181C4.47254 9.7585 4.45758 9.80794 4.44751 9.85799C4.43714 9.90773 4.43164 9.95931 4.43164 10.0103C4.43164 10.0609 4.43714 10.1125 4.44751 10.1632C4.45758 10.2126 4.47254 10.2617 4.49207 10.3093Z" fill="url(#paint3_linear_4451_831)"/>
<path d="M7.61707 10.3093C7.6366 10.3563 7.66071 10.4015 7.68879 10.4436C7.71686 10.4866 7.74982 10.5266 7.78583 10.5623C7.9311 10.7085 8.13251 10.7915 8.33789 10.7915C8.38947 10.7915 8.44043 10.7866 8.49109 10.7766C8.54114 10.7665 8.59028 10.7515 8.63727 10.732C8.68427 10.7125 8.72944 10.6884 8.77155 10.6603C8.81458 10.6313 8.85456 10.5983 8.89118 10.5626C8.92719 10.5266 8.95923 10.4866 8.98792 10.4439C9.0163 10.4015 9.04041 10.3563 9.05994 10.3093C9.07947 10.2617 9.09443 10.2126 9.1045 10.1632C9.11457 10.1125 9.11914 10.0609 9.11914 10.0103C9.11914 9.95931 9.11457 9.90773 9.1045 9.85799C9.09443 9.80794 9.07947 9.7585 9.05994 9.71181C9.04041 9.6642 9.0163 9.61873 8.98792 9.57662C8.95923 9.53359 8.92719 9.49391 8.89118 9.4579C8.85456 9.42189 8.81458 9.38924 8.77155 9.36086C8.72944 9.33278 8.68427 9.30867 8.63727 9.28914C8.59028 9.26961 8.54114 9.25465 8.49109 9.24458C8.39039 9.22414 8.28663 9.22414 8.18561 9.24458C8.13556 9.25465 8.08643 9.26961 8.03974 9.28914C7.99183 9.30867 7.94666 9.33278 7.90455 9.36086C7.86152 9.38924 7.82154 9.42189 7.78583 9.4579C7.74982 9.49391 7.71686 9.53359 7.68879 9.57662C7.66071 9.61873 7.6366 9.6642 7.61707 9.71181C7.59754 9.7585 7.58258 9.80794 7.57251 9.85799C7.56214 9.90773 7.55664 9.95931 7.55664 10.0103C7.55664 10.0609 7.56214 10.1125 7.57251 10.1632C7.58258 10.2126 7.59754 10.2617 7.61707 10.3093Z" fill="url(#paint4_linear_4451_831)"/>
<path d="M10.7425 10.3093C10.762 10.3563 10.7861 10.4015 10.8142 10.4436C10.8423 10.4866 10.8753 10.5266 10.9113 10.5623C10.947 10.5983 10.987 10.6313 11.03 10.66C11.0721 10.6884 11.1173 10.7125 11.1652 10.732C11.2119 10.7515 11.261 10.7665 11.3111 10.7766C11.3611 10.7866 11.4127 10.7912 11.4633 10.7912C11.5149 10.7912 11.5659 10.7866 11.6165 10.7766C11.6666 10.7665 11.7157 10.7515 11.7627 10.732C11.8097 10.7125 11.8549 10.6884 11.8979 10.66C11.94 10.6313 11.98 10.5983 12.0166 10.5623C12.0526 10.5266 12.0847 10.4866 12.1134 10.4436C12.1417 10.4015 12.1658 10.3563 12.1854 10.3093C12.2049 10.2617 12.2199 10.2126 12.2299 10.1632C12.24 10.1125 12.2446 10.0609 12.2446 10.01C12.2446 9.95931 12.24 9.90773 12.2299 9.85768C12.2199 9.80763 12.2049 9.7585 12.1854 9.71181C12.1658 9.6639 12.1417 9.61873 12.1134 9.57662C12.0847 9.53359 12.0526 9.49361 12.0166 9.4579C11.98 9.42189 11.94 9.38893 11.8979 9.36086C11.8549 9.33278 11.8097 9.30867 11.7627 9.28914C11.7157 9.26961 11.6666 9.25465 11.6165 9.24458C11.5158 9.22414 11.4121 9.22414 11.3111 9.24458C11.261 9.25465 11.2119 9.26961 11.1652 9.28914C11.1173 9.30867 11.0721 9.33278 11.03 9.36086C10.987 9.38893 10.947 9.42189 10.9113 9.4579C10.8753 9.49361 10.8423 9.53359 10.8142 9.57662C10.7861 9.61873 10.762 9.6639 10.7425 9.71181C10.723 9.7585 10.708 9.80763 10.698 9.85768C10.6876 9.90773 10.6821 9.95931 10.6821 10.01C10.6821 10.0609 10.6876 10.1125 10.698 10.1632C10.708 10.2126 10.723 10.2617 10.7425 10.3093Z" fill="url(#paint5_linear_4451_831)"/>
<path d="M23.2154 18.7391C22.844 18.5193 22.3649 18.6426 22.1452 19.014L17.5099 26.8525C17.2901 27.2239 17.4131 27.703 17.7845 27.9224C17.9093 27.9963 18.0464 28.0317 18.1816 28.0317C18.4486 28.0317 18.7089 27.8943 18.8548 27.6478L23.4901 19.8093C23.7098 19.4379 23.5868 18.9588 23.2154 18.7391Z" fill="url(#paint6_linear_4451_831)"/>
<path d="M13.4768 21.0352V20.2463C13.4768 19.8096 13.832 19.4541 14.2687 19.4541H14.2797C14.7112 19.4541 15.0609 19.1043 15.0609 18.6728C15.0609 18.2416 14.7112 17.8916 14.2797 17.8916H14.2687C12.9705 17.8916 11.9143 18.9481 11.9143 20.2463V21.0352C11.9143 21.3193 11.7977 21.5964 11.5945 21.7951L10.5822 22.7854C10.4329 22.9313 10.3484 23.1308 10.3472 23.3396C10.3463 23.5483 10.4287 23.7488 10.5764 23.8965L11.6079 24.9277C11.8069 25.1264 11.9173 25.3907 11.9195 25.672L11.925 26.4908C11.9341 27.7802 12.9903 28.8294 14.2797 28.8294C14.7112 28.8294 15.0609 28.4793 15.0609 28.0481C15.0609 27.6166 14.7112 27.2669 14.2797 27.2669C13.8457 27.2669 13.4905 26.9138 13.4875 26.4801L13.482 25.6614C13.4771 24.9665 13.2036 24.3134 12.7126 23.8227L12.2396 23.35L12.6873 22.912C13.189 22.421 13.4768 21.7371 13.4768 21.0352Z" fill="url(#paint7_linear_4451_831)"/>
<path d="M27.5232 25.6857V26.4745C27.5232 26.9113 27.168 27.2668 26.7313 27.2668H26.7203C26.2888 27.2668 25.939 27.6165 25.939 28.048C25.939 28.4792 26.2888 28.8293 26.7203 28.8293H26.7313C28.0295 28.8293 29.0857 27.7728 29.0857 26.4745V25.6857C29.0857 25.4016 29.2023 25.1245 29.4055 24.9258L30.4178 23.9355C30.567 23.7896 30.6516 23.59 30.6525 23.3813C30.6537 23.1725 30.5713 22.972 30.4236 22.8243L29.3921 21.7932C29.1931 21.5945 29.0823 21.3299 29.0805 21.0488L29.0747 20.23C29.0659 18.9407 28.0097 17.8918 26.7203 17.8918C26.2888 17.8918 25.939 18.2415 25.939 18.673C25.939 19.1042 26.2888 19.4543 26.7203 19.4543C27.1539 19.4543 27.5095 19.8071 27.5122 20.2407L27.518 21.0595C27.5229 21.7541 27.796 22.4072 28.2874 22.8982L28.7604 23.3709L28.3127 23.8088C27.811 24.2996 27.5232 24.9838 27.5232 25.6857Z" fill="url(#paint8_linear_4451_831)"/>
<path d="M36.5442 13.1353H4.45557C4.02405 13.1353 3.67432 13.4853 3.67432 13.9165V32.6665C3.67432 33.098 4.02405 33.4477 4.45557 33.4477H13.7552C14.1867 33.4477 14.5365 33.098 14.5365 32.6665C14.5365 32.2353 14.1867 31.8852 13.7552 31.8852H5.23682V14.6978H35.763V31.8852H20.0311C19.5996 31.8852 19.2499 32.2353 19.2499 32.6665C19.2499 33.098 19.5996 33.4477 20.0311 33.4477H36.5442C36.9757 33.4477 37.3255 33.098 37.3255 32.6665V13.9165C37.3255 13.4853 36.9757 13.1353 36.5442 13.1353Z" fill="url(#paint9_linear_4451_831)"/>
</g>
</g>
</g>
<defs>
<linearGradient id="paint0_linear_4451_831" x1="3.65333" y1="6" x2="27.1886" y2="40.0542" gradientUnits="userSpaceOnUse">
<stop offset="0.259336" stop-color="#FFDB6E"/>
<stop offset="1" stop-color="#FFBC5E"/>
</linearGradient>
<linearGradient id="paint1_linear_4451_831" x1="2.76667" y1="5.375" x2="28.3327" y2="41.511" gradientUnits="userSpaceOnUse">
<stop offset="0.259336" stop-color="#FFDB6E"/>
<stop offset="1" stop-color="#FFBC5E"/>
</linearGradient>
<linearGradient id="paint2_linear_4451_831" x1="15.8714" y1="9.229" x2="16.0472" y2="11.9287" gradientUnits="userSpaceOnUse">
<stop offset="0.259336" stop-color="#FFDB6E"/>
<stop offset="1" stop-color="#FFBC5E"/>
</linearGradient>
<linearGradient id="paint3_linear_4451_831" x1="4.52019" y1="9.22925" x2="5.86893" y2="10.7188" gradientUnits="userSpaceOnUse">
<stop offset="0.259336" stop-color="#FFDB6E"/>
<stop offset="1" stop-color="#FFBC5E"/>
</linearGradient>
<linearGradient id="paint4_linear_4451_831" x1="7.64519" y1="9.22925" x2="8.99393" y2="10.7188" gradientUnits="userSpaceOnUse">
<stop offset="0.259336" stop-color="#FFDB6E"/>
<stop offset="1" stop-color="#FFBC5E"/>
</linearGradient>
<linearGradient id="paint5_linear_4451_831" x1="10.7706" y1="9.22925" x2="12.1191" y2="10.7188" gradientUnits="userSpaceOnUse">
<stop offset="0.259336" stop-color="#FFDB6E"/>
<stop offset="1" stop-color="#FFBC5E"/>
</linearGradient>
<linearGradient id="paint6_linear_4451_831" x1="17.7521" y1="18.6302" x2="25.5143" y2="24.2811" gradientUnits="userSpaceOnUse">
<stop offset="0.259336" stop-color="#FFDB6E"/>
<stop offset="1" stop-color="#FFBC5E"/>
</linearGradient>
<linearGradient id="paint7_linear_4451_831" x1="10.6143" y1="17.8916" x2="17.9784" y2="21.396" gradientUnits="userSpaceOnUse">
<stop offset="0.259336" stop-color="#FFDB6E"/>
<stop offset="1" stop-color="#FFBC5E"/>
</linearGradient>
<linearGradient id="paint8_linear_4451_831" x1="26.2061" y1="17.8918" x2="33.5698" y2="21.3959" gradientUnits="userSpaceOnUse">
<stop offset="0.259336" stop-color="#FFDB6E"/>
<stop offset="1" stop-color="#FFBC5E"/>
</linearGradient>
<linearGradient id="paint9_linear_4451_831" x1="5.58121" y1="13.1353" x2="20.4151" y2="40.272" gradientUnits="userSpaceOnUse">
<stop offset="0.259336" stop-color="#FFDB6E"/>
<stop offset="1" stop-color="#FFBC5E"/>
</linearGradient>
<clipPath id="clip0_4451_831">
<rect width="40" height="32" fill="white" transform="translate(0.5 5)"/>
</clipPath>
<clipPath id="clip1_4451_831">
<rect width="40" height="32" fill="white" transform="translate(0.5 5)"/>
</clipPath>
<clipPath id="clip2_4451_831">
<rect width="40" height="32" fill="white" transform="translate(0.5 5)"/>
</clipPath>
</defs>
</svg>
