<svg width="188" height="149" viewBox="0 0 188 149" fill="none" xmlns="http://www.w3.org/2000/svg">
<g filter="url(#filter0_d_4437_5839)">
<rect x="28" y="16.8784" width="140" height="100" rx="16" fill="url(#paint0_linear_4437_5839)" shape-rendering="crispEdges"/>
<path d="M78.501 26.8771L81.2424 65.2764L98.001 70.7521L114.76 65.2764L117.501 26.8771H78.501Z" fill="#FF7816"/>
<path d="M110.181 38.5316H91.0174L91.4828 44.9586H109.716L108.604 60.5203L98.0002 64.0425L87.3967 60.5203L87.0347 55.3275H92.2071L92.3105 56.7415L98.0002 58.618L103.69 56.7415L104.155 50.1002H86.6468L85.457 33.39H110.543L110.181 38.5316Z" fill="#ECECF1"/>
<path d="M84.54 80.3294V88.7534H82.488V85.2854H79.296V88.7534H77.244V80.3294H79.296V83.6294H82.488V80.3294H84.54ZM92.0813 80.3294V81.9734H89.8493V88.7534H87.7973V81.9734H85.5653V80.3294H92.0813ZM102.651 80.3294V88.7534H100.599V83.7014L98.7152 88.7534H97.0592L95.1632 83.6894V88.7534H93.1112V80.3294H95.5352L97.8992 86.1614L100.239 80.3294H102.651ZM106.179 87.1694H108.867V88.7534H104.127V80.3294H106.179V87.1694ZM118.353 81.7814H114.609V83.4374C114.769 83.2614 114.993 83.1174 115.281 83.0054C115.569 82.8934 115.881 82.8374 116.217 82.8374C116.817 82.8374 117.313 82.9734 117.705 83.2454C118.105 83.5174 118.397 83.8694 118.581 84.3014C118.765 84.7334 118.857 85.2014 118.857 85.7054C118.857 86.6414 118.593 87.3854 118.065 87.9374C117.537 88.4814 116.793 88.7534 115.833 88.7534C115.193 88.7534 114.637 88.6454 114.165 88.4294C113.693 88.2054 113.329 87.8974 113.073 87.5054C112.817 87.1134 112.677 86.6614 112.653 86.1494H114.657C114.705 86.3974 114.821 86.6054 115.005 86.7734C115.189 86.9334 115.441 87.0134 115.761 87.0134C116.137 87.0134 116.417 86.8934 116.601 86.6534C116.785 86.4134 116.877 86.0934 116.877 85.6934C116.877 85.3014 116.781 85.0014 116.589 84.7934C116.397 84.5854 116.117 84.4814 115.749 84.4814C115.477 84.4814 115.253 84.5494 115.077 84.6854C114.901 84.8134 114.785 84.9854 114.729 85.2014H112.749V79.9814H118.353V81.7814Z" fill="white"/>
<path d="M46.5667 104.823C46.1067 104.823 45.7 104.743 45.3467 104.583C45 104.423 44.7267 104.2 44.5267 103.913C44.3267 103.627 44.22 103.307 44.2067 102.953H44.9467C44.98 103.293 45.13 103.593 45.3967 103.853C45.6633 104.107 46.0533 104.233 46.5667 104.233C47.04 104.233 47.4133 104.113 47.6867 103.873C47.9667 103.627 48.1067 103.317 48.1067 102.943C48.1067 102.643 48.03 102.403 47.8767 102.223C47.7233 102.037 47.5333 101.9 47.3067 101.813C47.08 101.72 46.7667 101.62 46.3667 101.513C45.9 101.387 45.53 101.263 45.2567 101.143C44.9833 101.023 44.75 100.837 44.5567 100.583C44.3633 100.33 44.2667 99.9868 44.2667 99.5534C44.2667 99.1934 44.36 98.8734 44.5467 98.5934C44.7333 98.3068 44.9967 98.0834 45.3367 97.9234C45.6767 97.7634 46.0667 97.6834 46.5067 97.6834C47.1533 97.6834 47.6733 97.8434 48.0667 98.1634C48.4667 98.4768 48.6967 98.8834 48.7567 99.3834H47.9967C47.95 99.0968 47.7933 98.8434 47.5267 98.6234C47.26 98.3968 46.9 98.2834 46.4467 98.2834C46.0267 98.2834 45.6767 98.3968 45.3967 98.6234C45.1167 98.8434 44.9767 99.1468 44.9767 99.5334C44.9767 99.8268 45.0533 100.063 45.2067 100.243C45.36 100.423 45.55 100.56 45.7767 100.653C46.01 100.747 46.3233 100.847 46.7167 100.953C47.17 101.08 47.5367 101.207 47.8167 101.333C48.0967 101.453 48.3333 101.64 48.5267 101.893C48.72 102.147 48.8167 102.487 48.8167 102.913C48.8167 103.24 48.73 103.55 48.5567 103.843C48.3833 104.137 48.1267 104.373 47.7867 104.553C47.4467 104.733 47.04 104.823 46.5667 104.823ZM55.2093 101.743C55.2093 101.983 55.2027 102.167 55.1893 102.293H50.6593C50.6793 102.707 50.7793 103.06 50.9593 103.353C51.1393 103.647 51.376 103.87 51.6693 104.023C51.9627 104.17 52.2827 104.243 52.6293 104.243C53.0827 104.243 53.4627 104.133 53.7693 103.913C54.0827 103.693 54.2893 103.397 54.3893 103.023H55.1293C54.996 103.557 54.7093 103.993 54.2693 104.333C53.836 104.667 53.2893 104.833 52.6293 104.833C52.116 104.833 51.656 104.72 51.2493 104.493C50.8427 104.26 50.5227 103.933 50.2893 103.513C50.0627 103.087 49.9493 102.59 49.9493 102.023C49.9493 101.457 50.0627 100.96 50.2893 100.533C50.516 100.107 50.8327 99.7801 51.2393 99.5534C51.646 99.3268 52.1093 99.2134 52.6293 99.2134C53.1493 99.2134 53.6027 99.3268 53.9893 99.5534C54.3827 99.7801 54.6827 100.087 54.8893 100.473C55.1027 100.853 55.2093 101.277 55.2093 101.743ZM54.4993 101.723C54.506 101.317 54.4227 100.97 54.2493 100.683C54.0827 100.397 53.8527 100.18 53.5593 100.033C53.266 99.8868 52.946 99.8134 52.5993 99.8134C52.0793 99.8134 51.636 99.9801 51.2693 100.313C50.9027 100.647 50.6993 101.117 50.6593 101.723H54.4993ZM63.09 99.1934C63.73 99.1934 64.25 99.3968 64.65 99.8034C65.0567 100.203 65.26 100.787 65.26 101.553V104.753H64.57V101.633C64.57 101.04 64.4267 100.587 64.14 100.273C63.8534 99.9601 63.4634 99.8034 62.97 99.8034C62.4567 99.8034 62.0467 99.9734 61.74 100.313C61.4334 100.653 61.28 101.147 61.28 101.793V104.753H60.59V101.633C60.59 101.04 60.4467 100.587 60.16 100.273C59.8734 99.9601 59.48 99.8034 58.98 99.8034C58.4667 99.8034 58.0567 99.9734 57.75 100.313C57.4434 100.653 57.29 101.147 57.29 101.793V104.753H56.59V99.2934H57.29V100.233C57.4634 99.8934 57.71 99.6368 58.03 99.4634C58.35 99.2834 58.7067 99.1934 59.1 99.1934C59.5734 99.1934 59.9867 99.3068 60.34 99.5334C60.7 99.7601 60.96 100.093 61.12 100.533C61.2667 100.1 61.5167 99.7701 61.87 99.5434C62.23 99.3101 62.6367 99.1934 63.09 99.1934ZM66.5946 102.013C66.5946 101.453 66.7046 100.963 66.9246 100.543C67.1513 100.117 67.4613 99.7901 67.8546 99.5634C68.2546 99.3301 68.7046 99.2134 69.2046 99.2134C69.7246 99.2134 70.1713 99.3334 70.5446 99.5734C70.9246 99.8134 71.198 100.12 71.3646 100.493V99.2934H72.0646V104.753H71.3646V103.543C71.1913 103.917 70.9146 104.227 70.5346 104.473C70.1613 104.713 69.7146 104.833 69.1946 104.833C68.7013 104.833 68.2546 104.717 67.8546 104.483C67.4613 104.25 67.1513 103.92 66.9246 103.493C66.7046 103.067 66.5946 102.573 66.5946 102.013ZM71.3646 102.023C71.3646 101.583 71.2746 101.197 71.0946 100.863C70.9146 100.53 70.668 100.273 70.3546 100.093C70.048 99.9134 69.708 99.8234 69.3346 99.8234C68.948 99.8234 68.6013 99.9101 68.2946 100.083C67.988 100.257 67.7446 100.51 67.5646 100.843C67.3913 101.17 67.3046 101.56 67.3046 102.013C67.3046 102.46 67.3913 102.853 67.5646 103.193C67.7446 103.527 67.988 103.783 68.2946 103.963C68.6013 104.137 68.948 104.223 69.3346 104.223C69.708 104.223 70.048 104.133 70.3546 103.953C70.668 103.773 70.9146 103.517 71.0946 103.183C71.2746 102.85 71.3646 102.463 71.3646 102.023ZM76.3227 99.1934C76.976 99.1934 77.5094 99.3968 77.9227 99.8034C78.336 100.203 78.5427 100.787 78.5427 101.553V104.753H77.8527V101.633C77.8527 101.04 77.7027 100.587 77.4027 100.273C77.1094 99.9601 76.706 99.8034 76.1927 99.8034C75.666 99.8034 75.246 99.9701 74.9327 100.303C74.6194 100.637 74.4627 101.127 74.4627 101.773V104.753H73.7627V99.2934H74.4627V100.223C74.636 99.8901 74.886 99.6368 75.2127 99.4634C75.5394 99.2834 75.9094 99.1934 76.3227 99.1934ZM81.1008 99.8834V103.273C81.1008 103.607 81.1642 103.837 81.2908 103.963C81.4175 104.09 81.6408 104.153 81.9608 104.153H82.6008V104.753H81.8508C81.3575 104.753 80.9908 104.64 80.7508 104.413C80.5108 104.18 80.3908 103.8 80.3908 103.273V99.8834H79.6308V99.2934H80.3908V97.9234H81.1008V99.2934H82.6008V99.8834H81.1008ZM84.2053 98.2634C84.0653 98.2634 83.9453 98.2134 83.8453 98.1134C83.7453 98.0134 83.6953 97.8901 83.6953 97.7434C83.6953 97.5968 83.7453 97.4768 83.8453 97.3834C83.9453 97.2834 84.0653 97.2334 84.2053 97.2334C84.3453 97.2334 84.4653 97.2834 84.5653 97.3834C84.6653 97.4768 84.7153 97.5968 84.7153 97.7434C84.7153 97.8901 84.6653 98.0134 84.5653 98.1134C84.4653 98.2134 84.3453 98.2634 84.2053 98.2634ZM84.5553 99.2934V104.753H83.8553V99.2934H84.5553ZM85.9204 102.023C85.9204 101.457 86.0338 100.963 86.2604 100.543C86.4871 100.117 86.8004 99.7901 87.2004 99.5634C87.6004 99.3301 88.0571 99.2134 88.5704 99.2134C89.2438 99.2134 89.7971 99.3801 90.2304 99.7134C90.6704 100.047 90.9538 100.5 91.0804 101.073H90.3304C90.2371 100.68 90.0338 100.373 89.7204 100.153C89.4138 99.9268 89.0304 99.8134 88.5704 99.8134C88.2038 99.8134 87.8738 99.8968 87.5804 100.063C87.2871 100.23 87.0538 100.48 86.8804 100.813C86.7138 101.14 86.6304 101.543 86.6304 102.023C86.6304 102.503 86.7138 102.91 86.8804 103.243C87.0538 103.577 87.2871 103.827 87.5804 103.993C87.8738 104.16 88.2038 104.243 88.5704 104.243C89.0304 104.243 89.4138 104.133 89.7204 103.913C90.0338 103.687 90.2371 103.373 90.3304 102.973H91.0804C90.9538 103.533 90.6704 103.983 90.2304 104.323C89.7904 104.663 89.2371 104.833 88.5704 104.833C88.0571 104.833 87.6004 104.72 87.2004 104.493C86.8004 104.26 86.4871 103.933 86.2604 103.513C86.0338 103.087 85.9204 102.59 85.9204 102.023ZM93.1132 103.593L92.0732 106.213H91.5932L92.3332 103.593H93.1132ZM103.976 97.8534V104.753H103.276V99.2434L100.816 104.753H100.306L97.8459 99.2634V104.753H97.1459V97.8534H97.8859L100.556 103.833L103.226 97.8534H103.976ZM110.394 99.2934V104.753H109.694V103.793C109.534 104.133 109.287 104.393 108.954 104.573C108.621 104.753 108.247 104.843 107.834 104.843C107.181 104.843 106.647 104.643 106.234 104.243C105.821 103.837 105.614 103.25 105.614 102.483V99.2934H106.304V102.403C106.304 102.997 106.451 103.45 106.744 103.763C107.044 104.077 107.451 104.233 107.964 104.233C108.491 104.233 108.911 104.067 109.224 103.733C109.537 103.4 109.694 102.91 109.694 102.263V99.2934H110.394ZM112.792 97.3534V104.753H112.092V97.3534H112.792ZM115.387 99.8834V103.273C115.387 103.607 115.45 103.837 115.577 103.963C115.704 104.09 115.927 104.153 116.247 104.153H116.887V104.753H116.137C115.644 104.753 115.277 104.64 115.037 104.413C114.797 104.18 114.677 103.8 114.677 103.273V99.8834H113.917V99.2934H114.677V97.9234H115.387V99.2934H116.887V99.8834H115.387ZM118.492 98.2634C118.352 98.2634 118.232 98.2134 118.132 98.1134C118.032 98.0134 117.982 97.8901 117.982 97.7434C117.982 97.5968 118.032 97.4768 118.132 97.3834C118.232 97.2834 118.352 97.2334 118.492 97.2334C118.632 97.2334 118.752 97.2834 118.852 97.3834C118.952 97.4768 119.002 97.5968 119.002 97.7434C119.002 97.8901 118.952 98.0134 118.852 98.1134C118.752 98.2134 118.632 98.2634 118.492 98.2634ZM118.842 99.2934V104.753H118.142V99.2934H118.842ZM127.027 99.1934C127.667 99.1934 128.187 99.3968 128.587 99.8034C128.993 100.203 129.197 100.787 129.197 101.553V104.753H128.507V101.633C128.507 101.04 128.363 100.587 128.077 100.273C127.79 99.9601 127.4 99.8034 126.907 99.8034C126.393 99.8034 125.983 99.9734 125.677 100.313C125.37 100.653 125.217 101.147 125.217 101.793V104.753H124.527V101.633C124.527 101.04 124.383 100.587 124.097 100.273C123.81 99.9601 123.417 99.8034 122.917 99.8034C122.403 99.8034 121.993 99.9734 121.687 100.313C121.38 100.653 121.227 101.147 121.227 101.793V104.753H120.527V99.2934H121.227V100.233C121.4 99.8934 121.647 99.6368 121.967 99.4634C122.287 99.2834 122.643 99.1934 123.037 99.1934C123.51 99.1934 123.923 99.3068 124.277 99.5334C124.637 99.7601 124.897 100.093 125.057 100.533C125.203 100.1 125.453 99.7701 125.807 99.5434C126.167 99.3101 126.573 99.1934 127.027 99.1934ZM135.791 101.743C135.791 101.983 135.785 102.167 135.771 102.293H131.241C131.261 102.707 131.361 103.06 131.541 103.353C131.721 103.647 131.958 103.87 132.251 104.023C132.545 104.17 132.865 104.243 133.211 104.243C133.665 104.243 134.045 104.133 134.351 103.913C134.665 103.693 134.871 103.397 134.971 103.023H135.711C135.578 103.557 135.291 103.993 134.851 104.333C134.418 104.667 133.871 104.833 133.211 104.833C132.698 104.833 132.238 104.72 131.831 104.493C131.425 104.26 131.105 103.933 130.871 103.513C130.645 103.087 130.531 102.59 130.531 102.023C130.531 101.457 130.645 100.96 130.871 100.533C131.098 100.107 131.415 99.7801 131.821 99.5534C132.228 99.3268 132.691 99.2134 133.211 99.2134C133.731 99.2134 134.185 99.3268 134.571 99.5534C134.965 99.7801 135.265 100.087 135.471 100.473C135.685 100.853 135.791 101.277 135.791 101.743ZM135.081 101.723C135.088 101.317 135.005 100.97 134.831 100.683C134.665 100.397 134.435 100.18 134.141 100.033C133.848 99.8868 133.528 99.8134 133.181 99.8134C132.661 99.8134 132.218 99.9801 131.851 100.313C131.485 100.647 131.281 101.117 131.241 101.723H135.081ZM136.852 102.013C136.852 101.453 136.965 100.963 137.192 100.543C137.419 100.117 137.729 99.7901 138.122 99.5634C138.522 99.3301 138.972 99.2134 139.472 99.2134C139.952 99.2134 140.385 99.3301 140.772 99.5634C141.159 99.7968 141.442 100.1 141.622 100.473V97.3534H142.322V104.753H141.622V103.533C141.455 103.913 141.182 104.227 140.802 104.473C140.422 104.713 139.975 104.833 139.462 104.833C138.962 104.833 138.512 104.717 138.112 104.483C137.719 104.25 137.409 103.92 137.182 103.493C136.962 103.067 136.852 102.573 136.852 102.013ZM141.622 102.023C141.622 101.583 141.532 101.197 141.352 100.863C141.172 100.53 140.925 100.273 140.612 100.093C140.305 99.9134 139.965 99.8234 139.592 99.8234C139.205 99.8234 138.859 99.9101 138.552 100.083C138.245 100.257 138.002 100.51 137.822 100.843C137.649 101.17 137.562 101.56 137.562 102.013C137.562 102.46 137.649 102.853 137.822 103.193C138.002 103.527 138.245 103.783 138.552 103.963C138.859 104.137 139.205 104.223 139.592 104.223C139.965 104.223 140.305 104.133 140.612 103.953C140.925 103.773 141.172 103.517 141.352 103.183C141.532 102.85 141.622 102.463 141.622 102.023ZM144.37 98.2634C144.23 98.2634 144.11 98.2134 144.01 98.1134C143.91 98.0134 143.86 97.8901 143.86 97.7434C143.86 97.5968 143.91 97.4768 144.01 97.3834C144.11 97.2834 144.23 97.2334 144.37 97.2334C144.51 97.2334 144.63 97.2834 144.73 97.3834C144.83 97.4768 144.88 97.5968 144.88 97.7434C144.88 97.8901 144.83 98.0134 144.73 98.1134C144.63 98.2134 144.51 98.2634 144.37 98.2634ZM144.72 99.2934V104.753H144.02V99.2934H144.72ZM146.085 102.013C146.085 101.453 146.195 100.963 146.415 100.543C146.642 100.117 146.952 99.7901 147.345 99.5634C147.745 99.3301 148.195 99.2134 148.695 99.2134C149.215 99.2134 149.662 99.3334 150.035 99.5734C150.415 99.8134 150.689 100.12 150.855 100.493V99.2934H151.555V104.753H150.855V103.543C150.682 103.917 150.405 104.227 150.025 104.473C149.652 104.713 149.205 104.833 148.685 104.833C148.192 104.833 147.745 104.717 147.345 104.483C146.952 104.25 146.642 103.92 146.415 103.493C146.195 103.067 146.085 102.573 146.085 102.013ZM150.855 102.023C150.855 101.583 150.765 101.197 150.585 100.863C150.405 100.53 150.159 100.273 149.845 100.093C149.539 99.9134 149.199 99.8234 148.825 99.8234C148.439 99.8234 148.092 99.9101 147.785 100.083C147.479 100.257 147.235 100.51 147.055 100.843C146.882 101.17 146.795 101.56 146.795 102.013C146.795 102.46 146.882 102.853 147.055 103.193C147.235 103.527 147.479 103.783 147.785 103.963C148.092 104.137 148.439 104.223 148.825 104.223C149.199 104.223 149.539 104.133 149.845 103.953C150.159 103.773 150.405 103.517 150.585 103.183C150.765 102.85 150.855 102.463 150.855 102.023Z" fill="white"/>
</g>
<defs>
<filter id="filter0_d_4437_5839" x="0" y="0.878418" width="188" height="148" filterUnits="userSpaceOnUse" color-interpolation-filters="sRGB">
<feFlood flood-opacity="0" result="BackgroundImageFix"/>
<feColorMatrix in="SourceAlpha" type="matrix" values="0 0 0 0 0 0 0 0 0 0 0 0 0 0 0 0 0 0 127 0" result="hardAlpha"/>
<feOffset dx="-4" dy="8"/>
<feGaussianBlur stdDeviation="12"/>
<feComposite in2="hardAlpha" operator="out"/>
<feColorMatrix type="matrix" values="0 0 0 0 0 0 0 0 0 0 0 0 0 0 0 0 0 0 0.125 0"/>
<feBlend mode="normal" in2="BackgroundImageFix" result="effect1_dropShadow_4437_5839"/>
<feBlend mode="normal" in="SourceGraphic" in2="effect1_dropShadow_4437_5839" result="shape"/>
</filter>
<linearGradient id="paint0_linear_4437_5839" x1="28" y1="16.8784" x2="122.595" y2="149.311" gradientUnits="userSpaceOnUse">
<stop offset="0.03" stop-color="#3F3F40"/>
<stop offset="0.97" stop-color="#303030"/>
</linearGradient>
</defs>
</svg>
