<svg width="188" height="149" viewBox="0 0 188 149" fill="none" xmlns="http://www.w3.org/2000/svg">
<g filter="url(#filter0_d_4437_5847)">
<rect x="28" y="16.8784" width="140" height="100" rx="16" fill="url(#paint0_linear_4437_5847)" shape-rendering="crispEdges"/>
<g clip-path="url(#clip0_4437_5847)">
<path d="M118 26.8784H78V66.8784H118V26.8784Z" fill="white"/>
<path fill-rule="evenodd" clip-rule="evenodd" d="M89.2649 38.0854C90.1295 38.7879 90.4539 38.7343 92.0775 38.626L107.384 37.7069C107.708 37.7069 107.439 37.383 107.33 37.3292L104.788 35.4915C104.301 35.1133 103.652 34.6803 102.408 34.7886L87.5873 35.8696C87.0467 35.9232 86.9388 36.1935 87.154 36.4101L89.2649 38.0854ZM90.1839 41.6526V57.7576C90.1839 58.6231 90.6164 58.9469 91.5899 58.8934L108.412 57.92C109.386 57.8665 109.494 57.2711 109.494 56.568V40.5711C109.494 39.8691 109.224 39.4906 108.628 39.5446L91.049 40.5711C90.4002 40.6256 90.1839 40.9501 90.1839 41.6526ZM106.79 42.5165C106.898 43.0034 106.79 43.4898 106.302 43.5446L105.492 43.7061V55.5958C104.788 55.974 104.139 56.1902 103.599 56.1902C102.733 56.1902 102.516 55.9198 101.867 55.1096L96.5658 46.7867V54.8393L98.2435 55.2179C98.2435 55.2179 98.2435 56.1902 96.89 56.1902L93.1587 56.4067C93.0503 56.1902 93.1587 55.6502 93.5371 55.5421L94.5109 55.2722V44.6251L93.1589 44.5167C93.0505 44.0299 93.3205 43.3278 94.0783 43.2734L98.0812 43.0035L103.599 51.4348V43.9763L102.192 43.8148C102.084 43.2196 102.516 42.7874 103.057 42.7338L106.79 42.5165ZM86.3428 34.4105L101.759 33.2752C103.652 33.1128 104.14 33.2216 105.329 34.0859L110.251 37.5447C111.063 38.1395 111.333 38.3015 111.333 38.9498V57.92C111.333 59.1089 110.9 59.812 109.386 59.9196L91.4828 61.0007C90.3461 61.0549 89.8051 60.8929 89.2098 60.1358L85.5859 55.4339C84.9366 54.5684 84.6665 53.9209 84.6665 53.1633V36.3014C84.6665 35.3291 85.0997 34.5181 86.3428 34.4105Z" fill="black"/>
</g>
<rect x="78.5" y="27.3784" width="39" height="39" rx="5.5" stroke="black" stroke-opacity="0.1"/>
<path d="M85.78 84.8784H83.728L80.296 79.6824V84.8784H78.244V76.4544H80.296L83.728 81.6744V76.4544H85.78V84.8784ZM90.3154 84.9744C89.6594 84.9744 89.0674 84.8344 88.5394 84.5544C88.0194 84.2744 87.6074 83.8744 87.3034 83.3544C87.0074 82.8344 86.8594 82.2264 86.8594 81.5304C86.8594 80.8424 87.0114 80.2384 87.3154 79.7184C87.6194 79.1904 88.0354 78.7864 88.5634 78.5064C89.0914 78.2264 89.6834 78.0864 90.3394 78.0864C90.9954 78.0864 91.5874 78.2264 92.1154 78.5064C92.6434 78.7864 93.0594 79.1904 93.3634 79.7184C93.6674 80.2384 93.8194 80.8424 93.8194 81.5304C93.8194 82.2184 93.6634 82.8264 93.3514 83.3544C93.0474 83.8744 92.6274 84.2744 92.0914 84.5544C91.5634 84.8344 90.9714 84.9744 90.3154 84.9744ZM90.3154 83.1984C90.7074 83.1984 91.0394 83.0544 91.3114 82.7664C91.5914 82.4784 91.7314 82.0664 91.7314 81.5304C91.7314 80.9944 91.5954 80.5824 91.3234 80.2944C91.0594 80.0064 90.7314 79.8624 90.3394 79.8624C89.9394 79.8624 89.6074 80.0064 89.3434 80.2944C89.0794 80.5744 88.9474 80.9864 88.9474 81.5304C88.9474 82.0664 89.0754 82.4784 89.3314 82.7664C89.5954 83.0544 89.9234 83.1984 90.3154 83.1984ZM98.6401 83.1384V84.8784H97.5961C96.8521 84.8784 96.2721 84.6984 95.8561 84.3384C95.4401 83.9704 95.2321 83.3744 95.2321 82.5504V79.8864H94.4161V78.1824H95.2321V76.5504H97.2841V78.1824H98.6281V79.8864H97.2841V82.5744C97.2841 82.7744 97.3321 82.9184 97.4281 83.0064C97.5241 83.0944 97.6841 83.1384 97.9081 83.1384H98.6401ZM100.815 77.4864C100.455 77.4864 100.159 77.3824 99.9271 77.1744C99.7031 76.9584 99.5911 76.6944 99.5911 76.3824C99.5911 76.0624 99.7031 75.7984 99.9271 75.5904C100.159 75.3744 100.455 75.2664 100.815 75.2664C101.167 75.2664 101.455 75.3744 101.679 75.5904C101.911 75.7984 102.027 76.0624 102.027 76.3824C102.027 76.6944 101.911 76.9584 101.679 77.1744C101.455 77.3824 101.167 77.4864 100.815 77.4864ZM101.835 78.1824V84.8784H99.7831V78.1824H101.835ZM106.37 84.9744C105.714 84.9744 105.122 84.8344 104.594 84.5544C104.074 84.2744 103.662 83.8744 103.358 83.3544C103.062 82.8344 102.914 82.2264 102.914 81.5304C102.914 80.8424 103.066 80.2384 103.37 79.7184C103.674 79.1904 104.09 78.7864 104.618 78.5064C105.146 78.2264 105.738 78.0864 106.394 78.0864C107.05 78.0864 107.642 78.2264 108.17 78.5064C108.698 78.7864 109.114 79.1904 109.418 79.7184C109.722 80.2384 109.874 80.8424 109.874 81.5304C109.874 82.2184 109.718 82.8264 109.406 83.3544C109.102 83.8744 108.682 84.2744 108.146 84.5544C107.618 84.8344 107.026 84.9744 106.37 84.9744ZM106.37 83.1984C106.762 83.1984 107.094 83.0544 107.366 82.7664C107.646 82.4784 107.786 82.0664 107.786 81.5304C107.786 80.9944 107.65 80.5824 107.378 80.2944C107.114 80.0064 106.786 79.8624 106.394 79.8624C105.994 79.8624 105.662 80.0064 105.398 80.2944C105.134 80.5744 105.002 80.9864 105.002 81.5304C105.002 82.0664 105.13 82.4784 105.386 82.7664C105.65 83.0544 105.978 83.1984 106.37 83.1984ZM115.043 78.1104C115.827 78.1104 116.451 78.3664 116.915 78.8784C117.387 79.3824 117.623 80.0784 117.623 80.9664V84.8784H115.583V81.2424C115.583 80.7944 115.467 80.4464 115.235 80.1984C115.003 79.9504 114.691 79.8264 114.299 79.8264C113.907 79.8264 113.595 79.9504 113.363 80.1984C113.131 80.4464 113.015 80.7944 113.015 81.2424V84.8784H110.963V78.1824H113.015V79.0704C113.223 78.7744 113.503 78.5424 113.855 78.3744C114.207 78.1984 114.603 78.1104 115.043 78.1104Z" fill="white"/>
<path d="M55.2173 93.8884V94.4684H53.2773V100.878H52.5773V94.4684H50.6273V93.8884H55.2173ZM56.1027 98.1384C56.1027 97.5784 56.2127 97.0884 56.4327 96.6684C56.6593 96.2418 56.9693 95.9151 57.3627 95.6884C57.7627 95.4551 58.2127 95.3384 58.7127 95.3384C59.2327 95.3384 59.6793 95.4584 60.0527 95.6984C60.4327 95.9384 60.706 96.2451 60.8727 96.6184V95.4184H61.5727V100.878H60.8727V99.6684C60.6993 100.042 60.4227 100.352 60.0427 100.598C59.6693 100.838 59.2227 100.958 58.7027 100.958C58.2093 100.958 57.7627 100.842 57.3627 100.608C56.9693 100.375 56.6593 100.045 56.4327 99.6184C56.2127 99.1918 56.1027 98.6984 56.1027 98.1384ZM60.8727 98.1484C60.8727 97.7084 60.7827 97.3218 60.6027 96.9884C60.4227 96.6551 60.176 96.3984 59.8627 96.2184C59.556 96.0384 59.216 95.9484 58.8427 95.9484C58.456 95.9484 58.1093 96.0351 57.8027 96.2084C57.496 96.3818 57.2527 96.6351 57.0727 96.9684C56.8993 97.2951 56.8127 97.6851 56.8127 98.1384C56.8127 98.5851 56.8993 98.9784 57.0727 99.3184C57.2527 99.6518 57.496 99.9084 57.8027 100.088C58.1093 100.262 58.456 100.348 58.8427 100.348C59.216 100.348 59.556 100.258 59.8627 100.078C60.176 99.8984 60.4227 99.6418 60.6027 99.3084C60.7827 98.9751 60.8727 98.5884 60.8727 98.1484ZM65.1507 100.958C64.524 100.958 64.0107 100.815 63.6107 100.528C63.2174 100.235 62.9974 99.8384 62.9507 99.3384H63.6707C63.704 99.6451 63.8474 99.8951 64.1007 100.088C64.3607 100.275 64.7074 100.368 65.1407 100.368C65.5207 100.368 65.8174 100.278 66.0307 100.098C66.2507 99.9184 66.3607 99.6951 66.3607 99.4284C66.3607 99.2418 66.3007 99.0884 66.1807 98.9684C66.0607 98.8484 65.9074 98.7551 65.7207 98.6884C65.5407 98.6151 65.294 98.5384 64.9807 98.4584C64.574 98.3518 64.244 98.2451 63.9907 98.1384C63.7374 98.0318 63.5207 97.8751 63.3407 97.6684C63.1674 97.4551 63.0807 97.1718 63.0807 96.8184C63.0807 96.5518 63.1607 96.3051 63.3207 96.0784C63.4807 95.8518 63.7074 95.6718 64.0007 95.5384C64.294 95.4051 64.6274 95.3384 65.0007 95.3384C65.5874 95.3384 66.0607 95.4884 66.4207 95.7884C66.7807 96.0818 66.974 96.4884 67.0007 97.0084H66.3007C66.2807 96.6884 66.154 96.4318 65.9207 96.2384C65.694 96.0384 65.3807 95.9384 64.9807 95.9384C64.6274 95.9384 64.3407 96.0218 64.1207 96.1884C63.9007 96.3551 63.7907 96.5618 63.7907 96.8084C63.7907 97.0218 63.854 97.1984 63.9807 97.3384C64.114 97.4718 64.2774 97.5784 64.4707 97.6584C64.664 97.7318 64.924 97.8151 65.2507 97.9084C65.644 98.0151 65.9574 98.1184 66.1907 98.2184C66.424 98.3184 66.624 98.4651 66.7907 98.6584C66.9574 98.8518 67.044 99.1084 67.0507 99.4284C67.0507 99.7218 66.9707 99.9851 66.8107 100.218C66.6507 100.445 66.4274 100.625 66.1407 100.758C65.854 100.892 65.524 100.958 65.1507 100.958ZM71.4184 100.878L69.1684 98.4284V100.878H68.4684V93.4784H69.1684V97.8584L71.3684 95.4184H72.3484L69.7584 98.1384L72.3684 100.878H71.4184ZM82.7172 95.3184C83.3572 95.3184 83.8772 95.5218 84.2772 95.9284C84.6839 96.3284 84.8872 96.9118 84.8872 97.6784V100.878H84.1972V97.7584C84.1972 97.1651 84.0539 96.7118 83.7672 96.3984C83.4805 96.0851 83.0905 95.9284 82.5972 95.9284C82.0839 95.9284 81.6739 96.0984 81.3672 96.4384C81.0605 96.7784 80.9072 97.2718 80.9072 97.9184V100.878H80.2172V97.7584C80.2172 97.1651 80.0739 96.7118 79.7872 96.3984C79.5005 96.0851 79.1072 95.9284 78.6072 95.9284C78.0939 95.9284 77.6839 96.0984 77.3772 96.4384C77.0705 96.7784 76.9172 97.2718 76.9172 97.9184V100.878H76.2172V95.4184H76.9172V96.3584C77.0905 96.0184 77.3372 95.7618 77.6572 95.5884C77.9772 95.4084 78.3339 95.3184 78.7272 95.3184C79.2005 95.3184 79.6139 95.4318 79.9672 95.6584C80.3272 95.8851 80.5872 96.2184 80.7472 96.6584C80.8939 96.2251 81.1439 95.8951 81.4972 95.6684C81.8572 95.4351 82.2639 95.3184 82.7172 95.3184ZM86.2218 98.1384C86.2218 97.5784 86.3318 97.0884 86.5518 96.6684C86.7785 96.2418 87.0885 95.9151 87.4818 95.6884C87.8818 95.4551 88.3318 95.3384 88.8318 95.3384C89.3518 95.3384 89.7985 95.4584 90.1718 95.6984C90.5518 95.9384 90.8251 96.2451 90.9918 96.6184V95.4184H91.6918V100.878H90.9918V99.6684C90.8185 100.042 90.5418 100.352 90.1618 100.598C89.7885 100.838 89.3418 100.958 88.8218 100.958C88.3285 100.958 87.8818 100.842 87.4818 100.608C87.0885 100.375 86.7785 100.045 86.5518 99.6184C86.3318 99.1918 86.2218 98.6984 86.2218 98.1384ZM90.9918 98.1484C90.9918 97.7084 90.9018 97.3218 90.7218 96.9884C90.5418 96.6551 90.2951 96.3984 89.9818 96.2184C89.6751 96.0384 89.3351 95.9484 88.9618 95.9484C88.5751 95.9484 88.2285 96.0351 87.9218 96.2084C87.6151 96.3818 87.3718 96.6351 87.1918 96.9684C87.0185 97.2951 86.9318 97.6851 86.9318 98.1384C86.9318 98.5851 87.0185 98.9784 87.1918 99.3184C87.3718 99.6518 87.6151 99.9084 87.9218 100.088C88.2285 100.262 88.5751 100.348 88.9618 100.348C89.3351 100.348 89.6751 100.258 89.9818 100.078C90.2951 99.8984 90.5418 99.6418 90.7218 99.3084C90.9018 98.9751 90.9918 98.5884 90.9918 98.1484ZM95.9498 95.3184C96.6032 95.3184 97.1365 95.5218 97.5498 95.9284C97.9632 96.3284 98.1698 96.9118 98.1698 97.6784V100.878H97.4798V97.7584C97.4798 97.1651 97.3298 96.7118 97.0298 96.3984C96.7365 96.0851 96.3332 95.9284 95.8198 95.9284C95.2932 95.9284 94.8732 96.0951 94.5598 96.4284C94.2465 96.7618 94.0898 97.2518 94.0898 97.8984V100.878H93.3898V95.4184H94.0898V96.3484C94.2632 96.0151 94.5132 95.7618 94.8398 95.5884C95.1665 95.4084 95.5365 95.3184 95.9498 95.3184ZM99.498 98.1384C99.498 97.5784 99.608 97.0884 99.828 96.6684C100.055 96.2418 100.365 95.9151 100.758 95.6884C101.158 95.4551 101.608 95.3384 102.108 95.3384C102.628 95.3384 103.075 95.4584 103.448 95.6984C103.828 95.9384 104.101 96.2451 104.268 96.6184V95.4184H104.968V100.878H104.268V99.6684C104.095 100.042 103.818 100.352 103.438 100.598C103.065 100.838 102.618 100.958 102.098 100.958C101.605 100.958 101.158 100.842 100.758 100.608C100.365 100.375 100.055 100.045 99.828 99.6184C99.608 99.1918 99.498 98.6984 99.498 98.1384ZM104.268 98.1484C104.268 97.7084 104.178 97.3218 103.998 96.9884C103.818 96.6551 103.571 96.3984 103.258 96.2184C102.951 96.0384 102.611 95.9484 102.238 95.9484C101.851 95.9484 101.505 96.0351 101.198 96.2084C100.891 96.3818 100.648 96.6351 100.468 96.9684C100.295 97.2951 100.208 97.6851 100.208 98.1384C100.208 98.5851 100.295 98.9784 100.468 99.3184C100.648 99.6518 100.891 99.9084 101.198 100.088C101.505 100.262 101.851 100.348 102.238 100.348C102.611 100.348 102.951 100.258 103.258 100.078C103.571 99.8984 103.818 99.6418 103.998 99.3084C104.178 98.9751 104.268 98.5884 104.268 98.1484ZM108.956 95.3384C109.469 95.3384 109.916 95.4584 110.296 95.6984C110.676 95.9384 110.949 96.2418 111.116 96.6084V95.4184H111.816V101.018C111.816 101.518 111.706 101.962 111.486 102.348C111.273 102.735 110.973 103.032 110.586 103.238C110.199 103.452 109.759 103.558 109.266 103.558C108.566 103.558 107.983 103.392 107.516 103.058C107.056 102.725 106.769 102.272 106.656 101.698H107.346C107.466 102.078 107.693 102.382 108.026 102.608C108.366 102.835 108.779 102.948 109.266 102.948C109.619 102.948 109.936 102.872 110.216 102.718C110.496 102.572 110.716 102.352 110.876 102.058C111.036 101.765 111.116 101.418 111.116 101.018V99.6684C110.943 100.042 110.666 100.352 110.286 100.598C109.913 100.838 109.469 100.958 108.956 100.958C108.456 100.958 108.006 100.842 107.606 100.608C107.213 100.375 106.903 100.045 106.676 99.6184C106.456 99.1918 106.346 98.6984 106.346 98.1384C106.346 97.5784 106.456 97.0884 106.676 96.6684C106.903 96.2418 107.213 95.9151 107.606 95.6884C108.006 95.4551 108.456 95.3384 108.956 95.3384ZM111.116 98.1484C111.116 97.7084 111.026 97.3218 110.846 96.9884C110.666 96.6551 110.419 96.3984 110.106 96.2184C109.799 96.0384 109.459 95.9484 109.086 95.9484C108.699 95.9484 108.353 96.0351 108.046 96.2084C107.739 96.3818 107.496 96.6351 107.316 96.9684C107.143 97.2951 107.056 97.6851 107.056 98.1384C107.056 98.5851 107.143 98.9784 107.316 99.3184C107.496 99.6518 107.739 99.9084 108.046 100.088C108.353 100.262 108.699 100.348 109.086 100.348C109.459 100.348 109.799 100.258 110.106 100.078C110.419 99.8984 110.666 99.6418 110.846 99.3084C111.026 98.9751 111.116 98.5884 111.116 98.1484ZM118.454 97.8684C118.454 98.1084 118.447 98.2918 118.434 98.4184H113.904C113.924 98.8318 114.024 99.1851 114.204 99.4784C114.384 99.7718 114.621 99.9951 114.914 100.148C115.207 100.295 115.527 100.368 115.874 100.368C116.327 100.368 116.707 100.258 117.014 100.038C117.327 99.8184 117.534 99.5218 117.634 99.1484H118.374C118.241 99.6818 117.954 100.118 117.514 100.458C117.081 100.792 116.534 100.958 115.874 100.958C115.361 100.958 114.901 100.845 114.494 100.618C114.087 100.385 113.767 100.058 113.534 99.6384C113.307 99.2118 113.194 98.7151 113.194 98.1484C113.194 97.5818 113.307 97.0851 113.534 96.6584C113.761 96.2318 114.077 95.9051 114.484 95.6784C114.891 95.4518 115.354 95.3384 115.874 95.3384C116.394 95.3384 116.847 95.4518 117.234 95.6784C117.627 95.9051 117.927 96.2118 118.134 96.5984C118.347 96.9784 118.454 97.4018 118.454 97.8684ZM117.744 97.8484C117.751 97.4418 117.667 97.0951 117.494 96.8084C117.327 96.5218 117.097 96.3051 116.804 96.1584C116.511 96.0118 116.191 95.9384 115.844 95.9384C115.324 95.9384 114.881 96.1051 114.514 96.4384C114.147 96.7718 113.944 97.2418 113.904 97.8484H117.744ZM126.335 95.3184C126.975 95.3184 127.495 95.5218 127.895 95.9284C128.301 96.3284 128.505 96.9118 128.505 97.6784V100.878H127.815V97.7584C127.815 97.1651 127.671 96.7118 127.385 96.3984C127.098 96.0851 126.708 95.9284 126.215 95.9284C125.701 95.9284 125.291 96.0984 124.985 96.4384C124.678 96.7784 124.525 97.2718 124.525 97.9184V100.878H123.835V97.7584C123.835 97.1651 123.691 96.7118 123.405 96.3984C123.118 96.0851 122.725 95.9284 122.225 95.9284C121.711 95.9284 121.301 96.0984 120.995 96.4384C120.688 96.7784 120.535 97.2718 120.535 97.9184V100.878H119.835V95.4184H120.535V96.3584C120.708 96.0184 120.955 95.7618 121.275 95.5884C121.595 95.4084 121.951 95.3184 122.345 95.3184C122.818 95.3184 123.231 95.4318 123.585 95.6584C123.945 95.8851 124.205 96.2184 124.365 96.6584C124.511 96.2251 124.761 95.8951 125.115 95.6684C125.475 95.4351 125.881 95.3184 126.335 95.3184ZM135.099 97.8684C135.099 98.1084 135.093 98.2918 135.079 98.4184H130.549C130.569 98.8318 130.669 99.1851 130.849 99.4784C131.029 99.7718 131.266 99.9951 131.559 100.148C131.853 100.295 132.173 100.368 132.519 100.368C132.973 100.368 133.353 100.258 133.659 100.038C133.973 99.8184 134.179 99.5218 134.279 99.1484H135.019C134.886 99.6818 134.599 100.118 134.159 100.458C133.726 100.792 133.179 100.958 132.519 100.958C132.006 100.958 131.546 100.845 131.139 100.618C130.733 100.385 130.413 100.058 130.179 99.6384C129.953 99.2118 129.839 98.7151 129.839 98.1484C129.839 97.5818 129.953 97.0851 130.179 96.6584C130.406 96.2318 130.723 95.9051 131.129 95.6784C131.536 95.4518 131.999 95.3384 132.519 95.3384C133.039 95.3384 133.493 95.4518 133.879 95.6784C134.273 95.9051 134.573 96.2118 134.779 96.5984C134.993 96.9784 135.099 97.4018 135.099 97.8684ZM134.389 97.8484C134.396 97.4418 134.313 97.0951 134.139 96.8084C133.973 96.5218 133.743 96.3051 133.449 96.1584C133.156 96.0118 132.836 95.9384 132.489 95.9384C131.969 95.9384 131.526 96.1051 131.159 96.4384C130.793 96.7718 130.589 97.2418 130.549 97.8484H134.389ZM139.04 95.3184C139.693 95.3184 140.227 95.5218 140.64 95.9284C141.053 96.3284 141.26 96.9118 141.26 97.6784V100.878H140.57V97.7584C140.57 97.1651 140.42 96.7118 140.12 96.3984C139.827 96.0851 139.423 95.9284 138.91 95.9284C138.383 95.9284 137.963 96.0951 137.65 96.4284C137.337 96.7618 137.18 97.2518 137.18 97.8984V100.878H136.48V95.4184H137.18V96.3484C137.353 96.0151 137.603 95.7618 137.93 95.5884C138.257 95.4084 138.627 95.3184 139.04 95.3184ZM143.818 96.0084V99.3984C143.818 99.7318 143.882 99.9618 144.008 100.088C144.135 100.215 144.358 100.278 144.678 100.278H145.318V100.878H144.568C144.075 100.878 143.708 100.765 143.468 100.538C143.228 100.305 143.108 99.9251 143.108 99.3984V96.0084H142.348V95.4184H143.108V94.0484H143.818V95.4184H145.318V96.0084H143.818Z" fill="white"/>
</g>
<defs>
<filter id="filter0_d_4437_5847" x="0" y="0.878418" width="188" height="148" filterUnits="userSpaceOnUse" color-interpolation-filters="sRGB">
<feFlood flood-opacity="0" result="BackgroundImageFix"/>
<feColorMatrix in="SourceAlpha" type="matrix" values="0 0 0 0 0 0 0 0 0 0 0 0 0 0 0 0 0 0 127 0" result="hardAlpha"/>
<feOffset dx="-4" dy="8"/>
<feGaussianBlur stdDeviation="12"/>
<feComposite in2="hardAlpha" operator="out"/>
<feColorMatrix type="matrix" values="0 0 0 0 0 0 0 0 0 0 0 0 0 0 0 0 0 0 0.125 0"/>
<feBlend mode="normal" in2="BackgroundImageFix" result="effect1_dropShadow_4437_5847"/>
<feBlend mode="normal" in="SourceGraphic" in2="effect1_dropShadow_4437_5847" result="shape"/>
</filter>
<linearGradient id="paint0_linear_4437_5847" x1="28" y1="16.8784" x2="122.595" y2="149.311" gradientUnits="userSpaceOnUse">
<stop offset="0.03" stop-color="#3F3F40"/>
<stop offset="0.97" stop-color="#303030"/>
</linearGradient>
<clipPath id="clip0_4437_5847">
<rect x="78" y="26.8784" width="40" height="40" rx="6" fill="white"/>
</clipPath>
</defs>
</svg>
