<svg width="188" height="149" viewBox="0 0 188 149" fill="none" xmlns="http://www.w3.org/2000/svg">
<g filter="url(#filter0_d_4437_5800)">
<rect x="28" y="16.8784" width="140" height="100" rx="16" fill="url(#paint0_linear_4437_5800)" shape-rendering="crispEdges"/>
<g clip-path="url(#clip0_4437_5800)">
<path d="M118 66.8787H78V26.8787H118V66.8787Z" fill="#00C3FF"/>
<path d="M118 66.8789H98.0005V26.8789H118V66.8789Z" fill="#00C3FF"/>
<path d="M115.657 64.5356H80.3442V29.2231H115.657V64.5356Z" fill="#063E8B"/>
<path d="M115.657 64.5356H98.0005V29.2231H115.657V64.5356Z" fill="#063E8B"/>
<path d="M98.0011 62.0653C97.062 62.0653 96.1791 61.6996 95.5151 61.0356L83.8452 49.3656C83.1811 48.7017 82.8154 47.8188 82.8154 46.8797C82.8154 45.9406 83.1811 45.0578 83.8452 44.3938L95.5151 32.7239C96.1791 32.0598 97.062 31.6941 98.0011 31.6941C98.9401 31.6941 99.823 32.0598 100.487 32.7239L112.157 44.3938C112.821 45.0578 113.187 45.9406 113.187 46.8797C113.187 47.8188 112.821 48.7017 112.157 49.3656L100.487 61.0356C99.823 61.6996 98.9401 62.0653 98.0011 62.0653ZM98.0011 34.0378C97.688 34.0378 97.3938 34.1598 97.1724 34.3811L85.5025 46.051C85.2811 46.2724 85.1592 46.5667 85.1592 46.8797C85.1592 47.1928 85.2811 47.487 85.5025 47.7084L97.1724 59.3783C97.3937 59.5996 97.688 59.7216 98.0011 59.7216C98.3141 59.7216 98.6083 59.5996 98.8297 59.3783L110.5 47.7084C110.721 47.4871 110.843 47.1928 110.843 46.8797C110.843 46.5667 110.721 46.2724 110.5 46.051L98.8297 34.3811C98.6083 34.1598 98.3141 34.0378 98.0011 34.0378Z" fill="#CCEFFF"/>
<path d="M112.519 43.9406L100.849 32.2707C100.185 31.6067 99.3023 31.241 98.3633 31.241V33.5847C98.6763 33.5847 98.9705 33.7067 99.192 33.928L110.862 45.5979C111.083 45.8192 111.205 46.1135 111.205 46.4266C111.205 46.7396 111.083 47.0339 110.862 47.2553L99.192 58.9252C98.9706 59.1465 98.6763 59.2685 98.3633 59.2685V61.6122C99.3023 61.6122 100.185 61.2465 100.849 60.5824L112.519 48.9125C113.183 48.2485 113.549 47.3656 113.549 46.4266C113.549 45.4875 113.183 44.6046 112.519 43.9406Z" fill="#CCEFFF"/>
<path d="M102.143 51.2224C100.631 51.2224 99.5552 50.5349 99.1802 50.2099L99.8052 49.1599C100.205 49.4432 101.126 50.0224 102.105 50.0224C102.74 50.0224 103.18 49.7562 103.18 49.2974C103.18 48.7341 102.251 48.5517 101.743 48.4099C101.318 48.2932 99.4052 48.0245 99.4052 46.5849C99.4052 45.1989 100.611 44.4224 101.98 44.4224C103.417 44.4224 104.184 45.0058 104.543 45.3224L103.868 46.3349C103.534 46.0849 102.792 45.6099 101.968 45.6099C101.36 45.6099 100.968 45.8695 100.968 46.3474C100.968 46.9437 102.013 47.1142 102.255 47.1724C102.705 47.2892 104.793 47.6078 104.793 49.1474C104.793 50.9671 102.959 51.2224 102.143 51.2224Z" fill="#00C3FF"/>
<path d="M92.0425 51.0979V42.2229H95.805C97.5271 42.2229 98.63 43.8063 98.63 45.1729C98.63 46.7837 97.4055 48.1229 95.8675 48.1229H93.7675V51.0979H92.0425ZM93.7675 46.6104H95.7675C96.3726 46.6104 96.88 46.0458 96.88 45.1729C96.88 44.4229 96.4247 43.7354 95.6925 43.7354H93.7675V46.6104Z" fill="#00C3FF"/>
<path d="M98.0005 43.3562V47.0452C98.3947 46.5332 98.6303 45.8791 98.6303 45.1727C98.6303 44.556 98.4051 43.8957 98.0005 43.3562Z" fill="#00C3FF"/>
</g>
<path d="M71.664 79.1664C71.664 79.6544 71.552 80.1024 71.328 80.5104C71.104 80.9104 70.76 81.2344 70.296 81.4824C69.832 81.7304 69.256 81.8544 68.568 81.8544H67.296V84.8784H65.244V76.4544H68.568C69.24 76.4544 69.808 76.5704 70.272 76.8024C70.736 77.0344 71.084 77.3544 71.316 77.7624C71.548 78.1704 71.664 78.6384 71.664 79.1664ZM68.412 80.2224C68.804 80.2224 69.096 80.1304 69.288 79.9464C69.48 79.7624 69.576 79.5024 69.576 79.1664C69.576 78.8304 69.48 78.5704 69.288 78.3864C69.096 78.2024 68.804 78.1104 68.412 78.1104H67.296V80.2224H68.412ZM76.8483 78.1104C77.6163 78.1104 78.2323 78.3664 78.6963 78.8784C79.1603 79.3824 79.3923 80.0784 79.3923 80.9664V84.8784H77.3523V81.2424C77.3523 80.7944 77.2363 80.4464 77.0043 80.1984C76.7723 79.9504 76.4603 79.8264 76.0683 79.8264C75.6763 79.8264 75.3643 79.9504 75.1323 80.1984C74.9003 80.4464 74.7843 80.7944 74.7843 81.2424V84.8784H72.7323V75.9984H74.7843V79.0824C74.9923 78.7864 75.2763 78.5504 75.6363 78.3744C75.9963 78.1984 76.4003 78.1104 76.8483 78.1104ZM83.8662 84.9744C83.2102 84.9744 82.6182 84.8344 82.0902 84.5544C81.5702 84.2744 81.1582 83.8744 80.8542 83.3544C80.5582 82.8344 80.4102 82.2264 80.4102 81.5304C80.4102 80.8424 80.5622 80.2384 80.8662 79.7184C81.1702 79.1904 81.5862 78.7864 82.1142 78.5064C82.6422 78.2264 83.2342 78.0864 83.8902 78.0864C84.5462 78.0864 85.1382 78.2264 85.6662 78.5064C86.1942 78.7864 86.6102 79.1904 86.9142 79.7184C87.2182 80.2384 87.3702 80.8424 87.3702 81.5304C87.3702 82.2184 87.2142 82.8264 86.9022 83.3544C86.5982 83.8744 86.1782 84.2744 85.6422 84.5544C85.1142 84.8344 84.5222 84.9744 83.8662 84.9744ZM83.8662 83.1984C84.2582 83.1984 84.5902 83.0544 84.8622 82.7664C85.1422 82.4784 85.2822 82.0664 85.2822 81.5304C85.2822 80.9944 85.1462 80.5824 84.8742 80.2944C84.6102 80.0064 84.2822 79.8624 83.8902 79.8624C83.4902 79.8624 83.1582 80.0064 82.8942 80.2944C82.6302 80.5744 82.4982 80.9864 82.4982 81.5304C82.4982 82.0664 82.6262 82.4784 82.8822 82.7664C83.1462 83.0544 83.4742 83.1984 83.8662 83.1984ZM92.1908 83.1384V84.8784H91.1468C90.4028 84.8784 89.8228 84.6984 89.4068 84.3384C88.9908 83.9704 88.7828 83.3744 88.7828 82.5504V79.8864H87.9668V78.1824H88.7828V76.5504H90.8348V78.1824H92.1788V79.8864H90.8348V82.5744C90.8348 82.7744 90.8828 82.9184 90.9788 83.0064C91.0748 83.0944 91.2348 83.1384 91.4588 83.1384H92.1908ZM96.3818 84.9744C95.7258 84.9744 95.1338 84.8344 94.6058 84.5544C94.0858 84.2744 93.6738 83.8744 93.3698 83.3544C93.0738 82.8344 92.9258 82.2264 92.9258 81.5304C92.9258 80.8424 93.0778 80.2384 93.3818 79.7184C93.6858 79.1904 94.1018 78.7864 94.6298 78.5064C95.1578 78.2264 95.7498 78.0864 96.4058 78.0864C97.0618 78.0864 97.6538 78.2264 98.1818 78.5064C98.7098 78.7864 99.1258 79.1904 99.4298 79.7184C99.7338 80.2384 99.8858 80.8424 99.8858 81.5304C99.8858 82.2184 99.7298 82.8264 99.4178 83.3544C99.1138 83.8744 98.6938 84.2744 98.1578 84.5544C97.6298 84.8344 97.0378 84.9744 96.3818 84.9744ZM96.3818 83.1984C96.7738 83.1984 97.1058 83.0544 97.3778 82.7664C97.6578 82.4784 97.7978 82.0664 97.7978 81.5304C97.7978 80.9944 97.6618 80.5824 97.3898 80.2944C97.1258 80.0064 96.7978 79.8624 96.4058 79.8624C96.0058 79.8624 95.6738 80.0064 95.4098 80.2944C95.1458 80.5744 95.0138 80.9864 95.0138 81.5304C95.0138 82.0664 95.1418 82.4784 95.3978 82.7664C95.6618 83.0544 95.9898 83.1984 96.3818 83.1984ZM103.698 84.9744C103.114 84.9744 102.594 84.8744 102.138 84.6744C101.682 84.4744 101.322 84.2024 101.058 83.8584C100.794 83.5064 100.646 83.1144 100.614 82.6824H102.642C102.666 82.9144 102.774 83.1024 102.966 83.2464C103.158 83.3904 103.394 83.4624 103.674 83.4624C103.93 83.4624 104.126 83.4144 104.262 83.3184C104.406 83.2144 104.478 83.0824 104.478 82.9224C104.478 82.7304 104.378 82.5904 104.178 82.5024C103.978 82.4064 103.654 82.3024 103.206 82.1904C102.726 82.0784 102.326 81.9624 102.006 81.8424C101.686 81.7144 101.41 81.5184 101.178 81.2544C100.946 80.9824 100.83 80.6184 100.83 80.1624C100.83 79.7784 100.934 79.4304 101.142 79.1184C101.358 78.7984 101.67 78.5464 102.078 78.3624C102.494 78.1784 102.986 78.0864 103.554 78.0864C104.394 78.0864 105.054 78.2944 105.534 78.7104C106.022 79.1264 106.302 79.6784 106.374 80.3664H104.478C104.446 80.1344 104.342 79.9504 104.166 79.8144C103.998 79.6784 103.774 79.6104 103.494 79.6104C103.254 79.6104 103.07 79.6584 102.942 79.7544C102.814 79.8424 102.75 79.9664 102.75 80.1264C102.75 80.3184 102.85 80.4624 103.05 80.5584C103.258 80.6544 103.578 80.7504 104.01 80.8464C104.506 80.9744 104.91 81.1024 105.222 81.2304C105.534 81.3504 105.806 81.5504 106.038 81.8304C106.278 82.1024 106.402 82.4704 106.41 82.9344C106.41 83.3264 106.298 83.6784 106.074 83.9904C105.858 84.2944 105.542 84.5344 105.126 84.7104C104.718 84.8864 104.242 84.9744 103.698 84.9744ZM111.782 78.1104C112.55 78.1104 113.166 78.3664 113.63 78.8784C114.094 79.3824 114.326 80.0784 114.326 80.9664V84.8784H112.286V81.2424C112.286 80.7944 112.17 80.4464 111.938 80.1984C111.706 79.9504 111.394 79.8264 111.002 79.8264C110.61 79.8264 110.298 79.9504 110.066 80.1984C109.834 80.4464 109.718 80.7944 109.718 81.2424V84.8784H107.666V75.9984H109.718V79.0824C109.926 78.7864 110.21 78.5504 110.57 78.3744C110.93 78.1984 111.334 78.1104 111.782 78.1104ZM118.8 84.9744C118.144 84.9744 117.552 84.8344 117.024 84.5544C116.504 84.2744 116.092 83.8744 115.788 83.3544C115.492 82.8344 115.344 82.2264 115.344 81.5304C115.344 80.8424 115.496 80.2384 115.8 79.7184C116.104 79.1904 116.52 78.7864 117.048 78.5064C117.576 78.2264 118.168 78.0864 118.824 78.0864C119.48 78.0864 120.072 78.2264 120.6 78.5064C121.128 78.7864 121.544 79.1904 121.848 79.7184C122.152 80.2384 122.304 80.8424 122.304 81.5304C122.304 82.2184 122.148 82.8264 121.836 83.3544C121.532 83.8744 121.112 84.2744 120.576 84.5544C120.048 84.8344 119.456 84.9744 118.8 84.9744ZM118.8 83.1984C119.192 83.1984 119.524 83.0544 119.796 82.7664C120.076 82.4784 120.216 82.0664 120.216 81.5304C120.216 80.9944 120.08 80.5824 119.808 80.2944C119.544 80.0064 119.216 79.8624 118.824 79.8624C118.424 79.8624 118.092 80.0064 117.828 80.2944C117.564 80.5744 117.432 80.9864 117.432 81.5304C117.432 82.0664 117.56 82.4784 117.816 82.7664C118.08 83.0544 118.408 83.1984 118.8 83.1984ZM125.444 79.1304C125.644 78.8184 125.92 78.5664 126.272 78.3744C126.624 78.1824 127.036 78.0864 127.508 78.0864C128.06 78.0864 128.56 78.2264 129.008 78.5064C129.456 78.7864 129.808 79.1864 130.064 79.7064C130.328 80.2264 130.46 80.8304 130.46 81.5184C130.46 82.2064 130.328 82.8144 130.064 83.3424C129.808 83.8624 129.456 84.2664 129.008 84.5544C128.56 84.8344 128.06 84.9744 127.508 84.9744C127.044 84.9744 126.632 84.8784 126.272 84.6864C125.92 84.4944 125.644 84.2464 125.444 83.9424V88.0704H123.392V78.1824H125.444V79.1304ZM128.372 81.5184C128.372 81.0064 128.228 80.6064 127.94 80.3184C127.66 80.0224 127.312 79.8744 126.896 79.8744C126.488 79.8744 126.14 80.0224 125.852 80.3184C125.572 80.6144 125.432 81.0184 125.432 81.5304C125.432 82.0424 125.572 82.4464 125.852 82.7424C126.14 83.0384 126.488 83.1864 126.896 83.1864C127.304 83.1864 127.652 83.0384 127.94 82.7424C128.228 82.4384 128.372 82.0304 128.372 81.5184Z" fill="white"/>
<path d="M57.9703 99.2184H54.7903L54.1803 100.878H53.4403L55.9903 93.9784H56.7803L59.3203 100.878H58.5803L57.9703 99.2184ZM57.7603 98.6384L56.3803 94.8584L55.0003 98.6384H57.7603ZM60.2237 98.1384C60.2237 97.5784 60.3371 97.0884 60.5637 96.6684C60.7904 96.2418 61.1004 95.9151 61.4937 95.6884C61.8937 95.4551 62.3437 95.3384 62.8437 95.3384C63.3237 95.3384 63.7571 95.4551 64.1437 95.6884C64.5304 95.9218 64.8137 96.2251 64.9937 96.5984V93.4784H65.6937V100.878H64.9937V99.6584C64.8271 100.038 64.5537 100.352 64.1737 100.598C63.7937 100.838 63.3471 100.958 62.8337 100.958C62.3337 100.958 61.8837 100.842 61.4837 100.608C61.0904 100.375 60.7804 100.045 60.5537 99.6184C60.3337 99.1918 60.2237 98.6984 60.2237 98.1384ZM64.9937 98.1484C64.9937 97.7084 64.9037 97.3218 64.7237 96.9884C64.5437 96.6551 64.2971 96.3984 63.9837 96.2184C63.6771 96.0384 63.3371 95.9484 62.9637 95.9484C62.5771 95.9484 62.2304 96.0351 61.9237 96.2084C61.6171 96.3818 61.3737 96.6351 61.1937 96.9684C61.0204 97.2951 60.9337 97.6851 60.9337 98.1384C60.9337 98.5851 61.0204 98.9784 61.1937 99.3184C61.3737 99.6518 61.6171 99.9084 61.9237 100.088C62.2304 100.262 62.5771 100.348 62.9637 100.348C63.3371 100.348 63.6771 100.258 63.9837 100.078C64.2971 99.8984 64.5437 99.6418 64.7237 99.3084C64.9037 98.9751 64.9937 98.5884 64.9937 98.1484ZM69.7818 100.958C69.2685 100.958 68.8051 100.845 68.3918 100.618C67.9851 100.385 67.6618 100.058 67.4218 99.6384C67.1885 99.2118 67.0718 98.7151 67.0718 98.1484C67.0718 97.5818 67.1918 97.0884 67.4318 96.6684C67.6718 96.2418 67.9985 95.9151 68.4118 95.6884C68.8251 95.4551 69.2885 95.3384 69.8018 95.3384C70.3151 95.3384 70.7785 95.4551 71.1918 95.6884C71.6118 95.9151 71.9385 96.2418 72.1718 96.6684C72.4118 97.0884 72.5318 97.5818 72.5318 98.1484C72.5318 98.7084 72.4118 99.2018 72.1718 99.6284C71.9318 100.055 71.6018 100.385 71.1818 100.618C70.7618 100.845 70.2951 100.958 69.7818 100.958ZM69.7818 100.348C70.1418 100.348 70.4751 100.268 70.7818 100.108C71.0885 99.9418 71.3351 99.6951 71.5218 99.3684C71.7151 99.0351 71.8118 98.6284 71.8118 98.1484C71.8118 97.6684 71.7185 97.2651 71.5318 96.9384C71.3451 96.6051 71.0985 96.3584 70.7918 96.1984C70.4851 96.0318 70.1518 95.9484 69.7918 95.9484C69.4318 95.9484 69.0985 96.0318 68.7918 96.1984C68.4851 96.3584 68.2385 96.6051 68.0518 96.9384C67.8718 97.2651 67.7818 97.6684 67.7818 98.1484C67.7818 98.6284 67.8718 99.0351 68.0518 99.3684C68.2385 99.6951 68.4818 99.9418 68.7818 100.108C69.0885 100.268 69.4218 100.348 69.7818 100.348ZM74.5978 96.6284C74.7778 96.2484 75.0545 95.9384 75.4278 95.6984C75.8078 95.4584 76.2545 95.3384 76.7678 95.3384C77.2678 95.3384 77.7145 95.4551 78.1078 95.6884C78.5011 95.9151 78.8078 96.2418 79.0278 96.6684C79.2545 97.0884 79.3678 97.5784 79.3678 98.1384C79.3678 98.6984 79.2545 99.1918 79.0278 99.6184C78.8078 100.045 78.4978 100.375 78.0978 100.608C77.7045 100.842 77.2611 100.958 76.7678 100.958C76.2478 100.958 75.7978 100.842 75.4178 100.608C75.0445 100.368 74.7711 100.058 74.5978 99.6784V100.878H73.9078V93.4784H74.5978V96.6284ZM78.6578 98.1384C78.6578 97.6851 78.5678 97.2951 78.3878 96.9684C78.2145 96.6351 77.9745 96.3818 77.6678 96.2084C77.3611 96.0351 77.0145 95.9484 76.6278 95.9484C76.2545 95.9484 75.9111 96.0384 75.5978 96.2184C75.2911 96.3984 75.0478 96.6551 74.8678 96.9884C74.6878 97.3218 74.5978 97.7084 74.5978 98.1484C74.5978 98.5884 74.6878 98.9751 74.8678 99.3084C75.0478 99.6418 75.2911 99.8984 75.5978 100.078C75.9111 100.258 76.2545 100.348 76.6278 100.348C77.0145 100.348 77.3611 100.262 77.6678 100.088C77.9745 99.9084 78.2145 99.6518 78.3878 99.3184C78.5678 98.9784 78.6578 98.5851 78.6578 98.1384ZM85.6959 97.8684C85.6959 98.1084 85.6892 98.2918 85.6759 98.4184H81.1459C81.1659 98.8318 81.2659 99.1851 81.4459 99.4784C81.6259 99.7718 81.8625 99.9951 82.1559 100.148C82.4492 100.295 82.7692 100.368 83.1159 100.368C83.5692 100.368 83.9492 100.258 84.2559 100.038C84.5692 99.8184 84.7759 99.5218 84.8759 99.1484H85.6159C85.4825 99.6818 85.1959 100.118 84.7559 100.458C84.3225 100.792 83.7759 100.958 83.1159 100.958C82.6025 100.958 82.1425 100.845 81.7359 100.618C81.3292 100.385 81.0092 100.058 80.7759 99.6384C80.5492 99.2118 80.4359 98.7151 80.4359 98.1484C80.4359 97.5818 80.5492 97.0851 80.7759 96.6584C81.0025 96.2318 81.3192 95.9051 81.7259 95.6784C82.1325 95.4518 82.5959 95.3384 83.1159 95.3384C83.6359 95.3384 84.0892 95.4518 84.4759 95.6784C84.8692 95.9051 85.1692 96.2118 85.3759 96.5984C85.5892 96.9784 85.6959 97.4018 85.6959 97.8684ZM84.9859 97.8484C84.9925 97.4418 84.9092 97.0951 84.7359 96.8084C84.5692 96.5218 84.3392 96.3051 84.0459 96.1584C83.7525 96.0118 83.4325 95.9384 83.0859 95.9384C82.5659 95.9384 82.1225 96.1051 81.7559 96.4384C81.3892 96.7718 81.1859 97.2418 81.1459 97.8484H84.9859ZM94.3907 95.8984C94.3907 96.4984 94.194 96.9818 93.8007 97.3484C93.4074 97.7151 92.8174 97.8984 92.0307 97.8984H90.6207V100.878H89.9207V93.8884H92.0307C92.8107 93.8884 93.3974 94.0718 93.7907 94.4384C94.1907 94.8051 94.3907 95.2918 94.3907 95.8984ZM92.0307 97.2984C93.124 97.2984 93.6707 96.8318 93.6707 95.8984C93.6707 95.4318 93.5407 95.0784 93.2807 94.8384C93.0207 94.5984 92.604 94.4784 92.0307 94.4784H90.6207V97.2984H92.0307ZM98.2652 95.3184C98.6786 95.3184 99.0486 95.4051 99.3752 95.5784C99.7086 95.7518 99.9686 96.0184 100.155 96.3784C100.349 96.7318 100.445 97.1651 100.445 97.6784V100.878H99.7552V97.7584C99.7552 97.1651 99.6052 96.7118 99.3052 96.3984C99.0119 96.0851 98.6086 95.9284 98.0952 95.9284C97.5686 95.9284 97.1486 96.0951 96.8352 96.4284C96.5219 96.7618 96.3652 97.2518 96.3652 97.8984V100.878H95.6652V93.4784H96.3652V96.3484C96.5386 96.0218 96.7919 95.7684 97.1252 95.5884C97.4652 95.4084 97.8452 95.3184 98.2652 95.3184ZM104.483 100.958C103.97 100.958 103.507 100.845 103.093 100.618C102.687 100.385 102.363 100.058 102.123 99.6384C101.89 99.2118 101.773 98.7151 101.773 98.1484C101.773 97.5818 101.893 97.0884 102.133 96.6684C102.373 96.2418 102.7 95.9151 103.113 95.6884C103.527 95.4551 103.99 95.3384 104.503 95.3384C105.017 95.3384 105.48 95.4551 105.893 95.6884C106.313 95.9151 106.64 96.2418 106.873 96.6684C107.113 97.0884 107.233 97.5818 107.233 98.1484C107.233 98.7084 107.113 99.2018 106.873 99.6284C106.633 100.055 106.303 100.385 105.883 100.618C105.463 100.845 104.997 100.958 104.483 100.958ZM104.483 100.348C104.843 100.348 105.177 100.268 105.483 100.108C105.79 99.9418 106.037 99.6951 106.223 99.3684C106.417 99.0351 106.513 98.6284 106.513 98.1484C106.513 97.6684 106.42 97.2651 106.233 96.9384C106.047 96.6051 105.8 96.3584 105.493 96.1984C105.187 96.0318 104.853 95.9484 104.493 95.9484C104.133 95.9484 103.8 96.0318 103.493 96.1984C103.187 96.3584 102.94 96.6051 102.753 96.9384C102.573 97.2651 102.483 97.6684 102.483 98.1484C102.483 98.6284 102.573 99.0351 102.753 99.3684C102.94 99.6951 103.183 99.9418 103.483 100.108C103.79 100.268 104.123 100.348 104.483 100.348ZM109.519 96.0084V99.3984C109.519 99.7318 109.583 99.9618 109.709 100.088C109.836 100.215 110.059 100.278 110.379 100.278H111.019V100.878H110.269C109.776 100.878 109.409 100.765 109.169 100.538C108.929 100.305 108.809 99.9251 108.809 99.3984V96.0084H108.049V95.4184H108.809V94.0484H109.519V95.4184H111.019V96.0084H109.519ZM114.664 100.958C114.15 100.958 113.687 100.845 113.274 100.618C112.867 100.385 112.544 100.058 112.304 99.6384C112.07 99.2118 111.954 98.7151 111.954 98.1484C111.954 97.5818 112.074 97.0884 112.314 96.6684C112.554 96.2418 112.88 95.9151 113.294 95.6884C113.707 95.4551 114.17 95.3384 114.684 95.3384C115.197 95.3384 115.66 95.4551 116.074 95.6884C116.494 95.9151 116.82 96.2418 117.054 96.6684C117.294 97.0884 117.414 97.5818 117.414 98.1484C117.414 98.7084 117.294 99.2018 117.054 99.6284C116.814 100.055 116.484 100.385 116.064 100.618C115.644 100.845 115.177 100.958 114.664 100.958ZM114.664 100.348C115.024 100.348 115.357 100.268 115.664 100.108C115.97 99.9418 116.217 99.6951 116.404 99.3684C116.597 99.0351 116.694 98.6284 116.694 98.1484C116.694 97.6684 116.6 97.2651 116.414 96.9384C116.227 96.6051 115.98 96.3584 115.674 96.1984C115.367 96.0318 115.034 95.9484 114.674 95.9484C114.314 95.9484 113.98 96.0318 113.674 96.1984C113.367 96.3584 113.12 96.6051 112.934 96.9384C112.754 97.2651 112.664 97.6684 112.664 98.1484C112.664 98.6284 112.754 99.0351 112.934 99.3684C113.12 99.6951 113.364 99.9418 113.664 100.108C113.97 100.268 114.304 100.348 114.664 100.348ZM120.67 100.958C120.043 100.958 119.53 100.815 119.13 100.528C118.737 100.235 118.517 99.8384 118.47 99.3384H119.19C119.223 99.6451 119.367 99.8951 119.62 100.088C119.88 100.275 120.227 100.368 120.66 100.368C121.04 100.368 121.337 100.278 121.55 100.098C121.77 99.9184 121.88 99.6951 121.88 99.4284C121.88 99.2418 121.82 99.0884 121.7 98.9684C121.58 98.8484 121.427 98.7551 121.24 98.6884C121.06 98.6151 120.813 98.5384 120.5 98.4584C120.093 98.3518 119.763 98.2451 119.51 98.1384C119.257 98.0318 119.04 97.8751 118.86 97.6684C118.687 97.4551 118.6 97.1718 118.6 96.8184C118.6 96.5518 118.68 96.3051 118.84 96.0784C119 95.8518 119.227 95.6718 119.52 95.5384C119.813 95.4051 120.147 95.3384 120.52 95.3384C121.107 95.3384 121.58 95.4884 121.94 95.7884C122.3 96.0818 122.493 96.4884 122.52 97.0084H121.82C121.8 96.6884 121.673 96.4318 121.44 96.2384C121.213 96.0384 120.9 95.9384 120.5 95.9384C120.147 95.9384 119.86 96.0218 119.64 96.1884C119.42 96.3551 119.31 96.5618 119.31 96.8084C119.31 97.0218 119.373 97.1984 119.5 97.3384C119.633 97.4718 119.797 97.5784 119.99 97.6584C120.183 97.7318 120.443 97.8151 120.77 97.9084C121.163 98.0151 121.477 98.1184 121.71 98.2184C121.943 98.3184 122.143 98.4651 122.31 98.6584C122.477 98.8518 122.563 99.1084 122.57 99.4284C122.57 99.7218 122.49 99.9851 122.33 100.218C122.17 100.445 121.947 100.625 121.66 100.758C121.373 100.892 121.043 100.958 120.67 100.958ZM126.588 95.3184C127.001 95.3184 127.371 95.4051 127.698 95.5784C128.031 95.7518 128.291 96.0184 128.478 96.3784C128.671 96.7318 128.768 97.1651 128.768 97.6784V100.878H128.078V97.7584C128.078 97.1651 127.928 96.7118 127.628 96.3984C127.334 96.0851 126.931 95.9284 126.418 95.9284C125.891 95.9284 125.471 96.0951 125.158 96.4284C124.844 96.7618 124.688 97.2518 124.688 97.8984V100.878H123.988V93.4784H124.688V96.3484C124.861 96.0218 125.114 95.7684 125.448 95.5884C125.788 95.4084 126.168 95.3184 126.588 95.3184ZM132.806 100.958C132.292 100.958 131.829 100.845 131.416 100.618C131.009 100.385 130.686 100.058 130.446 99.6384C130.212 99.2118 130.096 98.7151 130.096 98.1484C130.096 97.5818 130.216 97.0884 130.456 96.6684C130.696 96.2418 131.022 95.9151 131.436 95.6884C131.849 95.4551 132.312 95.3384 132.826 95.3384C133.339 95.3384 133.802 95.4551 134.216 95.6884C134.636 95.9151 134.962 96.2418 135.196 96.6684C135.436 97.0884 135.556 97.5818 135.556 98.1484C135.556 98.7084 135.436 99.2018 135.196 99.6284C134.956 100.055 134.626 100.385 134.206 100.618C133.786 100.845 133.319 100.958 132.806 100.958ZM132.806 100.348C133.166 100.348 133.499 100.268 133.806 100.108C134.112 99.9418 134.359 99.6951 134.546 99.3684C134.739 99.0351 134.836 98.6284 134.836 98.1484C134.836 97.6684 134.742 97.2651 134.556 96.9384C134.369 96.6051 134.122 96.3584 133.816 96.1984C133.509 96.0318 133.176 95.9484 132.816 95.9484C132.456 95.9484 132.122 96.0318 131.816 96.1984C131.509 96.3584 131.262 96.6051 131.076 96.9384C130.896 97.2651 130.806 97.6684 130.806 98.1484C130.806 98.6284 130.896 99.0351 131.076 99.3684C131.262 99.6951 131.506 99.9418 131.806 100.108C132.112 100.268 132.446 100.348 132.806 100.348ZM137.622 96.6184C137.795 96.2518 138.068 95.9484 138.442 95.7084C138.822 95.4618 139.272 95.3384 139.792 95.3384C140.285 95.3384 140.728 95.4551 141.122 95.6884C141.522 95.9151 141.832 96.2418 142.052 96.6684C142.278 97.0884 142.392 97.5784 142.392 98.1384C142.392 98.6984 142.278 99.1918 142.052 99.6184C141.832 100.045 141.522 100.375 141.122 100.608C140.728 100.842 140.285 100.958 139.792 100.958C139.278 100.958 138.832 100.838 138.452 100.598C138.072 100.352 137.795 100.045 137.622 99.6784V103.458H136.932V95.4184H137.622V96.6184ZM141.682 98.1384C141.682 97.6851 141.592 97.2951 141.412 96.9684C141.238 96.6351 140.998 96.3818 140.692 96.2084C140.385 96.0351 140.038 95.9484 139.652 95.9484C139.278 95.9484 138.935 96.0384 138.622 96.2184C138.315 96.3984 138.072 96.6551 137.892 96.9884C137.712 97.3218 137.622 97.7084 137.622 98.1484C137.622 98.5884 137.712 98.9751 137.892 99.3084C138.072 99.6418 138.315 99.8984 138.622 100.078C138.935 100.258 139.278 100.348 139.652 100.348C140.038 100.348 140.385 100.262 140.692 100.088C140.998 99.9084 141.238 99.6518 141.412 99.3184C141.592 98.9784 141.682 98.5851 141.682 98.1384Z" fill="white"/>
</g>
<defs>
<filter id="filter0_d_4437_5800" x="0" y="0.878418" width="188" height="148" filterUnits="userSpaceOnUse" color-interpolation-filters="sRGB">
<feFlood flood-opacity="0" result="BackgroundImageFix"/>
<feColorMatrix in="SourceAlpha" type="matrix" values="0 0 0 0 0 0 0 0 0 0 0 0 0 0 0 0 0 0 127 0" result="hardAlpha"/>
<feOffset dx="-4" dy="8"/>
<feGaussianBlur stdDeviation="12"/>
<feComposite in2="hardAlpha" operator="out"/>
<feColorMatrix type="matrix" values="0 0 0 0 0 0 0 0 0 0 0 0 0 0 0 0 0 0 0.125 0"/>
<feBlend mode="normal" in2="BackgroundImageFix" result="effect1_dropShadow_4437_5800"/>
<feBlend mode="normal" in="SourceGraphic" in2="effect1_dropShadow_4437_5800" result="shape"/>
</filter>
<linearGradient id="paint0_linear_4437_5800" x1="28" y1="16.8784" x2="122.595" y2="149.311" gradientUnits="userSpaceOnUse">
<stop offset="0.03" stop-color="#3F3F40"/>
<stop offset="0.97" stop-color="#303030"/>
</linearGradient>
<clipPath id="clip0_4437_5800">
<rect width="40" height="40" fill="white" transform="translate(78 26.8784)"/>
</clipPath>
</defs>
</svg>
