<svg width="188" height="149" viewBox="0 0 188 149" fill="none" xmlns="http://www.w3.org/2000/svg">
<g filter="url(#filter0_d_4437_5855)">
<rect x="28" y="16.8784" width="140" height="100" rx="16" fill="url(#paint0_linear_4437_5855)" shape-rendering="crispEdges"/>
<path fill-rule="evenodd" clip-rule="evenodd" d="M88.1363 32.8661L98 31.8784L107.864 32.8661L115.5 42.5759L98 61.8783L80.5 42.5759L88.1363 32.8661Z" fill="#FDB300"/>
<path d="M87.5883 42.5759L97.9999 61.8784L80.5 42.5759H87.5883ZM108.412 42.5759L98.0001 61.8784L115.5 42.5759" fill="#EA6C00"/>
<path fill-rule="evenodd" clip-rule="evenodd" d="M87.5884 42.5759H108.412L98 61.8784" fill="#FDAD00"/>
<path d="M98 31.8784L88.1364 32.866L87.5884 42.5758L98 31.8784ZM98.0001 31.8784L107.864 32.866L108.412 42.5758" fill="#FDD231"/>
<path d="M115.5 42.5758L107.864 32.866L108.412 42.5758H115.5ZM80.5 42.5758L88.1363 32.866L87.5883 42.5758" fill="#FDAD00"/>
<path fill-rule="evenodd" clip-rule="evenodd" d="M98 31.8784L87.5884 42.5758H108.412" fill="#FEEEB7"/>
<path d="M80.292 84.9624C79.676 84.9624 79.124 84.8624 78.636 84.6624C78.148 84.4624 77.756 84.1664 77.46 83.7744C77.172 83.3824 77.02 82.9104 77.004 82.3584H79.188C79.22 82.6704 79.328 82.9104 79.512 83.0784C79.696 83.2384 79.936 83.3184 80.232 83.3184C80.536 83.3184 80.776 83.2504 80.952 83.1144C81.128 82.9704 81.216 82.7744 81.216 82.5264C81.216 82.3184 81.144 82.1464 81 82.0104C80.864 81.8744 80.692 81.7624 80.484 81.6744C80.284 81.5864 79.996 81.4864 79.62 81.3744C79.076 81.2064 78.632 81.0384 78.288 80.8704C77.944 80.7024 77.648 80.4544 77.4 80.1264C77.152 79.7984 77.028 79.3704 77.028 78.8424C77.028 78.0584 77.312 77.4464 77.88 77.0064C78.448 76.5584 79.188 76.3344 80.1 76.3344C81.028 76.3344 81.776 76.5584 82.344 77.0064C82.912 77.4464 83.216 78.0624 83.256 78.8544H81.036C81.02 78.5824 80.92 78.3704 80.736 78.2184C80.552 78.0584 80.316 77.9784 80.028 77.9784C79.78 77.9784 79.58 78.0464 79.428 78.1824C79.276 78.3104 79.2 78.4984 79.2 78.7464C79.2 79.0184 79.328 79.2304 79.584 79.3824C79.84 79.5344 80.24 79.6984 80.784 79.8744C81.328 80.0584 81.768 80.2344 82.104 80.4024C82.448 80.5704 82.744 80.8144 82.992 81.1344C83.24 81.4544 83.364 81.8664 83.364 82.3704C83.364 82.8504 83.24 83.2864 82.992 83.6784C82.752 84.0704 82.4 84.3824 81.936 84.6144C81.472 84.8464 80.924 84.9624 80.292 84.9624ZM88.7188 84.8784L86.6788 82.0704V84.8784H84.6268V75.9984H86.6788V80.9064L88.7068 78.1824H91.2388L88.4548 81.5424L91.2628 84.8784H88.7188ZM98.3568 81.4224C98.3568 81.6144 98.3448 81.8144 98.3208 82.0224H93.6768C93.7088 82.4384 93.8408 82.7584 94.0728 82.9824C94.3128 83.1984 94.6048 83.3064 94.9488 83.3064C95.4608 83.3064 95.8168 83.0904 96.0168 82.6584H98.2008C98.0888 83.0984 97.8848 83.4944 97.5888 83.8464C97.3008 84.1984 96.9368 84.4744 96.4968 84.6744C96.0568 84.8744 95.5648 84.9744 95.0208 84.9744C94.3648 84.9744 93.7808 84.8344 93.2688 84.5544C92.7568 84.2744 92.3568 83.8744 92.0688 83.3544C91.7808 82.8344 91.6368 82.2264 91.6368 81.5304C91.6368 80.8344 91.7768 80.2264 92.0568 79.7064C92.3448 79.1864 92.7448 78.7864 93.2568 78.5064C93.7688 78.2264 94.3568 78.0864 95.0208 78.0864C95.6688 78.0864 96.2448 78.2224 96.7488 78.4944C97.2528 78.7664 97.6448 79.1544 97.9248 79.6584C98.2128 80.1624 98.3568 80.7504 98.3568 81.4224ZM96.2568 80.8824C96.2568 80.5304 96.1368 80.2504 95.8968 80.0424C95.6568 79.8344 95.3568 79.7304 94.9968 79.7304C94.6528 79.7304 94.3608 79.8304 94.1208 80.0304C93.8888 80.2304 93.7448 80.5144 93.6888 80.8824H96.2568ZM103.171 83.1384V84.8784H102.127C101.383 84.8784 100.803 84.6984 100.387 84.3384C99.9713 83.9704 99.7633 83.3744 99.7633 82.5504V79.8864H98.9473V78.1824H99.7633V76.5504H101.815V78.1824H103.159V79.8864H101.815V82.5744C101.815 82.7744 101.863 82.9184 101.959 83.0064C102.055 83.0944 102.215 83.1384 102.439 83.1384H103.171ZM103.906 81.5304C103.906 80.8344 104.046 80.2264 104.326 79.7064C104.614 79.1864 105.01 78.7864 105.514 78.5064C106.026 78.2264 106.61 78.0864 107.266 78.0864C108.106 78.0864 108.806 78.3064 109.366 78.7464C109.934 79.1864 110.306 79.8064 110.482 80.6064H108.298C108.114 80.0944 107.758 79.8384 107.23 79.8384C106.854 79.8384 106.554 79.9864 106.33 80.2824C106.106 80.5704 105.994 80.9864 105.994 81.5304C105.994 82.0744 106.106 82.4944 106.33 82.7904C106.554 83.0784 106.854 83.2224 107.23 83.2224C107.758 83.2224 108.114 82.9664 108.298 82.4544H110.482C110.306 83.2384 109.934 83.8544 109.366 84.3024C108.798 84.7504 108.098 84.9744 107.266 84.9744C106.61 84.9744 106.026 84.8344 105.514 84.5544C105.01 84.2744 104.614 83.8744 104.326 83.3544C104.046 82.8344 103.906 82.2264 103.906 81.5304ZM115.696 78.1104C116.464 78.1104 117.08 78.3664 117.544 78.8784C118.008 79.3824 118.24 80.0784 118.24 80.9664V84.8784H116.2V81.2424C116.2 80.7944 116.084 80.4464 115.852 80.1984C115.62 79.9504 115.308 79.8264 114.916 79.8264C114.524 79.8264 114.212 79.9504 113.98 80.1984C113.748 80.4464 113.632 80.7944 113.632 81.2424V84.8784H111.58V75.9984H113.632V79.0824C113.84 78.7864 114.124 78.5504 114.484 78.3744C114.844 78.1984 115.248 78.1104 115.696 78.1104Z" fill="white"/>
<path d="M46.4718 93.8884V98.2884C46.4718 98.9818 46.6351 99.4951 46.9618 99.8284C47.2951 100.162 47.7484 100.328 48.3218 100.328C48.8951 100.328 49.3418 100.165 49.6618 99.8384C49.9884 99.5051 50.1518 98.9884 50.1518 98.2884V93.8884H50.8518V98.2784C50.8518 99.1651 50.6151 99.8318 50.1418 100.278C49.6751 100.725 49.0651 100.948 48.3118 100.948C47.5584 100.948 46.9451 100.725 46.4718 100.278C46.0051 99.8318 45.7718 99.1651 45.7718 98.2784V93.8884H46.4718ZM53.2131 93.8884V100.878H52.5131V93.8884H53.2131ZM59.8124 93.8884C60.5857 93.8884 61.249 94.0284 61.8024 94.3084C62.3557 94.5884 62.779 94.9918 63.0724 95.5184C63.3657 96.0451 63.5124 96.6718 63.5124 97.3984C63.5124 98.1184 63.3657 98.7418 63.0724 99.2684C62.779 99.7884 62.3557 100.188 61.8024 100.468C61.249 100.742 60.5857 100.878 59.8124 100.878H57.7424V93.8884H59.8124ZM59.8124 100.298C60.7857 100.298 61.5257 100.045 62.0324 99.5384C62.5457 99.0251 62.8024 98.3118 62.8024 97.3984C62.8024 96.4784 62.5457 95.7618 62.0324 95.2484C61.5257 94.7284 60.7857 94.4684 59.8124 94.4684H58.4424V100.298H59.8124ZM69.8429 97.8684C69.8429 98.1084 69.8363 98.2918 69.8229 98.4184H65.2929C65.3129 98.8318 65.4129 99.1851 65.5929 99.4784C65.7729 99.7718 66.0096 99.9951 66.3029 100.148C66.5963 100.295 66.9163 100.368 67.2629 100.368C67.7163 100.368 68.0963 100.258 68.4029 100.038C68.7163 99.8184 68.9229 99.5218 69.0229 99.1484H69.7629C69.6296 99.6818 69.3429 100.118 68.9029 100.458C68.4696 100.792 67.9229 100.958 67.2629 100.958C66.7496 100.958 66.2896 100.845 65.8829 100.618C65.4763 100.385 65.1563 100.058 64.9229 99.6384C64.6963 99.2118 64.5829 98.7151 64.5829 98.1484C64.5829 97.5818 64.6963 97.0851 64.9229 96.6584C65.1496 96.2318 65.4663 95.9051 65.8729 95.6784C66.2796 95.4518 66.7429 95.3384 67.2629 95.3384C67.7829 95.3384 68.2363 95.4518 68.6229 95.6784C69.0163 95.9051 69.3163 96.2118 69.5229 96.5984C69.7363 96.9784 69.8429 97.4018 69.8429 97.8684ZM69.1329 97.8484C69.1396 97.4418 69.0563 97.0951 68.8829 96.8084C68.7163 96.5218 68.4863 96.3051 68.1929 96.1584C67.8996 96.0118 67.5796 95.9384 67.2329 95.9384C66.7129 95.9384 66.2696 96.1051 65.9029 96.4384C65.5363 96.7718 65.3329 97.2418 65.2929 97.8484H69.1329ZM73.1036 100.958C72.477 100.958 71.9636 100.815 71.5636 100.528C71.1703 100.235 70.9503 99.8384 70.9036 99.3384H71.6236C71.657 99.6451 71.8003 99.8951 72.0536 100.088C72.3136 100.275 72.6603 100.368 73.0936 100.368C73.4736 100.368 73.7703 100.278 73.9836 100.098C74.2036 99.9184 74.3136 99.6951 74.3136 99.4284C74.3136 99.2418 74.2536 99.0884 74.1336 98.9684C74.0136 98.8484 73.8603 98.7551 73.6736 98.6884C73.4936 98.6151 73.247 98.5384 72.9336 98.4584C72.527 98.3518 72.197 98.2451 71.9436 98.1384C71.6903 98.0318 71.4736 97.8751 71.2936 97.6684C71.1203 97.4551 71.0336 97.1718 71.0336 96.8184C71.0336 96.5518 71.1136 96.3051 71.2736 96.0784C71.4336 95.8518 71.6603 95.6718 71.9536 95.5384C72.247 95.4051 72.5803 95.3384 72.9536 95.3384C73.5403 95.3384 74.0136 95.4884 74.3736 95.7884C74.7336 96.0818 74.927 96.4884 74.9536 97.0084H74.2536C74.2336 96.6884 74.107 96.4318 73.8736 96.2384C73.647 96.0384 73.3336 95.9384 72.9336 95.9384C72.5803 95.9384 72.2936 96.0218 72.0736 96.1884C71.8536 96.3551 71.7436 96.5618 71.7436 96.8084C71.7436 97.0218 71.807 97.1984 71.9336 97.3384C72.067 97.4718 72.2303 97.5784 72.4236 97.6584C72.617 97.7318 72.877 97.8151 73.2036 97.9084C73.597 98.0151 73.9103 98.1184 74.1436 98.2184C74.377 98.3184 74.577 98.4651 74.7436 98.6584C74.9103 98.8518 74.997 99.1084 75.0036 99.4284C75.0036 99.7218 74.9236 99.9851 74.7636 100.218C74.6036 100.445 74.3803 100.625 74.0936 100.758C73.807 100.892 73.477 100.958 73.1036 100.958ZM76.7713 94.3884C76.6313 94.3884 76.5113 94.3384 76.4113 94.2384C76.3113 94.1384 76.2613 94.0151 76.2613 93.8684C76.2613 93.7218 76.3113 93.6018 76.4113 93.5084C76.5113 93.4084 76.6313 93.3584 76.7713 93.3584C76.9113 93.3584 77.0313 93.4084 77.1313 93.5084C77.2313 93.6018 77.2813 93.7218 77.2813 93.8684C77.2813 94.0151 77.2313 94.1384 77.1313 94.2384C77.0313 94.3384 76.9113 94.3884 76.7713 94.3884ZM77.1213 95.4184V100.878H76.4213V95.4184H77.1213ZM81.0964 95.3384C81.6098 95.3384 82.0564 95.4584 82.4364 95.6984C82.8164 95.9384 83.0898 96.2418 83.2564 96.6084V95.4184H83.9564V101.018C83.9564 101.518 83.8464 101.962 83.6264 102.348C83.4131 102.735 83.1131 103.032 82.7264 103.238C82.3398 103.452 81.8998 103.558 81.4064 103.558C80.7064 103.558 80.1231 103.392 79.6564 103.058C79.1964 102.725 78.9098 102.272 78.7964 101.698H79.4864C79.6064 102.078 79.8331 102.382 80.1664 102.608C80.5064 102.835 80.9198 102.948 81.4064 102.948C81.7598 102.948 82.0764 102.872 82.3564 102.718C82.6364 102.572 82.8564 102.352 83.0164 102.058C83.1764 101.765 83.2564 101.418 83.2564 101.018V99.6684C83.0831 100.042 82.8064 100.352 82.4264 100.598C82.0531 100.838 81.6098 100.958 81.0964 100.958C80.5964 100.958 80.1464 100.842 79.7464 100.608C79.3531 100.375 79.0431 100.045 78.8164 99.6184C78.5964 99.1918 78.4864 98.6984 78.4864 98.1384C78.4864 97.5784 78.5964 97.0884 78.8164 96.6684C79.0431 96.2418 79.3531 95.9151 79.7464 95.6884C80.1464 95.4551 80.5964 95.3384 81.0964 95.3384ZM83.2564 98.1484C83.2564 97.7084 83.1664 97.3218 82.9864 96.9884C82.8064 96.6551 82.5598 96.3984 82.2464 96.2184C81.9398 96.0384 81.5998 95.9484 81.2264 95.9484C80.8398 95.9484 80.4931 96.0351 80.1864 96.2084C79.8798 96.3818 79.6364 96.6351 79.4564 96.9684C79.2831 97.2951 79.1964 97.6851 79.1964 98.1384C79.1964 98.5851 79.2831 98.9784 79.4564 99.3184C79.6364 99.6518 79.8798 99.9084 80.1864 100.088C80.4931 100.262 80.8398 100.348 81.2264 100.348C81.5998 100.348 81.9398 100.258 82.2464 100.078C82.5598 99.8984 82.8064 99.6418 82.9864 99.3084C83.1664 98.9751 83.2564 98.5884 83.2564 98.1484ZM88.2145 95.3184C88.8678 95.3184 89.4012 95.5218 89.8145 95.9284C90.2278 96.3284 90.4345 96.9118 90.4345 97.6784V100.878H89.7445V97.7584C89.7445 97.1651 89.5945 96.7118 89.2945 96.3984C89.0012 96.0851 88.5978 95.9284 88.0845 95.9284C87.5578 95.9284 87.1378 96.0951 86.8245 96.4284C86.5112 96.7618 86.3545 97.2518 86.3545 97.8984V100.878H85.6545V95.4184H86.3545V96.3484C86.5278 96.0151 86.7778 95.7618 87.1045 95.5884C87.4312 95.4084 87.8012 95.3184 88.2145 95.3184ZM92.7226 99.7184L91.6826 102.338H91.2026L91.9426 99.7184H92.7226ZM101.225 95.8984C101.225 96.4984 101.029 96.9818 100.635 97.3484C100.242 97.7151 99.6519 97.8984 98.8653 97.8984H97.4553V100.878H96.7553V93.8884H98.8653C99.6453 93.8884 100.232 94.0718 100.625 94.4384C101.025 94.8051 101.225 95.2918 101.225 95.8984ZM98.8653 97.2984C99.9586 97.2984 100.505 96.8318 100.505 95.8984C100.505 95.4318 100.375 95.0784 100.115 94.8384C99.8553 94.5984 99.4386 94.4784 98.8653 94.4784H97.4553V97.2984H98.8653ZM103.2 96.3884C103.353 96.0484 103.586 95.7851 103.9 95.5984C104.22 95.4118 104.61 95.3184 105.07 95.3184V96.0484H104.88C104.373 96.0484 103.966 96.1851 103.66 96.4584C103.353 96.7318 103.2 97.1884 103.2 97.8284V100.878H102.5V95.4184H103.2V96.3884ZM108.613 100.958C108.1 100.958 107.636 100.845 107.223 100.618C106.816 100.385 106.493 100.058 106.253 99.6384C106.02 99.2118 105.903 98.7151 105.903 98.1484C105.903 97.5818 106.023 97.0884 106.263 96.6684C106.503 96.2418 106.83 95.9151 107.243 95.6884C107.656 95.4551 108.12 95.3384 108.633 95.3384C109.146 95.3384 109.61 95.4551 110.023 95.6884C110.443 95.9151 110.77 96.2418 111.003 96.6684C111.243 97.0884 111.363 97.5818 111.363 98.1484C111.363 98.7084 111.243 99.2018 111.003 99.6284C110.763 100.055 110.433 100.385 110.013 100.618C109.593 100.845 109.126 100.958 108.613 100.958ZM108.613 100.348C108.973 100.348 109.306 100.268 109.613 100.108C109.92 99.9418 110.166 99.6951 110.353 99.3684C110.546 99.0351 110.643 98.6284 110.643 98.1484C110.643 97.6684 110.55 97.2651 110.363 96.9384C110.176 96.6051 109.93 96.3584 109.623 96.1984C109.316 96.0318 108.983 95.9484 108.623 95.9484C108.263 95.9484 107.93 96.0318 107.623 96.1984C107.316 96.3584 107.07 96.6051 106.883 96.9384C106.703 97.2651 106.613 97.6684 106.613 98.1484C106.613 98.6284 106.703 99.0351 106.883 99.3684C107.07 99.6951 107.313 99.9418 107.613 100.108C107.92 100.268 108.253 100.348 108.613 100.348ZM113.649 96.0084V99.3984C113.649 99.7318 113.712 99.9618 113.839 100.088C113.966 100.215 114.189 100.278 114.509 100.278H115.149V100.878H114.399C113.906 100.878 113.539 100.765 113.299 100.538C113.059 100.305 112.939 99.9251 112.939 99.3984V96.0084H112.179V95.4184H112.939V94.0484H113.649V95.4184H115.149V96.0084H113.649ZM118.793 100.958C118.28 100.958 117.817 100.845 117.403 100.618C116.997 100.385 116.673 100.058 116.433 99.6384C116.2 99.2118 116.083 98.7151 116.083 98.1484C116.083 97.5818 116.203 97.0884 116.443 96.6684C116.683 96.2418 117.01 95.9151 117.423 95.6884C117.837 95.4551 118.3 95.3384 118.813 95.3384C119.327 95.3384 119.79 95.4551 120.203 95.6884C120.623 95.9151 120.95 96.2418 121.183 96.6684C121.423 97.0884 121.543 97.5818 121.543 98.1484C121.543 98.7084 121.423 99.2018 121.183 99.6284C120.943 100.055 120.613 100.385 120.193 100.618C119.773 100.845 119.307 100.958 118.793 100.958ZM118.793 100.348C119.153 100.348 119.487 100.268 119.793 100.108C120.1 99.9418 120.347 99.6951 120.533 99.3684C120.727 99.0351 120.823 98.6284 120.823 98.1484C120.823 97.6684 120.73 97.2651 120.543 96.9384C120.357 96.6051 120.11 96.3584 119.803 96.1984C119.497 96.0318 119.163 95.9484 118.803 95.9484C118.443 95.9484 118.11 96.0318 117.803 96.1984C117.497 96.3584 117.25 96.6051 117.063 96.9384C116.883 97.2651 116.793 97.6684 116.793 98.1484C116.793 98.6284 116.883 99.0351 117.063 99.3684C117.25 99.6951 117.493 99.9418 117.793 100.108C118.1 100.268 118.433 100.348 118.793 100.348ZM123.829 96.0084V99.3984C123.829 99.7318 123.893 99.9618 124.019 100.088C124.146 100.215 124.369 100.278 124.689 100.278H125.329V100.878H124.579C124.086 100.878 123.719 100.765 123.479 100.538C123.239 100.305 123.119 99.9251 123.119 99.3984V96.0084H122.359V95.4184H123.119V94.0484H123.829V95.4184H125.329V96.0084H123.829ZM131.084 95.4184L127.844 103.448H127.114L128.174 100.848L125.934 95.4184H126.704L128.564 100.078L130.364 95.4184H131.084ZM132.823 96.6184C132.996 96.2518 133.27 95.9484 133.643 95.7084C134.023 95.4618 134.473 95.3384 134.993 95.3384C135.486 95.3384 135.93 95.4551 136.323 95.6884C136.723 95.9151 137.033 96.2418 137.253 96.6684C137.48 97.0884 137.593 97.5784 137.593 98.1384C137.593 98.6984 137.48 99.1918 137.253 99.6184C137.033 100.045 136.723 100.375 136.323 100.608C135.93 100.842 135.486 100.958 134.993 100.958C134.48 100.958 134.033 100.838 133.653 100.598C133.273 100.352 132.996 100.045 132.823 99.6784V103.458H132.133V95.4184H132.823V96.6184ZM136.883 98.1384C136.883 97.6851 136.793 97.2951 136.613 96.9684C136.44 96.6351 136.2 96.3818 135.893 96.2084C135.586 96.0351 135.24 95.9484 134.853 95.9484C134.48 95.9484 134.136 96.0384 133.823 96.2184C133.516 96.3984 133.273 96.6551 133.093 96.9884C132.913 97.3218 132.823 97.7084 132.823 98.1484C132.823 98.5884 132.913 98.9751 133.093 99.3084C133.273 99.6418 133.516 99.8984 133.823 100.078C134.136 100.258 134.48 100.348 134.853 100.348C135.24 100.348 135.586 100.262 135.893 100.088C136.2 99.9084 136.44 99.6518 136.613 99.3184C136.793 98.9784 136.883 98.5851 136.883 98.1384ZM139.331 94.3884C139.191 94.3884 139.071 94.3384 138.971 94.2384C138.871 94.1384 138.821 94.0151 138.821 93.8684C138.821 93.7218 138.871 93.6018 138.971 93.5084C139.071 93.4084 139.191 93.3584 139.331 93.3584C139.471 93.3584 139.591 93.4084 139.691 93.5084C139.791 93.6018 139.841 93.7218 139.841 93.8684C139.841 94.0151 139.791 94.1384 139.691 94.2384C139.591 94.3384 139.471 94.3884 139.331 94.3884ZM139.681 95.4184V100.878H138.981V95.4184H139.681ZM143.926 95.3184C144.58 95.3184 145.113 95.5218 145.526 95.9284C145.94 96.3284 146.146 96.9118 146.146 97.6784V100.878H145.456V97.7584C145.456 97.1651 145.306 96.7118 145.006 96.3984C144.713 96.0851 144.31 95.9284 143.796 95.9284C143.27 95.9284 142.85 96.0951 142.536 96.4284C142.223 96.7618 142.066 97.2518 142.066 97.8984V100.878H141.366V95.4184H142.066V96.3484C142.24 96.0151 142.49 95.7618 142.816 95.5884C143.143 95.4084 143.513 95.3184 143.926 95.3184ZM150.084 95.3384C150.598 95.3384 151.044 95.4584 151.424 95.6984C151.804 95.9384 152.078 96.2418 152.244 96.6084V95.4184H152.944V101.018C152.944 101.518 152.834 101.962 152.614 102.348C152.401 102.735 152.101 103.032 151.714 103.238C151.328 103.452 150.888 103.558 150.394 103.558C149.694 103.558 149.111 103.392 148.644 103.058C148.184 102.725 147.898 102.272 147.784 101.698H148.474C148.594 102.078 148.821 102.382 149.154 102.608C149.494 102.835 149.908 102.948 150.394 102.948C150.748 102.948 151.064 102.872 151.344 102.718C151.624 102.572 151.844 102.352 152.004 102.058C152.164 101.765 152.244 101.418 152.244 101.018V99.6684C152.071 100.042 151.794 100.352 151.414 100.598C151.041 100.838 150.598 100.958 150.084 100.958C149.584 100.958 149.134 100.842 148.734 100.608C148.341 100.375 148.031 100.045 147.804 99.6184C147.584 99.1918 147.474 98.6984 147.474 98.1384C147.474 97.5784 147.584 97.0884 147.804 96.6684C148.031 96.2418 148.341 95.9151 148.734 95.6884C149.134 95.4551 149.584 95.3384 150.084 95.3384ZM152.244 98.1484C152.244 97.7084 152.154 97.3218 151.974 96.9884C151.794 96.6551 151.548 96.3984 151.234 96.2184C150.928 96.0384 150.588 95.9484 150.214 95.9484C149.828 95.9484 149.481 96.0351 149.174 96.2084C148.868 96.3818 148.624 96.6351 148.444 96.9684C148.271 97.2951 148.184 97.6851 148.184 98.1384C148.184 98.5851 148.271 98.9784 148.444 99.3184C148.624 99.6518 148.868 99.9084 149.174 100.088C149.481 100.262 149.828 100.348 150.214 100.348C150.588 100.348 150.928 100.258 151.234 100.078C151.548 99.8984 151.794 99.6418 151.974 99.3084C152.154 98.9751 152.244 98.5884 152.244 98.1484Z" fill="white"/>
</g>
<defs>
<filter id="filter0_d_4437_5855" x="0" y="0.878418" width="188" height="148" filterUnits="userSpaceOnUse" color-interpolation-filters="sRGB">
<feFlood flood-opacity="0" result="BackgroundImageFix"/>
<feColorMatrix in="SourceAlpha" type="matrix" values="0 0 0 0 0 0 0 0 0 0 0 0 0 0 0 0 0 0 127 0" result="hardAlpha"/>
<feOffset dx="-4" dy="8"/>
<feGaussianBlur stdDeviation="12"/>
<feComposite in2="hardAlpha" operator="out"/>
<feColorMatrix type="matrix" values="0 0 0 0 0 0 0 0 0 0 0 0 0 0 0 0 0 0 0.125 0"/>
<feBlend mode="normal" in2="BackgroundImageFix" result="effect1_dropShadow_4437_5855"/>
<feBlend mode="normal" in="SourceGraphic" in2="effect1_dropShadow_4437_5855" result="shape"/>
</filter>
<linearGradient id="paint0_linear_4437_5855" x1="28" y1="16.8784" x2="122.595" y2="149.311" gradientUnits="userSpaceOnUse">
<stop offset="0.03" stop-color="#3F3F40"/>
<stop offset="0.97" stop-color="#303030"/>
</linearGradient>
</defs>
</svg>
