<svg width="188" height="149" viewBox="0 0 188 149" fill="none" xmlns="http://www.w3.org/2000/svg">
<g filter="url(#filter0_d_4437_5788)">
<rect x="28" y="16.8784" width="140" height="100" rx="16" fill="url(#paint0_linear_4437_5788)" shape-rendering="crispEdges"/>
<path d="M112.72 40.5892C112.72 39.976 112.68 39.4069 112.608 38.8764C113.908 41.2488 114.648 43.9716 114.648 46.8678C114.648 53.0133 111.318 58.3787 106.365 61.266L111.453 46.5556C112.404 44.1792 112.72 42.2789 112.72 40.5892Z" fill="white"/>
<path d="M93.2838 62.848L98.2827 48.3249L103.403 62.3527C103.437 62.4353 103.478 62.511 103.522 62.5823C101.791 63.1919 99.9299 63.5267 97.99 63.5267C96.355 63.5267 94.7767 63.2872 93.2838 62.848Z" fill="white"/>
<path d="M107.863 41.4337C108.496 42.5429 109.236 43.9683 109.236 46.0277C109.236 47.453 108.788 49.1391 108.025 51.5189L106.306 56.9642L100.286 39.0576C101.289 39.0051 102.192 38.8994 102.192 38.8994C103.09 38.7933 102.984 37.474 102.086 37.5266C102.086 37.5266 99.388 37.7384 97.646 37.7384C96.0093 37.7384 93.2588 37.5266 93.2588 37.5266C92.3604 37.474 92.2552 38.8464 93.1532 38.8994C93.1532 38.8994 94.0028 39.0051 94.9003 39.0576L97.4956 46.1685L93.8496 57.1017L87.7836 39.0576C88.7872 39.0051 89.69 38.8994 89.69 38.8994C90.5871 38.7933 90.481 37.474 89.5835 37.5266C89.5835 37.5266 86.8856 37.7384 85.1436 37.7384C84.8311 37.7384 84.4626 37.7306 84.0715 37.7182C87.0502 33.1963 92.17 30.2101 97.99 30.2101C102.327 30.2101 106.275 31.8681 109.239 34.5836C109.216 34.5822 109.193 34.5802 109.169 34.5783C109.121 34.5742 109.073 34.5702 109.024 34.5702C107.387 34.5702 106.226 35.9956 106.226 37.5266C106.226 38.7919 106.899 39.8777 107.665 41.1149C107.731 41.22 107.796 41.3262 107.863 41.4337Z" fill="white"/>
<path d="M90.7206 61.8596C85.1631 59.1597 81.3317 53.4612 81.3317 46.8678C81.3317 44.4527 81.8498 42.16 82.7741 40.0885L90.7206 61.8596Z" fill="white"/>
<path fill-rule="evenodd" clip-rule="evenodd" d="M78 46.8684C78 35.8282 86.9498 26.8784 97.99 26.8784C109.03 26.8784 117.98 35.8282 117.98 46.8684C117.98 57.9086 109.03 66.8584 97.99 66.8584C86.9498 66.8584 78 57.9086 78 46.8684ZM105.304 29.554C102.988 28.5745 100.527 28.0778 97.99 28.0778C95.4528 28.0778 92.992 28.5745 90.6762 29.554C89.5631 30.0248 88.4893 30.6077 87.4848 31.2862C86.4896 31.9586 85.5536 32.7308 84.703 33.5814C83.8524 34.4321 83.0802 35.368 82.4078 36.3632C81.7292 37.3677 81.1464 38.4415 80.6756 39.5546C79.6961 41.8704 79.1994 44.3312 79.1994 46.8684C79.1994 49.4057 79.6961 51.8664 80.6756 54.1822C81.1464 55.2953 81.7292 56.3691 82.4078 57.3736C83.0802 58.3689 83.8524 59.3047 84.703 60.1554C85.5536 61.006 86.4896 61.7782 87.4848 62.4506C88.4893 63.1292 89.5631 63.712 90.6762 64.1828C92.992 65.1624 95.4528 65.659 97.99 65.659C100.527 65.659 102.988 65.1624 105.304 64.1828C106.417 63.712 107.491 63.1292 108.495 62.4506C109.49 61.7782 110.426 61.006 111.277 60.1554C112.128 59.3047 112.9 58.3689 113.572 57.3736C114.251 56.3691 114.834 55.2953 115.304 54.1822C116.284 51.8664 116.781 49.4057 116.781 46.8684C116.781 44.3312 116.284 41.8704 115.304 39.5546C114.834 38.4415 114.251 37.3677 113.572 36.3632C112.9 35.368 112.128 34.4321 111.277 33.5814C110.426 32.7308 109.49 31.9586 108.495 31.2862C107.491 30.6077 106.417 30.0248 105.304 29.554Z" fill="white"/>
<path d="M76.836 76.4544L74.64 84.8784H72.156L70.812 79.3344L69.42 84.8784H66.936L64.8 76.4544H66.996L68.208 82.5864L69.708 76.4544H71.964L73.404 82.5864L74.628 76.4544H76.836ZM80.9131 84.9744C80.2571 84.9744 79.6651 84.8344 79.1371 84.5544C78.6171 84.2744 78.2051 83.8744 77.9011 83.3544C77.6051 82.8344 77.4571 82.2264 77.4571 81.5304C77.4571 80.8424 77.6091 80.2384 77.9131 79.7184C78.2171 79.1904 78.6331 78.7864 79.1611 78.5064C79.6891 78.2264 80.2811 78.0864 80.9371 78.0864C81.5931 78.0864 82.1851 78.2264 82.7131 78.5064C83.2411 78.7864 83.6571 79.1904 83.9611 79.7184C84.2651 80.2384 84.4171 80.8424 84.4171 81.5304C84.4171 82.2184 84.2611 82.8264 83.9491 83.3544C83.6451 83.8744 83.2251 84.2744 82.6891 84.5544C82.1611 84.8344 81.5691 84.9744 80.9131 84.9744ZM80.9131 83.1984C81.3051 83.1984 81.6371 83.0544 81.9091 82.7664C82.1891 82.4784 82.3291 82.0664 82.3291 81.5304C82.3291 80.9944 82.1931 80.5824 81.9211 80.2944C81.6571 80.0064 81.3291 79.8624 80.9371 79.8624C80.5371 79.8624 80.2051 80.0064 79.9411 80.2944C79.6771 80.5744 79.5451 80.9864 79.5451 81.5304C79.5451 82.0664 79.6731 82.4784 79.9291 82.7664C80.1931 83.0544 80.5211 83.1984 80.9131 83.1984ZM87.5577 79.2984C87.7977 78.9304 88.0977 78.6424 88.4577 78.4344C88.8177 78.2184 89.2177 78.1104 89.6577 78.1104V80.2824H89.0937C88.5817 80.2824 88.1977 80.3944 87.9417 80.6184C87.6857 80.8344 87.5577 81.2184 87.5577 81.7704V84.8784H85.5057V78.1824H87.5577V79.2984ZM90.2305 81.5184C90.2305 80.8304 90.3585 80.2264 90.6145 79.7064C90.8785 79.1864 91.2345 78.7864 91.6825 78.5064C92.1305 78.2264 92.6305 78.0864 93.1825 78.0864C93.6225 78.0864 94.0225 78.1784 94.3825 78.3624C94.7505 78.5464 95.0385 78.7944 95.2465 79.1064V75.9984H97.2985V84.8784H95.2465V83.9184C95.0545 84.2384 94.7785 84.4944 94.4185 84.6864C94.0665 84.8784 93.6545 84.9744 93.1825 84.9744C92.6305 84.9744 92.1305 84.8344 91.6825 84.5544C91.2345 84.2664 90.8785 83.8624 90.6145 83.3424C90.3585 82.8144 90.2305 82.2064 90.2305 81.5184ZM95.2465 81.5304C95.2465 81.0184 95.1025 80.6144 94.8145 80.3184C94.5345 80.0224 94.1905 79.8744 93.7825 79.8744C93.3745 79.8744 93.0265 80.0224 92.7385 80.3184C92.4585 80.6064 92.3185 81.0064 92.3185 81.5184C92.3185 82.0304 92.4585 82.4384 92.7385 82.7424C93.0265 83.0384 93.3745 83.1864 93.7825 83.1864C94.1905 83.1864 94.5345 83.0384 94.8145 82.7424C95.1025 82.4464 95.2465 82.0424 95.2465 81.5304ZM105.203 79.1664C105.203 79.6544 105.091 80.1024 104.867 80.5104C104.643 80.9104 104.299 81.2344 103.835 81.4824C103.371 81.7304 102.795 81.8544 102.107 81.8544H100.835V84.8784H98.7831V76.4544H102.107C102.779 76.4544 103.347 76.5704 103.811 76.8024C104.275 77.0344 104.623 77.3544 104.855 77.7624C105.087 78.1704 105.203 78.6384 105.203 79.1664ZM101.951 80.2224C102.343 80.2224 102.635 80.1304 102.827 79.9464C103.019 79.7624 103.115 79.5024 103.115 79.1664C103.115 78.8304 103.019 78.5704 102.827 78.3864C102.635 78.2024 102.343 78.1104 101.951 78.1104H100.835V80.2224H101.951ZM108.323 79.2984C108.563 78.9304 108.863 78.6424 109.223 78.4344C109.583 78.2184 109.983 78.1104 110.423 78.1104V80.2824H109.859C109.347 80.2824 108.963 80.3944 108.707 80.6184C108.451 80.8344 108.323 81.2184 108.323 81.7704V84.8784H106.271V78.1824H108.323V79.2984ZM117.716 81.4224C117.716 81.6144 117.704 81.8144 117.68 82.0224H113.036C113.068 82.4384 113.2 82.7584 113.432 82.9824C113.672 83.1984 113.964 83.3064 114.308 83.3064C114.82 83.3064 115.176 83.0904 115.376 82.6584H117.56C117.448 83.0984 117.244 83.4944 116.948 83.8464C116.66 84.1984 116.296 84.4744 115.856 84.6744C115.416 84.8744 114.924 84.9744 114.38 84.9744C113.724 84.9744 113.14 84.8344 112.628 84.5544C112.116 84.2744 111.716 83.8744 111.428 83.3544C111.14 82.8344 110.996 82.2264 110.996 81.5304C110.996 80.8344 111.136 80.2264 111.416 79.7064C111.704 79.1864 112.104 78.7864 112.616 78.5064C113.128 78.2264 113.716 78.0864 114.38 78.0864C115.028 78.0864 115.604 78.2224 116.108 78.4944C116.612 78.7664 117.004 79.1544 117.284 79.6584C117.572 80.1624 117.716 80.7504 117.716 81.4224ZM115.616 80.8824C115.616 80.5304 115.496 80.2504 115.256 80.0424C115.016 79.8344 114.716 79.7304 114.356 79.7304C114.012 79.7304 113.72 79.8304 113.48 80.0304C113.248 80.2304 113.104 80.5144 113.048 80.8824H115.616ZM121.523 84.9744C120.939 84.9744 120.419 84.8744 119.963 84.6744C119.507 84.4744 119.147 84.2024 118.883 83.8584C118.619 83.5064 118.471 83.1144 118.439 82.6824H120.467C120.491 82.9144 120.599 83.1024 120.791 83.2464C120.983 83.3904 121.219 83.4624 121.499 83.4624C121.755 83.4624 121.951 83.4144 122.087 83.3184C122.231 83.2144 122.303 83.0824 122.303 82.9224C122.303 82.7304 122.203 82.5904 122.003 82.5024C121.803 82.4064 121.479 82.3024 121.031 82.1904C120.551 82.0784 120.151 81.9624 119.831 81.8424C119.511 81.7144 119.235 81.5184 119.003 81.2544C118.771 80.9824 118.655 80.6184 118.655 80.1624C118.655 79.7784 118.759 79.4304 118.967 79.1184C119.183 78.7984 119.495 78.5464 119.903 78.3624C120.319 78.1784 120.811 78.0864 121.379 78.0864C122.219 78.0864 122.879 78.2944 123.359 78.7104C123.847 79.1264 124.127 79.6784 124.199 80.3664H122.303C122.271 80.1344 122.167 79.9504 121.991 79.8144C121.823 79.6784 121.599 79.6104 121.319 79.6104C121.079 79.6104 120.895 79.6584 120.767 79.7544C120.639 79.8424 120.575 79.9664 120.575 80.1264C120.575 80.3184 120.675 80.4624 120.875 80.5584C121.083 80.6544 121.403 80.7504 121.835 80.8464C122.331 80.9744 122.735 81.1024 123.047 81.2304C123.359 81.3504 123.631 81.5504 123.863 81.8304C124.103 82.1024 124.227 82.4704 124.235 82.9344C124.235 83.3264 124.123 83.6784 123.899 83.9904C123.683 84.2944 123.367 84.5344 122.951 84.7104C122.543 84.8864 122.067 84.9744 121.523 84.9744ZM128.214 84.9744C127.63 84.9744 127.11 84.8744 126.654 84.6744C126.198 84.4744 125.838 84.2024 125.574 83.8584C125.31 83.5064 125.162 83.1144 125.13 82.6824H127.158C127.182 82.9144 127.29 83.1024 127.482 83.2464C127.674 83.3904 127.91 83.4624 128.19 83.4624C128.446 83.4624 128.642 83.4144 128.778 83.3184C128.922 83.2144 128.994 83.0824 128.994 82.9224C128.994 82.7304 128.894 82.5904 128.694 82.5024C128.494 82.4064 128.17 82.3024 127.722 82.1904C127.242 82.0784 126.842 81.9624 126.522 81.8424C126.202 81.7144 125.926 81.5184 125.694 81.2544C125.462 80.9824 125.346 80.6184 125.346 80.1624C125.346 79.7784 125.45 79.4304 125.658 79.1184C125.874 78.7984 126.186 78.5464 126.594 78.3624C127.01 78.1784 127.502 78.0864 128.07 78.0864C128.91 78.0864 129.57 78.2944 130.05 78.7104C130.538 79.1264 130.818 79.6784 130.89 80.3664H128.994C128.962 80.1344 128.858 79.9504 128.682 79.8144C128.514 79.6784 128.29 79.6104 128.01 79.6104C127.77 79.6104 127.586 79.6584 127.458 79.7544C127.33 79.8424 127.266 79.9664 127.266 80.1264C127.266 80.3184 127.366 80.4624 127.566 80.5584C127.774 80.6544 128.094 80.7504 128.526 80.8464C129.022 80.9744 129.426 81.1024 129.738 81.2304C130.05 81.3504 130.322 81.5504 130.554 81.8304C130.794 82.1024 130.918 82.4704 130.926 82.9344C130.926 83.3264 130.814 83.6784 130.59 83.9904C130.374 84.2944 130.058 84.5344 129.642 84.7104C129.234 84.8864 128.758 84.9744 128.214 84.9744Z" fill="white"/>
<path d="M53.0447 100.258H56.6147V100.878H52.2247V100.318L55.7447 94.5084H52.2847V93.8884H56.5647V94.4484L53.0447 100.258ZM62.8886 97.8684C62.8886 98.1084 62.882 98.2918 62.8686 98.4184H58.3386C58.3586 98.8318 58.4586 99.1851 58.6386 99.4784C58.8186 99.7718 59.0553 99.9951 59.3486 100.148C59.642 100.295 59.962 100.368 60.3086 100.368C60.762 100.368 61.142 100.258 61.4486 100.038C61.762 99.8184 61.9686 99.5218 62.0686 99.1484H62.8086C62.6753 99.6818 62.3886 100.118 61.9486 100.458C61.5153 100.792 60.9686 100.958 60.3086 100.958C59.7953 100.958 59.3353 100.845 58.9286 100.618C58.522 100.385 58.202 100.058 57.9686 99.6384C57.742 99.2118 57.6286 98.7151 57.6286 98.1484C57.6286 97.5818 57.742 97.0851 57.9686 96.6584C58.1953 96.2318 58.512 95.9051 58.9186 95.6784C59.3253 95.4518 59.7886 95.3384 60.3086 95.3384C60.8286 95.3384 61.282 95.4518 61.6686 95.6784C62.062 95.9051 62.362 96.2118 62.5686 96.5984C62.782 96.9784 62.8886 97.4018 62.8886 97.8684ZM62.1786 97.8484C62.1853 97.4418 62.102 97.0951 61.9286 96.8084C61.762 96.5218 61.532 96.3051 61.2386 96.1584C60.9453 96.0118 60.6253 95.9384 60.2786 95.9384C59.7586 95.9384 59.3153 96.1051 58.9486 96.4384C58.582 96.7718 58.3786 97.2418 58.3386 97.8484H62.1786ZM64.9693 96.3884C65.1227 96.0484 65.356 95.7851 65.6693 95.5984C65.9893 95.4118 66.3793 95.3184 66.8393 95.3184V96.0484H66.6493C66.1427 96.0484 65.736 96.1851 65.4293 96.4584C65.1227 96.7318 64.9693 97.1884 64.9693 97.8284V100.878H64.2693V95.4184H64.9693V96.3884ZM70.3824 100.958C69.8691 100.958 69.4057 100.845 68.9924 100.618C68.5857 100.385 68.2624 100.058 68.0224 99.6384C67.7891 99.2118 67.6724 98.7151 67.6724 98.1484C67.6724 97.5818 67.7924 97.0884 68.0324 96.6684C68.2724 96.2418 68.5991 95.9151 69.0124 95.6884C69.4257 95.4551 69.8891 95.3384 70.4024 95.3384C70.9157 95.3384 71.3791 95.4551 71.7924 95.6884C72.2124 95.9151 72.5391 96.2418 72.7724 96.6684C73.0124 97.0884 73.1324 97.5818 73.1324 98.1484C73.1324 98.7084 73.0124 99.2018 72.7724 99.6284C72.5324 100.055 72.2024 100.385 71.7824 100.618C71.3624 100.845 70.8957 100.958 70.3824 100.958ZM70.3824 100.348C70.7424 100.348 71.0757 100.268 71.3824 100.108C71.6891 99.9418 71.9357 99.6951 72.1224 99.3684C72.3157 99.0351 72.4124 98.6284 72.4124 98.1484C72.4124 97.6684 72.3191 97.2651 72.1324 96.9384C71.9457 96.6051 71.6991 96.3584 71.3924 96.1984C71.0857 96.0318 70.7524 95.9484 70.3924 95.9484C70.0324 95.9484 69.6991 96.0318 69.3924 96.1984C69.0857 96.3584 68.8391 96.6051 68.6524 96.9384C68.4724 97.2651 68.3824 97.6684 68.3824 98.1484C68.3824 98.6284 68.4724 99.0351 68.6524 99.3684C68.8391 99.6951 69.0824 99.9418 69.3824 100.108C69.6891 100.268 70.0224 100.348 70.3824 100.348ZM77.0325 98.1484C77.0325 97.5818 77.1459 97.0884 77.3725 96.6684C77.5992 96.2418 77.9125 95.9151 78.3125 95.6884C78.7125 95.4551 79.1692 95.3384 79.6825 95.3384C80.3559 95.3384 80.9092 95.5051 81.3425 95.8384C81.7825 96.1718 82.0659 96.6251 82.1925 97.1984H81.4425C81.3492 96.8051 81.1459 96.4984 80.8325 96.2784C80.5259 96.0518 80.1425 95.9384 79.6825 95.9384C79.3159 95.9384 78.9859 96.0218 78.6925 96.1884C78.3992 96.3551 78.1659 96.6051 77.9925 96.9384C77.8259 97.2651 77.7425 97.6684 77.7425 98.1484C77.7425 98.6284 77.8259 99.0351 77.9925 99.3684C78.1659 99.7018 78.3992 99.9518 78.6925 100.118C78.9859 100.285 79.3159 100.368 79.6825 100.368C80.1425 100.368 80.5259 100.258 80.8325 100.038C81.1459 99.8118 81.3492 99.4984 81.4425 99.0984H82.1925C82.0659 99.6584 81.7825 100.108 81.3425 100.448C80.9025 100.788 80.3492 100.958 79.6825 100.958C79.1692 100.958 78.7125 100.845 78.3125 100.618C77.9125 100.385 77.5992 100.058 77.3725 99.6384C77.1459 99.2118 77.0325 98.7151 77.0325 98.1484ZM85.9754 100.958C85.462 100.958 84.9987 100.845 84.5854 100.618C84.1787 100.385 83.8554 100.058 83.6154 99.6384C83.382 99.2118 83.2654 98.7151 83.2654 98.1484C83.2654 97.5818 83.3854 97.0884 83.6254 96.6684C83.8654 96.2418 84.192 95.9151 84.6054 95.6884C85.0187 95.4551 85.482 95.3384 85.9954 95.3384C86.5087 95.3384 86.972 95.4551 87.3854 95.6884C87.8054 95.9151 88.132 96.2418 88.3654 96.6684C88.6054 97.0884 88.7254 97.5818 88.7254 98.1484C88.7254 98.7084 88.6054 99.2018 88.3654 99.6284C88.1254 100.055 87.7954 100.385 87.3754 100.618C86.9554 100.845 86.4887 100.958 85.9754 100.958ZM85.9754 100.348C86.3354 100.348 86.6687 100.268 86.9754 100.108C87.282 99.9418 87.5287 99.6951 87.7154 99.3684C87.9087 99.0351 88.0054 98.6284 88.0054 98.1484C88.0054 97.6684 87.912 97.2651 87.7254 96.9384C87.5387 96.6051 87.292 96.3584 86.9854 96.1984C86.6787 96.0318 86.3454 95.9484 85.9854 95.9484C85.6254 95.9484 85.292 96.0318 84.9854 96.1984C84.6787 96.3584 84.432 96.6051 84.2454 96.9384C84.0654 97.2651 83.9754 97.6684 83.9754 98.1484C83.9754 98.6284 84.0654 99.0351 84.2454 99.3684C84.432 99.6951 84.6754 99.9418 84.9754 100.108C85.282 100.268 85.6154 100.348 85.9754 100.348ZM89.7814 98.1384C89.7814 97.5784 89.8947 97.0884 90.1214 96.6684C90.348 96.2418 90.658 95.9151 91.0514 95.6884C91.4514 95.4551 91.9014 95.3384 92.4014 95.3384C92.8814 95.3384 93.3147 95.4551 93.7014 95.6884C94.088 95.9218 94.3714 96.2251 94.5514 96.5984V93.4784H95.2514V100.878H94.5514V99.6584C94.3847 100.038 94.1114 100.352 93.7314 100.598C93.3514 100.838 92.9047 100.958 92.3914 100.958C91.8914 100.958 91.4414 100.842 91.0414 100.608C90.648 100.375 90.338 100.045 90.1114 99.6184C89.8914 99.1918 89.7814 98.6984 89.7814 98.1384ZM94.5514 98.1484C94.5514 97.7084 94.4614 97.3218 94.2814 96.9884C94.1014 96.6551 93.8547 96.3984 93.5414 96.2184C93.2347 96.0384 92.8947 95.9484 92.5214 95.9484C92.1347 95.9484 91.788 96.0351 91.4814 96.2084C91.1747 96.3818 90.9314 96.6351 90.7514 96.9684C90.578 97.2951 90.4914 97.6851 90.4914 98.1384C90.4914 98.5851 90.578 98.9784 90.7514 99.3184C90.9314 99.6518 91.1747 99.9084 91.4814 100.088C91.788 100.262 92.1347 100.348 92.5214 100.348C92.8947 100.348 93.2347 100.258 93.5414 100.078C93.8547 99.8984 94.1014 99.6418 94.2814 99.3084C94.4614 98.9751 94.5514 98.5884 94.5514 98.1484ZM101.889 97.8684C101.889 98.1084 101.883 98.2918 101.869 98.4184H97.3394C97.3594 98.8318 97.4594 99.1851 97.6394 99.4784C97.8194 99.7718 98.0561 99.9951 98.3494 100.148C98.6427 100.295 98.9627 100.368 99.3094 100.368C99.7627 100.368 100.143 100.258 100.449 100.038C100.763 99.8184 100.969 99.5218 101.069 99.1484H101.809C101.676 99.6818 101.389 100.118 100.949 100.458C100.516 100.792 99.9694 100.958 99.3094 100.958C98.7961 100.958 98.3361 100.845 97.9294 100.618C97.5227 100.385 97.2027 100.058 96.9694 99.6384C96.7427 99.2118 96.6294 98.7151 96.6294 98.1484C96.6294 97.5818 96.7427 97.0851 96.9694 96.6584C97.1961 96.2318 97.5127 95.9051 97.9194 95.6784C98.3261 95.4518 98.7894 95.3384 99.3094 95.3384C99.8294 95.3384 100.283 95.4518 100.669 95.6784C101.063 95.9051 101.363 96.2118 101.569 96.5984C101.783 96.9784 101.889 97.4018 101.889 97.8684ZM101.179 97.8484C101.186 97.4418 101.103 97.0951 100.929 96.8084C100.763 96.5218 100.533 96.3051 100.239 96.1584C99.9461 96.0118 99.6261 95.9384 99.2794 95.9384C98.7594 95.9384 98.3161 96.1051 97.9494 96.4384C97.5827 96.7718 97.3794 97.2418 97.3394 97.8484H101.179ZM113.314 95.4184L111.604 100.878H110.904L109.394 96.2984L107.884 100.878H107.174L105.464 95.4184H106.174L107.534 100.168L109.064 95.4184H109.764L111.274 100.178L112.624 95.4184H113.314ZM119.309 97.8684C119.309 98.1084 119.302 98.2918 119.289 98.4184H114.759C114.779 98.8318 114.879 99.1851 115.059 99.4784C115.239 99.7718 115.475 99.9951 115.769 100.148C116.062 100.295 116.382 100.368 116.729 100.368C117.182 100.368 117.562 100.258 117.869 100.038C118.182 99.8184 118.389 99.5218 118.489 99.1484H119.229C119.095 99.6818 118.809 100.118 118.369 100.458C117.935 100.792 117.389 100.958 116.729 100.958C116.215 100.958 115.755 100.845 115.349 100.618C114.942 100.385 114.622 100.058 114.389 99.6384C114.162 99.2118 114.049 98.7151 114.049 98.1484C114.049 97.5818 114.162 97.0851 114.389 96.6584C114.615 96.2318 114.932 95.9051 115.339 95.6784C115.745 95.4518 116.209 95.3384 116.729 95.3384C117.249 95.3384 117.702 95.4518 118.089 95.6784C118.482 95.9051 118.782 96.2118 118.989 96.5984C119.202 96.9784 119.309 97.4018 119.309 97.8684ZM118.599 97.8484C118.605 97.4418 118.522 97.0951 118.349 96.8084C118.182 96.5218 117.952 96.3051 117.659 96.1584C117.365 96.0118 117.045 95.9384 116.699 95.9384C116.179 95.9384 115.735 96.1051 115.369 96.4384C115.002 96.7718 114.799 97.2418 114.759 97.8484H118.599ZM121.379 96.6284C121.559 96.2484 121.836 95.9384 122.209 95.6984C122.589 95.4584 123.036 95.3384 123.549 95.3384C124.049 95.3384 124.496 95.4551 124.889 95.6884C125.283 95.9151 125.589 96.2418 125.809 96.6684C126.036 97.0884 126.149 97.5784 126.149 98.1384C126.149 98.6984 126.036 99.1918 125.809 99.6184C125.589 100.045 125.279 100.375 124.879 100.608C124.486 100.842 124.043 100.958 123.549 100.958C123.029 100.958 122.579 100.842 122.199 100.608C121.826 100.368 121.553 100.058 121.379 99.6784V100.878H120.689V93.4784H121.379V96.6284ZM125.439 98.1384C125.439 97.6851 125.349 97.2951 125.169 96.9684C124.996 96.6351 124.756 96.3818 124.449 96.2084C124.143 96.0351 123.796 95.9484 123.409 95.9484C123.036 95.9484 122.693 96.0384 122.379 96.2184C122.073 96.3984 121.829 96.6551 121.649 96.9884C121.469 97.3218 121.379 97.7084 121.379 98.1484C121.379 98.5884 121.469 98.9751 121.649 99.3084C121.829 99.6418 122.073 99.8984 122.379 100.078C122.693 100.258 123.036 100.348 123.409 100.348C123.796 100.348 124.143 100.262 124.449 100.088C124.756 99.9084 124.996 99.6518 125.169 99.3184C125.349 98.9784 125.439 98.5851 125.439 98.1384ZM129.417 100.958C128.791 100.958 128.277 100.815 127.877 100.528C127.484 100.235 127.264 99.8384 127.217 99.3384H127.937C127.971 99.6451 128.114 99.8951 128.367 100.088C128.627 100.275 128.974 100.368 129.407 100.368C129.787 100.368 130.084 100.278 130.297 100.098C130.517 99.9184 130.627 99.6951 130.627 99.4284C130.627 99.2418 130.567 99.0884 130.447 98.9684C130.327 98.8484 130.174 98.7551 129.987 98.6884C129.807 98.6151 129.561 98.5384 129.247 98.4584C128.841 98.3518 128.511 98.2451 128.257 98.1384C128.004 98.0318 127.787 97.8751 127.607 97.6684C127.434 97.4551 127.347 97.1718 127.347 96.8184C127.347 96.5518 127.427 96.3051 127.587 96.0784C127.747 95.8518 127.974 95.6718 128.267 95.5384C128.561 95.4051 128.894 95.3384 129.267 95.3384C129.854 95.3384 130.327 95.4884 130.687 95.7884C131.047 96.0818 131.241 96.4884 131.267 97.0084H130.567C130.547 96.6884 130.421 96.4318 130.187 96.2384C129.961 96.0384 129.647 95.9384 129.247 95.9384C128.894 95.9384 128.607 96.0218 128.387 96.1884C128.167 96.3551 128.057 96.5618 128.057 96.8084C128.057 97.0218 128.121 97.1984 128.247 97.3384C128.381 97.4718 128.544 97.5784 128.737 97.6584C128.931 97.7318 129.191 97.8151 129.517 97.9084C129.911 98.0151 130.224 98.1184 130.457 98.2184C130.691 98.3184 130.891 98.4651 131.057 98.6584C131.224 98.8518 131.311 99.1084 131.317 99.4284C131.317 99.7218 131.237 99.9851 131.077 100.218C130.917 100.445 130.694 100.625 130.407 100.758C130.121 100.892 129.791 100.958 129.417 100.958ZM133.085 94.3884C132.945 94.3884 132.825 94.3384 132.725 94.2384C132.625 94.1384 132.575 94.0151 132.575 93.8684C132.575 93.7218 132.625 93.6018 132.725 93.5084C132.825 93.4084 132.945 93.3584 133.085 93.3584C133.225 93.3584 133.345 93.4084 133.445 93.5084C133.545 93.6018 133.595 93.7218 133.595 93.8684C133.595 94.0151 133.545 94.1384 133.445 94.2384C133.345 94.3384 133.225 94.3884 133.085 94.3884ZM133.435 95.4184V100.878H132.735V95.4184H133.435ZM136.03 96.0084V99.3984C136.03 99.7318 136.093 99.9618 136.22 100.088C136.347 100.215 136.57 100.278 136.89 100.278H137.53V100.878H136.78C136.287 100.878 135.92 100.765 135.68 100.538C135.44 100.305 135.32 99.9251 135.32 99.3984V96.0084H134.56V95.4184H135.32V94.0484H136.03V95.4184H137.53V96.0084H136.03ZM143.725 97.8684C143.725 98.1084 143.718 98.2918 143.705 98.4184H139.175C139.195 98.8318 139.295 99.1851 139.475 99.4784C139.655 99.7718 139.891 99.9951 140.185 100.148C140.478 100.295 140.798 100.368 141.145 100.368C141.598 100.368 141.978 100.258 142.285 100.038C142.598 99.8184 142.805 99.5218 142.905 99.1484H143.645C143.511 99.6818 143.225 100.118 142.785 100.458C142.351 100.792 141.805 100.958 141.145 100.958C140.631 100.958 140.171 100.845 139.765 100.618C139.358 100.385 139.038 100.058 138.805 99.6384C138.578 99.2118 138.465 98.7151 138.465 98.1484C138.465 97.5818 138.578 97.0851 138.805 96.6584C139.031 96.2318 139.348 95.9051 139.755 95.6784C140.161 95.4518 140.625 95.3384 141.145 95.3384C141.665 95.3384 142.118 95.4518 142.505 95.6784C142.898 95.9051 143.198 96.2118 143.405 96.5984C143.618 96.9784 143.725 97.4018 143.725 97.8684ZM143.015 97.8484C143.021 97.4418 142.938 97.0951 142.765 96.8084C142.598 96.5218 142.368 96.3051 142.075 96.1584C141.781 96.0118 141.461 95.9384 141.115 95.9384C140.595 95.9384 140.151 96.1051 139.785 96.4384C139.418 96.7718 139.215 97.2418 139.175 97.8484H143.015Z" fill="white"/>
</g>
<defs>
<filter id="filter0_d_4437_5788" x="0" y="0.878418" width="188" height="148" filterUnits="userSpaceOnUse" color-interpolation-filters="sRGB">
<feFlood flood-opacity="0" result="BackgroundImageFix"/>
<feColorMatrix in="SourceAlpha" type="matrix" values="0 0 0 0 0 0 0 0 0 0 0 0 0 0 0 0 0 0 127 0" result="hardAlpha"/>
<feOffset dx="-4" dy="8"/>
<feGaussianBlur stdDeviation="12"/>
<feComposite in2="hardAlpha" operator="out"/>
<feColorMatrix type="matrix" values="0 0 0 0 0 0 0 0 0 0 0 0 0 0 0 0 0 0 0.125 0"/>
<feBlend mode="normal" in2="BackgroundImageFix" result="effect1_dropShadow_4437_5788"/>
<feBlend mode="normal" in="SourceGraphic" in2="effect1_dropShadow_4437_5788" result="shape"/>
</filter>
<linearGradient id="paint0_linear_4437_5788" x1="28" y1="16.8784" x2="122.595" y2="149.311" gradientUnits="userSpaceOnUse">
<stop offset="0.03" stop-color="#3F3F40"/>
<stop offset="0.97" stop-color="#303030"/>
</linearGradient>
</defs>
</svg>
